<svg width="623" height="556" viewBox="0 0 623 556" fill="none" xmlns="http://www.w3.org/2000/svg">
<g clip-path="url(#clip0_307_1178)">
<path d="M0 350L3.14 339L5.8875 331.49L12.56 327.565L18.4475 324.425L25.905 320.5L34.1475 316.183L38.0725 314.613L42.39 312.258L46.7075 310.688L49.8475 309.118L54.165 307.155L59.2675 305.585L62.4075 304.408L66.725 302.838L70.2575 301.268H72.6125V300.483L76.145 299.698L89.0975 295.38L93.415 294.595L96.9475 293.418L103.62 291.455L107.152 290.67L109.115 289.885L113.432 289.1L116.965 288.315L120.497 287.138L126.385 285.96L129.917 284.783H133.842V283.998L147.58 281.643L148.757 281.25L153.075 280.858L153.467 280.465L160.14 279.68L166.42 279.288H172.307L171.915 278.503H156.607L151.112 279.288L143.655 280.073L140.122 280.858L132.665 282.035L122.067 283.998L112.647 285.96L110.685 286.745L104.797 287.923L94.985 290.278L83.6025 293.81L69.865 298.52L56.52 303.623L48.67 306.763L34.54 312.258L27.8675 315.79L18.055 321.678L7.85 327.565H7.065L7.4575 324.425L9.41999 317.36L10.99 310.688L14.13 298.913L18.055 283.605L21.5875 282.428L34.1475 278.895L42.39 276.933L47.885 275.755L58.09 274.185L62.8 273.793L63.9775 273.4L68.295 273.008L74.575 271.83L83.21 270.653L83.995 270.26L93.8075 269.083L104.012 268.298L123.637 267.12L138.552 265.943L140.907 265.158L151.897 263.98L160.14 262.803L167.597 261.625L167.99 260.84H157.785L131.487 262.018L127.17 262.41H111.862V263.195H103.62V263.98L91.845 265.55L82.0325 267.513L75.7525 268.69L63.9775 270.653L56.52 272.223L47.1 274.185L36.895 276.54L27.8675 278.895L20.8025 280.465H19.2325L20.0175 276.54L24.335 263.588L29.4375 247.103L32.5775 236.113L34.9325 228.655L36.895 221.198L39.6425 211.385L43.175 200.003L44.3525 199.61L44.745 205.105L47.885 214.133L50.6325 218.843L51.025 220.02H51.81L53.38 222.375L57.6975 226.693L63.1925 231.01L68.6875 234.543L77.715 239.253L81.64 240.823L85.1725 242L88.705 242.393L89.8825 243.57L97.7325 245.14L98.125 245.533L105.582 245.925L107.152 246.318H116.18L124.815 245.925L128.74 245.14L133.45 244.748L133.842 244.355L138.16 243.963L139.337 243.178L145.617 242L147.972 240.823L154.252 239.645V238.86L157.785 237.683L162.887 235.328L169.167 232.973L175.055 229.833L178.195 228.263L184.475 224.338L189.577 220.413L194.287 216.095L196.25 214.133L199.39 210.208L201.352 207.46V205.89H202.137L202.922 203.535L204.492 199.61H205.277L205.67 196.863V195.685L206.847 194.508L207.632 188.228L208.025 187.835L208.417 181.163L209.202 178.808V168.21L208.81 165.07L208.417 146.23L207.632 144.66L206.847 137.203L202.922 117.578L202.53 116.793L201.745 112.083L200.567 108.158L197.035 101.878L193.895 96.775L192.325 92.85V91.28H277.89L300.655 90.495L307.328 90.1025H312.823V90.8875L310.86 91.6725L303.01 92.85L297.123 94.8125L290.843 97.56L286.525 100.7L282.993 104.233L280.638 108.158L279.46 111.298L278.675 115.223H277.89V126.213L277.105 132.885L276.713 158.398L276.32 164.285V184.303L276.713 184.695L277.498 194.508L278.675 199.61L280.245 205.498L282.993 211.778V213.74H283.778L287.31 218.843L290.058 221.983L295.553 226.3L301.44 230.225L306.935 233.365L310.86 235.72L317.533 238.86L319.888 240.43L328.915 244.748L332.055 246.318L338.335 249.065L343.83 251.028L348.54 253.383L355.998 256.523L358.745 257.7V258.485L352.073 259.27L340.298 260.055L337.158 260.84L344.223 261.625L367.773 262.018L378.37 265.55L384.258 267.905L387.005 268.69L392.893 271.045L396.425 272.223L403.49 274.185L407.023 274.97H410.163L416.835 273.793L417.62 273.008L422.723 272.223L424.293 271.438L429.788 269.868H430.965L431.75 268.298H434.105L437.638 266.728L438.423 266.335H442.74L461.188 267.905L479.635 269.868L480.42 272.223L482.383 282.428L484.345 289.493L485.13 291.455V293.025L480.813 292.24L474.533 291.063L472.57 290.278L463.15 288.708L458.048 287.53L453.73 286.745L453.338 286.353L445.88 285.175L444.31 284.783L436.853 283.998L419.583 281.25L414.088 280.858L412.125 280.465L396.425 279.288L395.248 278.895L377.585 278.11L376.015 277.718L333.233 277.325L334.41 279.68L334.803 283.605L345.008 284.39L345.793 285.175L352.858 285.568L354.035 285.96L359.53 286.353L361.493 287.138L368.558 287.923L376.015 289.1L378.763 289.885L383.473 290.67L391.715 292.24L393.285 293.025L401.92 294.595L406.63 295.773L410.555 296.558L414.873 297.343L417.62 298.52L424.293 299.698L440.778 305.193L443.133 306.37L448.235 307.94L453.73 310.295L457.263 311.473L465.113 315.005L469.038 316.968L474.925 319.323L478.85 321.285L481.598 322.463L489.055 326.388L492.195 327.958L492.98 329.92L495.728 344.835L498.083 358.965L501.223 375.058V376.235L499.26 375.45L494.158 370.74L490.233 367.208L487.093 364.46L482.383 360.143L476.888 355.825L470.215 350.33L460.795 343.265L454.123 338.555L449.805 335.808L447.843 334.238L445.095 332.668L438.815 328.743L434.89 326.388L430.573 324.033L426.648 322.07V321.285L424.685 320.893L418.013 316.968L411.733 313.828L407.415 311.865L399.958 308.725L396.033 306.763L388.183 304.015L383.865 302.053L378.37 300.483L373.66 298.52L367.773 296.558L362.67 294.988L356.783 293.418L356.39 293.025L348.54 291.455L345.793 290.67L335.588 289.1L329.7 288.315L328.523 287.923V290.67L334.018 292.633L344.615 294.988L345.008 295.38L350.11 296.165L355.213 297.735L364.24 300.09L371.305 302.053L378.37 304.408L383.473 305.585L387.398 307.155L394.07 309.51L397.995 311.08L401.135 312.258L409.77 316.183L416.443 319.323L422.723 322.855L426.648 324.818L430.965 327.173L434.105 329.135L442.74 334.238L447.843 337.77L455.3 342.873L459.618 346.405L461.188 347.583V348.368L462.758 348.76L464.328 349.938V350.723L465.898 351.115L469.038 353.863L470.215 354.648V355.433L471.785 355.825L476.103 359.358V360.143L478.065 360.928L482.383 364.853L487.485 368.778L492.588 373.095L496.905 376.628L500.045 379.375L502.4 382.123L503.578 383.3L503.185 386.048L504.755 397.823L507.11 412.345L509.465 427.653L512.213 440.213L514.568 451.595L516.923 461.408L518.1 466.51L520.455 477.108L525.95 504.19L531.445 527.348L534.193 543.048L535.37 551.29V554.43L0 556V350Z" fill="#F3EEE1"/>
<path d="M94.1993 8.46252L96.9468 8.85502L100.479 11.21L106.367 17.0975V17.8825H103.619L100.872 16.705L98.9093 16.3125L97.7318 17.49H96.9468L100.479 23.77L102.442 26.91L101.264 22.985L99.3018 18.275V17.49H100.087L102.442 22.5925L105.582 28.8725L107.937 32.405L108.722 34.3675H109.507L113.039 39.47L117.357 44.5725L120.497 48.4975L125.599 55.5625L129.132 61.0575L130.702 64.9825L130.309 66.5525L131.094 69.3L130.702 75.58L129.524 80.29V83.0375L133.449 92.4575L135.412 99.915L135.019 101.485L133.449 97.56L132.664 93.635L130.702 88.5325L127.954 83.0375L126.384 83.43L123.637 86.57L122.459 88.14L123.637 92.4575L127.169 102.27L126.777 103.84L118.534 106.98L110.292 109.728L100.872 114.045L90.2743 119.54L82.8168 124.25L78.1068 127.783L73.0043 132.1L69.4718 135.633L65.9393 139.95L61.2293 145.838L57.3043 152.118L55.7343 154.865L55.3418 154.08L57.6968 141.913L60.4443 130.53L63.5843 116.008L66.3318 104.625L69.8643 85.785L73.0043 71.655L76.1443 57.1325L81.2468 37.115L82.8168 31.2275L86.3493 17.49L89.0968 11.995L92.2368 9.24752L94.1993 8.46252Z" fill="#A8936D"/>
<path d="M401.528 8.07001L405.453 8.46251L408.201 9.64001L412.518 12.78L415.658 16.705L419.976 25.7325L422.331 32.7975L423.901 39.0775L427.041 50.46L429.396 60.665L432.143 69.6925L434.498 79.505L436.461 86.9625L439.208 99.915L441.563 109.728L443.526 116.793L445.881 127.39L447.451 133.278L449.413 140.735L450.983 147.8L454.516 158.79V159.575L452.946 159.183L451.768 158.005V157.22L450.198 156.435L443.526 149.763L439.208 146.23L435.283 142.698L430.181 138.773L417.228 130.138L407.023 124.25L400.743 121.11L392.108 117.578L391.716 116.793L395.641 117.97L403.098 121.11L405.061 120.718L406.631 113.653L402.313 112.475L393.678 109.335L392.893 108.943L392.501 109.728V108.158L390.146 107.373L387.398 105.803L385.436 103.84L380.333 99.915L378.371 98.345L377.586 101.878L376.016 105.803L375.623 104.625L377.978 97.56L380.333 88.5325L384.258 77.15L387.791 67.3375L392.108 56.3475L396.033 46.9275L399.958 34.76L401.921 28.0875L403.098 23.3775L405.061 17.0975L405.846 14.7425L402.313 15.5275L397.996 17.49H395.641L397.603 12.78L399.566 8.85501L401.528 8.07001Z" fill="#A8936E"/>
<path d="M100.873 16.3125L103.621 17.4902L106.761 17.8828L111.078 22.5928L115.004 26.9102L117.751 30.0498L122.068 35.1523L121.283 35.5449L122.461 38.6846L123.246 42.6104L125.208 48.4971L130.311 59.4873L134.236 68.5146L136.198 73.6172L138.554 79.5049L140.516 85.3926L142.086 92.0654L143.264 95.5977L144.441 101.093L144.833 102.662L145.618 103.055L144.049 95.2051L141.301 85.3926L139.339 79.8975L137.376 75.5801L136.198 72.0479L134.236 67.7305L131.096 59.8799L127.956 53.5996L125.208 45.75L124.031 42.2178L122.461 35.9375L125.601 38.293L128.741 41.4326L131.881 44.1797L132.666 44.9648L133.451 47.3203L133.844 51.2451L135.413 57.5254L136.983 62.2354L138.161 64.5898L137.769 61.4502L136.983 59.8799L135.413 53.5996L134.629 49.6748V47.3203L137.769 49.6748L140.516 52.4229L143.656 55.1699L148.366 59.8799L148.759 60.665L149.151 77.1504L150.721 92.458L152.291 97.9521V99.5225L153.469 99.1299L151.898 92.458L151.113 87.7471L150.328 76.3652V62.2354L153.469 64.5898L155.431 66.9453L155.823 68.1221L156.216 87.7471L157.001 94.8125L158.964 98.7373V96.7754L158.571 96.3828L157.786 92.0654L157.001 68.1221L159.748 70.4775L163.674 74.0098L168.384 78.3271L172.701 81.8604L177.411 85.7852L185.261 90.8877L191.934 91.2803L195.073 98.3447L200.176 106.588L201.746 110.12L202.531 113.26L202.924 116.793L203.708 118.755L205.278 127.782L206.063 130.53L207.634 139.95L208.026 144.66L208.811 146.23L209.203 165.07L209.596 168.21V178.808L208.811 181.162L208.418 187.835L207.634 190.583L207.241 194.508L205.671 196.47L206.063 198.433L205.278 199.61H204.493L204.101 201.965L202.139 205.89L201.354 206.282L201.746 207.853L199.391 210.6L195.466 215.702L191.541 219.235L187.224 222.768L180.158 227.478L176.233 229.833L169.561 232.973L160.141 236.897L157.001 238.468L154.254 238.86V239.646L147.188 241.607L145.618 242.393L139.339 243.57L138.161 244.355L133.844 244.747L133.451 245.14L128.741 245.532L124.816 246.317L116.181 246.71H107.153L105.583 246.317L98.126 245.925L97.7334 245.532L89.8838 243.963L88.7061 243.178V242.393H85.1738L78.501 240.037L69.8662 235.72L64.3711 232.188L59.6611 228.655L54.5586 223.945L51.8105 220.805V220.021H51.0264L48.6709 216.487L46.3164 210.992L44.3535 205.105L43.9609 199.218L46.708 189.798L49.4561 178.808L52.9883 165.855L55.3438 156.043L57.3057 151.333L61.2305 145.445L66.333 139.165L70.6514 134.062L74.5762 130.138L80.0713 125.82L87.1357 121.11L93.416 117.577L104.014 112.083L113.434 108.157L122.068 105.41L126.778 103.447L126.386 101.485L122.068 88.9248L122.854 86.9629L125.601 84.2148L126.778 82.6455L128.349 83.0371L131.488 89.3174L133.451 94.8125L134.236 98.7373L135.021 101.093L134.236 96.7754L132.666 91.6729L129.918 84.6074L129.134 83.0371V80.29L130.311 75.5801L130.703 69.2998L129.918 65.7676L130.311 64.9824L127.956 59.4873L125.208 55.5625L121.283 50.0674L115.788 43.3955L111.078 37.5078L109.509 35.1523V34.3672H108.724L106.368 30.835L105.191 28.8721L100.089 18.668V17.4902H99.3037L102.836 26.125L102.443 27.6953L96.9482 18.2754V17.4902L98.9111 15.9199L100.873 16.3125ZM149.15 151.333L145.618 152.117L138.161 154.473L131.881 157.612L126.386 161.146L122.461 165.07L118.928 169.388L118.144 170.958H117.358L114.218 176.06L112.256 180.771L111.471 186.657V192.545L111.863 195.685L113.041 200.396L115.003 205.497L117.358 210.208L121.676 216.487L124.815 220.021L129.918 223.945L134.235 226.3L141.693 229.048L146.403 229.833H153.468L155.038 229.44L163.673 227.085L169.168 224.73L171.916 222.768L176.626 219.628L180.158 215.702L183.69 210.992L186.046 206.675L189.186 200.396L190.363 196.47L191.541 190.975V184.695L191.148 183.125L188.793 175.275L185.653 168.603L180.551 161.93L177.803 159.575L174.271 157.22L167.99 154.08L161.318 152.117L155.823 151.333H149.15Z" fill="#060602"/>
<path d="M405.061 18.2754L403.49 23.377L401.527 30.4424L397.603 43.3945L395.248 49.6748L390.146 62.2354L386.221 72.832L381.118 87.3545L378.763 95.5977L377.192 101.485L376.8 103.055L378.37 98.3447L379.94 99.1299L384.65 103.055L387.397 105.018V105.803L389.36 106.588L392.5 108.157L392.893 108.942L396.817 110.12L406.63 113.652L406.237 117.577L405.061 121.11L403.098 121.502L397.603 119.147L395.248 118.362L404.275 122.287L413.303 127.39L420.368 131.707L427.825 136.81L433.713 141.127L438.815 145.445L442.74 148.978L445.88 151.725L454.516 160.36L458.44 173.705L462.365 188.228L465.897 200.003L469.431 212.562L470.607 218.843V226.692L470.215 231.795L469.431 233.758L469.038 236.897L468.253 237.683L466.29 243.178L463.15 247.888L458.44 253.383L454.123 257.308L447.45 262.018L445.096 262.803L445.487 263.588L468.646 266.335L483.953 268.298L503.578 272.223L512.998 274.577L523.987 277.718L538.51 282.035L552.641 286.745L553.425 287.53L550.285 287.138L542.436 284.782L525.95 280.465L480.027 270.652L479.635 270.26L461.188 268.298L442.74 266.728H438.423L435.675 267.905L434.105 268.69H431.75L430.965 269.867L427.433 270.652L426.647 271.438L423.115 272.223L421.152 273.008L417.62 273.4L416.835 274.185L410.163 275.362H407.022L397.21 273.008L394.855 271.83L391.322 270.652L386.612 268.69L383.473 267.905L372.875 263.979L370.128 263.195L367.772 262.41L344.223 262.018L336.766 261.232L337.158 260.447L340.298 259.662L355.605 258.485H358.745L357.567 257.308L351.288 254.952L346.578 252.598L342.26 251.027L337.55 249.065L330.093 245.925L323.812 242.785L312.038 236.505L307.328 234.15L302.226 231.01L295.945 227.085L291.628 223.553L287.311 219.628L284.955 216.095L283.777 214.525V213.74H282.993L281.815 209.815L279.853 205.497L277.891 198.825L277.105 194.508L276.32 184.695L275.928 184.303V164.285L276.32 158.397L276.713 132.885L277.498 126.213L277.891 115.223H278.675L279.46 110.12L281.815 105.41L285.348 101.485L288.88 98.3447L295.16 95.2051L301.833 92.8496L308.505 91.6729L320.673 90.1025L321.458 89.71H324.205L325.775 90.1025H329.7L334.018 86.1777L337.158 83.4297L341.476 79.5049H342.26V78.7197L345.4 75.9727L349.325 72.4395L353.643 68.9072L355.605 66.9453H356.391L357.96 74.4023L359.138 84.2148V97.5596L358.353 101.877L357.96 108.157L358.745 107.765L360.315 94.4199V83.0371L359.138 74.4023L357.567 68.5146L357.175 64.9824L361.493 61.4502L364.633 58.3096L367.772 55.5625L371.697 51.6377H372.09L371.697 54.7773L370.128 60.665L368.165 71.2627L367.772 73.6172V80.6826L368.558 73.6172L370.521 63.8047L372.875 54.3848L373.66 50.8525L375.23 47.7129L383.865 39.0771L385.043 37.5078L386.221 37.9004L385.828 41.8252L384.258 47.3203L382.295 52.0303L381.118 55.9551L377.978 65.375L376.8 68.1221L375.623 72.0479H374.838L374.053 76.3652L373.268 78.3271L372.482 81.8604L371.306 85.7852L369.735 92.0645H370.521L370.913 87.7471L372.875 82.252L374.838 75.1875L377.978 66.9453L381.902 54.7773L383.08 51.6377L384.258 48.8896L385.828 43.3945L386.612 41.4326L388.183 34.3672L387.397 35.9375L386.612 35.5449L389.753 28.8721H390.538L391.322 26.5176L394.463 19.8447L395.641 17.8828L399.565 16.3125L403.098 14.7422H405.846L405.061 18.2754ZM324.206 150.548L322.636 150.94L316.355 152.51L309.291 155.65L304.974 158.397L301.44 161.537L297.908 165.463L297.123 167.425H296.338L295.161 169.388L292.413 173.705L291.235 177.237H290.451L290.059 178.022L288.488 181.947V193.723L290.059 200.003L292.413 205.497L295.554 210.6L298.301 214.525L301.44 217.665L304.974 220.412L312.431 224.338L317.533 225.907L319.496 227.085L324.599 227.87H331.663L335.98 227.085L342.653 225.122L348.934 221.982L352.466 219.235L357.568 214.133L361.493 208.638L363.456 204.713L366.596 194.508L367.381 190.19V184.695L366.203 181.162L363.456 173.705L360.315 168.21L356.391 162.322L352.073 158.005L348.934 155.65L340.69 151.725L336.766 150.548H324.206Z" fill="#060602"/>
<path d="M333.232 277.325H376.015L377.585 277.718L395.247 278.503L396.425 278.895L412.125 280.073L414.087 280.465L421.937 281.25L439.207 283.998L444.31 284.39L450.197 285.568L453.337 285.96L453.73 286.353L462.365 287.923L467.075 289.1L474.14 290.278L476.887 291.063L483.952 292.633L487.092 293.81L496.512 296.165L508.68 299.698L514.96 302.445L525.95 307.94L540.865 315.79L549.892 320.893L556.957 324.818L562.06 327.958L570.695 333.453L586.787 344.443L590.712 347.19L596.6 352.293L600.525 355.825L604.842 359.358L610.73 364.853L617.402 371.133L620.935 375.058L623.29 378.59L622.897 379.375L618.58 374.665L615.047 370.74L610.337 366.423L606.02 362.89L601.31 358.573L591.105 350.723L582.862 344.443L575.405 338.948L567.947 334.238L562.452 330.705L551.855 324.425L541.257 318.538L529.482 312.65L517.707 307.548L502.4 302.053L487.092 297.343L486.7 296.95L481.205 295.773L472.962 294.203L471 293.418L468.252 293.025L467.86 292.633L453.337 289.885L445.095 288.708L443.917 288.315L438.03 287.53L432.927 287.138L432.535 286.745L415.265 284.39L401.527 283.605L363.847 281.643L362.67 281.25L363.062 282.428L372.482 283.998L376.8 284.39L379.547 285.175L383.865 285.96L388.575 286.745L393.285 287.923L396.817 288.315L398.387 289.1L401.527 289.885L405.06 290.278L414.087 293.025L420.76 294.595L423.507 295.38L425.077 296.165L427.825 296.95L434.497 299.305L436.46 299.698V300.483L439.992 300.875L444.702 302.838L449.412 304.408L452.552 305.585L458.44 307.94L462.757 309.903L466.682 311.473L470.215 313.043L473.355 314.613L476.495 315.79L480.027 317.36L485.522 320.108L488.27 321.285L494.55 324.425L500.045 327.565L521.24 341.695L528.697 347.19L534.192 351.115L540.08 355.825L545.575 360.143L550.677 364.46L556.172 369.17L560.097 372.703L563.237 375.45L569.91 382.123L573.05 384.87L578.545 390.365L581.292 393.505L587.18 399.393L589.927 402.533L594.637 408.028L598.955 413.13L602.095 417.055L602.487 418.233L600.917 417.448L595.422 411.56L588.75 404.888L586.002 401.748L577.76 393.505L575.012 390.365L569.517 384.87L566.377 382.123L562.452 378.198L558.135 374.665L553.425 370.348L549.107 366.815L544.79 362.89L539.295 358.573L534.585 354.648L529.09 350.723L522.417 346.013L514.96 341.303L502.4 333.845L493.765 329.135L488.27 326.388L480.812 322.463L476.887 320.893L472.177 318.538L467.075 316.575L460.795 313.435L455.692 311.08L452.16 309.903L446.272 307.548L441.17 305.978L438.03 304.8L429.395 301.66L425.077 300.483L419.975 299.305L415.265 298.128L414.872 297.735L410.555 296.95L405.845 295.773L395.64 293.81L392.107 293.025L391.715 292.633L383.472 291.063L376.8 289.885L373.267 289.1L365.81 287.923L361.492 287.53L359.53 286.745L354.035 286.353L352.857 285.96L345.792 285.568L345.007 284.783L334.802 283.998L334.41 283.605L333.625 278.503L333.232 277.325Z" fill="#0D0C08"/>
<path d="M231.183 214.917H255.126L261.406 215.702L265.331 217.272L268.078 218.45V219.235L269.648 219.627L270.433 220.02V220.805L272.396 221.59L273.573 223.16L273.181 225.515L269.648 229.832L265.723 234.542L262.976 237.682L257.481 243.57L253.556 247.495L249.238 251.027L247.668 251.812L242.958 252.205L243.351 253.775L243.743 261.232L244.136 262.017L244.528 272.222L247.668 276.54L252.771 282.82L254.733 286.352L255.911 287.53L259.443 293.417L259.836 294.987L258.266 294.202L257.088 292.24L255.126 290.277L253.556 287.922L248.061 280.857L246.883 279.287V278.502H246.098L244.136 275.362V274.577L242.566 274.185L242.173 274.97H241.388L240.603 276.932L237.463 281.642L236.286 283.605H235.501L234.716 285.175L231.968 288.707L225.296 295.38L222.156 298.127L215.483 304.8L213.521 305.585L215.091 303.23L217.838 300.482L221.371 296.165L225.296 291.455L227.651 287.922L231.183 283.212L236.286 276.54L239.033 272.615L240.211 270.26H240.996V265.157L241.388 260.84V252.205L233.931 251.812L227.651 247.102L223.726 243.57L219.016 238.467L217.838 236.897V236.112L216.661 235.72L215.876 233.757H215.091L213.521 231.402L210.773 227.085L209.596 225.122L209.988 223.552L213.521 220.412L220.193 217.272L224.118 216.095L230.398 215.31L231.183 214.917Z" fill="#0D0D08"/>
<path d="M403.098 14.7425H405.846L405.061 18.275L403.491 23.3775L401.528 30.4425L397.603 43.395L395.248 49.675L390.146 62.235L386.221 72.8325L381.118 87.355L378.763 95.5975L377.193 101.485L376.801 103.055L378.371 98.345L379.941 99.13L384.651 103.055L387.398 105.017V105.802L389.361 106.587L392.501 108.157L392.893 108.942L396.818 110.12L406.631 113.652L406.238 117.577L405.061 121.11L403.098 121.502L397.603 119.147L392.501 117.185L390.146 116.792L378.763 112.082L368.166 107.372L366.596 106.587V103.84L368.558 95.99V92.4575L367.381 84.215L368.558 73.6175L370.521 63.805L372.876 54.385L373.661 50.8525L375.231 47.7125L383.866 39.0775L385.043 37.5075L386.221 37.9L385.828 41.825L384.258 47.32L382.296 52.03L381.118 55.955L377.978 65.375L376.801 68.1225L375.623 72.0475H374.838L374.053 76.365L373.268 78.3275L372.483 81.86L371.306 85.785L369.736 92.065H370.521L370.913 87.7475L372.876 82.2525L374.838 75.1875L377.978 66.945L381.903 54.7775L383.081 51.6375L384.258 48.89L385.828 43.395L386.613 41.4325L388.183 34.3675L387.398 35.9375L386.613 35.545L389.753 28.8725H390.538L391.323 26.5175L394.463 19.845L395.641 17.8825L399.566 16.3125L403.098 14.7425Z" fill="#676459"/>
<path d="M362.67 281.25L410.555 283.605L424.685 285.175L432.535 286.353L432.927 286.745L438.03 287.138L443.917 287.923L449.02 288.708L463.935 291.455L467.86 292.24L468.252 292.633L471.785 293.418L476.495 294.595L481.205 295.38L485.915 296.558L486.7 298.52L487.877 305.193L490.232 316.183L491.41 320.5V322.463L489.055 322.07L487.092 320.893L483.167 319.323L479.635 317.36L476.495 316.183L472.57 314.613L469.822 313.043L464.72 311.08L460.402 309.118L456.085 307.548L451.767 305.585L446.665 304.015L438.815 300.875L436.46 300.483V299.698L433.32 299.305L427.825 297.343L424.685 296.165L421.152 295.38L419.582 294.595L413.302 293.025L405.06 290.67L401.527 290.278L397.21 289.1L396.817 288.708L393.285 288.315L388.575 287.138L383.865 286.353L377.585 285.175L376.8 284.783L366.987 283.605L363.062 282.82L362.67 281.25Z" fill="#EFEADD"/>
<path d="M401.528 8.07001L405.453 8.46251L408.201 9.64001L412.518 12.78L415.658 16.705L419.976 25.7325L422.331 32.7975L423.901 39.0775L427.041 50.46L429.396 60.665L432.143 69.6925L434.498 79.505L436.461 86.9625L439.208 99.915L441.563 109.728L443.526 116.793L445.881 127.39L447.451 133.278L449.413 140.735L450.983 147.8L454.516 158.79V159.575L452.946 159.183L451.768 158.005V157.22L450.198 156.435L443.526 149.763L439.208 146.23L436.461 143.875L436.068 132.493L434.891 120.325L431.751 102.663L426.648 76.7575L420.368 50.8525L416.051 34.3675L412.126 23.77L409.771 19.06L407.416 15.92L406.631 15.5275L406.238 17.8825L404.668 23.3775L402.313 31.2275L399.566 40.255L397.996 44.18L394.071 55.17L389.753 65.7675L384.258 81.075L380.726 91.6725L379.156 97.56L376.408 105.018L375.623 105.803L376.016 103.448L377.978 97.56L380.333 88.5325L384.258 77.15L387.791 67.3375L392.108 56.3475L396.033 46.9275L399.958 34.76L401.921 28.0875L403.098 23.3775L405.061 17.0975L405.846 14.7425L402.313 15.5275L397.996 17.49H395.641L397.603 12.78L399.566 8.85501L401.528 8.07001Z" fill="#F3EEE1"/>
<path d="M94.1993 8.46252L96.9468 8.85502L100.479 11.21L106.367 17.0975V17.8825H103.619L100.872 16.705L98.9093 16.3125L96.5543 18.275H95.7693L94.9843 19.845L92.2368 24.1625L89.8818 31.2275L85.9568 48.89L82.4243 70.085L77.7143 94.42L71.8268 119.933L70.6493 127.783L70.2568 134.848L65.5468 140.343L60.4443 147.015L57.3043 152.118L55.7343 154.865L55.3418 154.08L57.6968 141.913L60.4443 130.53L63.5843 116.008L66.3318 104.625L69.8643 85.785L73.0043 71.655L76.1443 57.1325L81.2468 37.115L82.8168 31.2275L86.3493 17.49L89.0968 11.995L92.2368 9.24752L94.1993 8.46252Z" fill="#F3EEE1"/>
<path d="M82.8177 66.5525H83.9952L88.3127 81.075L92.6302 93.2425L94.5927 98.7375V99.5225L93.4152 100.307L95.3777 100.7L98.1252 108.55L98.9102 106.98L103.228 104.625L109.115 100.7L111.47 100.307L113.04 103.447L114.218 106.587V107.765L115.003 108.157L108.33 110.512L95.3777 116.792L88.3127 120.717L80.0702 126.212L75.7527 129.745L71.8277 133.277L70.2577 134.455L69.8652 133.277L70.6502 124.642L72.6127 114.83L77.7152 92.4575L82.4252 68.1225L82.8177 66.5525Z" fill="#A8926D"/>
<path d="M328.523 287.922L338.728 289.1L347.363 290.67L353.643 292.24L356.391 292.632L359.923 293.81L366.988 295.772L371.306 297.342L377.978 299.697L381.511 300.875L387.791 303.23L391.716 304.8L396.818 306.762L402.706 309.51L410.948 313.042L416.836 316.182L421.546 318.537L425.471 320.892L426.648 321.285V322.07L430.181 323.247L433.713 325.602L436.068 326.78L440.778 329.527L446.273 333.06L450.591 335.807L454.516 338.555L459.618 342.087L465.113 346.012L469.431 349.545L474.926 353.862L481.206 358.965L485.131 362.497L488.271 365.245L492.981 369.562L496.121 372.31L501.616 377.02L525.951 401.355L530.268 406.85L533.801 411.56L538.903 418.625L543.613 425.298L548.716 433.148L553.033 440.213L558.136 449.24L558.528 450.81L556.958 449.24L551.463 441.39L547.146 435.11L542.043 428.045L538.118 422.55L533.801 417.055L526.736 408.42L522.811 403.71L520.063 400.57L516.531 396.645L513.783 393.505L506.326 386.047L503.186 383.3V382.515L501.616 381.73L500.046 380.16V379.375L498.476 378.59L493.373 373.88L489.056 370.347L483.168 365.637L478.851 362.105L476.103 360.142L474.141 358.18L471.393 355.825L470.216 355.432L468.646 353.862L465.506 351.115L464.328 350.722V349.937L461.188 348.367L459.226 346.405L453.731 342.087L444.311 335.807L439.993 333.06L434.106 329.527L430.966 327.565L425.078 324.425L417.621 320.5L410.948 316.967L406.238 315.005L400.743 312.257L394.463 310.295L390.931 308.725L385.828 306.762L378.371 304.8L370.128 302.052L362.278 300.09L354.036 297.735L347.756 296.165L345.008 295.772L342.261 294.987L331.271 292.24L328.131 290.67L328.523 287.922Z" fill="#0F0E09"/>
<path d="M88.3134 36.33L89.8834 36.7225L97.7334 60.665L103.228 75.1875L106.368 83.0375L110.293 94.0275L112.256 99.915L115.003 107.373L114.218 107.765L111.471 100.7L109.116 101.093L101.266 106.195L98.9109 107.373L98.5184 109.335L97.3409 107.765L94.9859 100.7H93.0234L93.8084 99.5225H94.5934L89.4909 85.3925L85.9584 74.795L83.9959 67.73V66.5525H82.8184L84.3884 55.5625L86.3509 45.3575L88.3134 36.33Z" fill="#A8936E"/>
<path d="M170.346 281.25H179.766L179.373 282.82L171.523 284.39L164.458 285.568L158.571 287.53L156.608 288.315L153.076 289.1L149.151 290.67L145.618 291.848L140.516 293.81L136.983 295.38L130.703 297.735L127.563 299.305L124.816 300.483L120.498 302.445L117.751 303.623L113.826 305.585L108.723 307.548L105.191 309.51L102.443 311.08L98.5181 312.65L92.2381 315.79L89.8831 316.575V317.36L87.1356 318.538L78.1081 323.248L72.6131 326.388L66.7256 329.528L63.1931 331.49L59.6606 333.845L56.1281 335.808L54.1656 336.985H53.3806V337.77L49.4556 339.733L45.5306 342.088L38.8581 346.405H38.0731V347.19L34.5406 349.153L29.4381 353.078L25.1206 356.218L20.0181 360.143L14.5231 364.46L9.42063 368.778L5.88813 371.525L3.92563 373.488H3.14062V369.563L7.85063 365.638L12.9531 361.713L18.4481 357.395L23.5506 353.47L31.0081 347.975L38.0731 342.873L43.5681 338.948L52.9881 332.668L63.1931 326.388L70.6506 322.07L76.1456 319.323L82.4256 315.79L89.0981 312.258L98.1256 307.94L102.443 305.978L110.686 302.053L117.751 298.52L121.676 296.95L125.208 295.38H126.778V294.595L132.666 292.24L137.376 290.278L151.113 285.568L156.216 283.998L164.066 282.428L168.776 281.643L170.346 281.25Z" fill="#0F0F0A"/>
<path d="M99.3027 17.49H100.088L102.443 22.5925L105.583 28.8725L107.938 32.405L108.723 34.3675H109.508L113.04 39.47L117.358 44.5725L120.498 48.4975L125.6 55.5625L129.133 61.0575L130.703 64.9825L130.31 66.5525L131.095 69.3L130.703 75.58L129.525 80.29V83.0375L133.45 92.4575L135.413 99.915L135.02 101.485L133.45 97.56L132.665 93.635L130.703 88.5325L127.955 83.0375L126.385 83.43L123.638 86.57L122.46 88.14L123.638 92.4575L127.17 102.27V103.447H126.385L122.853 92.85L121.283 88.925L119.32 83.8225L115.003 70.87L111.078 59.88L106.76 46.535L104.798 39.0775L104.405 35.545L105.583 37.115H106.368L107.153 40.6475L109.508 41.4325L104.798 32.7975L103.62 29.265H102.835V28.48H103.62L101.658 24.1625L99.3027 18.275V17.49Z" fill="#AC9874"/>
<path d="M327.346 295.38H329.701L330.093 295.773L337.943 297.343L345.008 300.09L350.503 302.053L355.606 304.408L360.708 306.37L366.596 309.51L372.483 312.258L377.193 315.005L380.333 316.183L384.651 318.538L387.791 320.5L401.136 327.173V327.958L403.098 328.35L405.846 329.92L409.771 332.275L410.948 332.668V333.453L413.696 334.238V335.023H414.873V335.808L416.443 336.2L420.761 338.948L423.901 340.518L425.078 341.303V342.088L427.041 342.873L429.788 345.228L431.358 347.583L434.498 350.723L437.246 353.863L443.133 359.75L445.096 361.32L447.843 364.46L449.806 366.423L453.338 370.74L455.301 372.31V373.095H456.086L458.441 376.235L459.226 377.805H460.011L461.188 379.768L462.758 381.338L464.721 383.693L465.898 385.655L467.468 387.225L469.431 389.58L471.001 392.328L473.356 395.075L475.711 398.215L478.458 402.533L480.421 404.495L481.991 407.243L482.776 408.028L483.561 409.99L484.738 411.953L487.093 415.485L486.701 416.663L485.131 414.7L481.598 409.598V408.813H480.813L480.028 406.458L478.851 406.065L477.281 403.71V402.925H476.496L475.318 400.963V400.178H474.533L471.393 395.86L468.253 391.935L467.861 390.758H467.076L466.291 388.795H465.506L465.113 387.225H464.328L463.543 385.263L462.366 384.87L461.581 382.908H460.796L458.048 379.375L457.263 377.805H456.478L454.908 375.45L449.806 370.348V369.563L448.236 368.778L444.703 364.853L440.778 360.928L438.816 359.358L434.106 354.648L429.003 350.723L423.508 346.798L419.191 343.658L412.518 338.948L409.771 337.378L406.238 335.023L393.286 327.958L387.006 324.425L379.548 320.5L371.306 316.575L364.633 313.043L356.391 309.51L332.841 299.698L327.738 297.735L326.953 296.95L327.346 295.38Z" fill="#10100B"/>
<path d="M182.906 285.175L185.653 285.567L186.046 286.745L183.298 288.315L180.158 289.492L178.196 289.885H177.411V290.67L167.991 294.202L166.028 295.38L160.926 297.342L155.431 300.09L150.328 302.052L146.403 304.407L143.656 305.585L136.198 309.117L129.526 312.65L122.853 315.79L120.891 316.967H120.106V317.752L116.966 319.322L114.218 321.285L110.686 323.247L102.051 328.742L99.6956 330.312H98.9106V331.097H97.7331V331.882L95.7706 333.06L87.9206 338.555L78.5006 345.62L71.0431 351.115L64.7631 355.825L58.0906 360.927L53.3806 365.245L50.2406 367.992L45.1381 372.31L28.2606 389.187L24.7281 393.505L20.8031 397.822L16.4856 403.317L11.7756 409.205L3.92562 419.41H3.14062V417.055L8.63562 409.99L11.7756 406.065L16.0931 400.57L20.4106 395.467L23.1581 391.935L27.4756 387.225L30.2231 384.085L34.5406 379.375L39.6431 373.487L43.9606 368.385L49.0631 363.282L56.1281 358.18L68.6881 348.76L73.0056 345.62L80.4631 340.125L87.1356 335.415L100.088 326.78L106.761 322.462L114.218 317.752L123.638 312.257L125.993 310.687L131.488 307.94L134.628 305.977L155.038 295.772L164.851 291.455L179.766 285.96L182.906 285.175Z" fill="#11110D"/>
<path d="M406.629 15.5275L407.807 15.92L408.592 17.0975L408.199 22.5925L407.807 25.7325L409.377 25.34L408.592 31.62L407.807 35.545L407.414 38.685L406.629 40.255H405.844L405.059 42.61L401.527 50.0675L397.602 60.2725L394.069 70.4775L395.639 70.87V74.01L394.854 76.7575H395.639L394.462 80.6825L391.322 89.3175L387.397 103.84L386.612 104.625L382.294 101.485L378.762 98.345L380.332 91.6725L385.042 77.5425L390.144 63.805L394.854 52.03L398.779 40.6475L400.349 36.7225L401.919 31.2275L404.274 23.3775L406.629 15.5275Z" fill="#A8936F"/>
<path d="M471.001 220.02L471.786 220.805L474.533 235.328L478.458 262.018L479.243 267.513L468.646 266.728L459.226 265.55L445.488 263.98L445.096 262.803L449.413 260.448L454.908 256.13L459.618 251.813L463.936 246.318L465.898 243.178L467.861 237.683L468.646 236.898L469.431 232.58L469.823 231.795L470.608 221.198L471.001 220.02Z" fill="#F2EDDF"/>
<path d="M157.786 260.448H162.496L167.991 260.84L167.598 262.018L157.001 263.588L144.833 265.158L140.908 265.55L138.553 266.335L118.928 267.905L98.5181 269.083L89.8831 269.868L83.9956 270.653L80.8556 271.438L69.4731 273.008L68.2956 273.4L63.9781 273.793L62.8006 274.185L52.2031 275.363L45.9231 276.54L40.8206 277.718L31.0081 280.073L25.9056 281.643L18.4481 283.605L14.9156 284.783L5.49563 287.53L3.14062 287.923V285.96L5.88813 284.783L20.0181 280.465L21.9806 279.68L32.5781 277.325L44.7456 274.185L55.3431 272.223L57.6981 271.438L78.1081 267.905L83.2106 266.728L91.8456 265.158L99.6956 263.98H103.621V263.195H111.863V262.41L127.171 262.018L131.488 261.625L157.786 260.448Z" fill="#0D0C08"/>
<path d="M98.9098 15.92L100.872 16.3125L103.62 17.49L106.76 17.8825L111.077 22.5925L115.002 26.91L117.75 30.05L122.067 35.1525L121.282 35.545L122.46 38.685L123.245 42.61L125.207 48.4975L130.31 59.4875L134.235 68.515L136.197 73.6175L138.552 79.505L140.515 85.3925L140.907 88.14L135.412 95.205L134.235 96.775L132.665 91.6725L129.917 84.6075L129.132 83.0375V80.29L130.31 75.58L130.702 69.3L129.917 65.7675L130.31 64.9825L127.955 59.4875L125.207 55.5625L121.282 50.0675L115.787 43.395L111.077 37.5075L109.507 35.1525V34.3675H108.722L106.367 30.835L105.19 28.8725L100.087 18.6675V17.49H99.3023L102.835 26.125L102.442 27.695L96.9473 18.275V17.49L98.9098 15.92Z" fill="#080804"/>
<path d="M403.097 14.7425H405.845L405.06 18.275L403.49 23.3775L401.527 30.4425L397.602 43.395L396.032 46.535L394.855 45.75L396.032 41.825L397.21 38.2925L394.462 44.5725L390.93 50.0675L389.752 52.03L390.145 52.815L388.575 55.955L383.865 61.8425L381.51 63.805L377.192 73.6175L375.23 79.8975L374.837 83.43V86.57L372.875 88.14H372.09L371.697 90.8875H370.912L370.52 92.065L370.912 87.7475L372.875 82.2525L374.837 75.1875L377.977 66.945L381.902 54.7775L383.08 51.6375L384.257 48.89L385.827 43.395L386.612 41.4325L388.182 34.3675L387.397 35.9375L386.612 35.545L389.752 28.8725H390.537L391.322 26.5175L394.462 19.845L395.64 17.8825L399.565 16.3125L403.097 14.7425Z" fill="#090804"/>
<path d="M191.147 291.062L192.324 291.455L191.932 293.025L186.044 296.558L182.512 298.52L180.157 300.09L175.839 302.445L171.522 305.193L168.774 306.763L163.672 310.295L160.139 312.258L158.177 313.828L156.214 315.005L151.897 317.753L147.579 320.893L145.617 322.07L144.047 322.463V323.248L140.122 325.995L137.374 327.565L131.487 331.883L129.524 333.06H128.739V333.845L124.029 337.378H122.852L122.459 338.555L120.104 340.125L117.749 342.088L115.787 342.873V343.658L112.647 346.013L107.152 350.723L102.442 355.04L97.3393 359.75L94.5918 362.498L91.8443 365.638L85.9568 371.525L83.6018 374.273L82.8168 375.45H82.0318L81.2468 377.02L79.6768 378.983H78.8918L78.4993 380.553H77.7143L76.9293 382.123L73.0043 386.833L69.4718 391.15L64.7618 396.645L60.8368 402.14L58.4818 404.888L56.1268 408.42H55.3418L55.7343 406.85L59.6593 401.355L62.7993 396.645L66.7243 391.543L71.0418 386.048L74.5743 381.73L78.4993 377.02L82.0318 372.703L85.9568 368.385L88.7043 365.245L93.8068 360.143L96.5543 357.003L108.722 344.835L111.469 341.695L115.787 337.378L120.104 334.63L124.029 331.883L135.019 325.21L146.794 317.36L154.252 312.65L162.102 307.548L170.344 302.445L176.232 298.913L182.904 294.988L191.147 291.062Z" fill="#11110D"/>
<path d="M109.9 100.307L111.863 100.7L114.218 106.587V107.765L115.003 108.157L108.33 110.512L95.3777 116.792L88.3127 120.717L80.0702 126.212L75.7527 129.745L71.8277 133.277L70.2577 134.455L69.8652 133.277L70.6502 124.642L72.6127 114.83L73.7902 113.652L80.0702 112.082L93.4152 108.942L97.7327 108.157L98.1252 108.55L98.9102 106.98L103.228 104.625L109.115 100.7L109.9 100.307Z" fill="#67655A"/>
<path d="M371.698 51.6375H372.091L371.698 54.7775L370.128 60.665L368.166 71.2625L367.773 73.6175V85.3925L368.951 92.4575V95.99L366.988 103.84L366.596 106.588L361.493 104.625L359.531 103.448L359.923 97.1675L360.316 94.42V83.0375L359.138 74.4025L357.568 68.515L357.176 64.9825L361.493 61.45L364.633 58.31L367.773 55.5625L371.698 51.6375Z" fill="#080804"/>
<path d="M407.808 114.438L414.873 117.578L421.153 120.718L419.976 124.25V124.643L421.546 121.895L425.078 122.68L435.283 125.428L436.068 126.998L436.461 132.493V141.52L435.676 142.305L429.396 137.203L422.723 132.493L418.406 130.138L412.518 126.605L405.846 122.68V119.54L407.023 115.223L407.808 114.438Z" fill="#656359"/>
<path d="M385.042 37.5075L386.219 37.9L385.827 41.825L384.257 47.32L382.294 52.03L381.117 55.955L377.977 65.375L376.799 68.1225L375.622 72.0475H374.837L374.052 76.365L373.267 78.3275L372.482 81.86L370.127 89.71H368.949L368.164 85.3925L368.557 73.6175L370.519 63.805L372.874 54.385L373.659 50.8525L375.229 47.7125L383.864 39.0775L385.042 37.5075Z" fill="#0A0A06"/>
<path d="M302.226 521.46L303.011 521.853L306.543 535.983L308.898 548.935L309.683 554.038H324.991L324.598 554.823L277.498 555.215H206.063L202.531 554.823V554.43L179.766 554.038V553.645H207.241L208.026 539.515L209.203 529.31L209.988 526.17L210.773 526.563L210.381 540.693L209.596 553.645H276.321L275.143 545.403L274.358 538.338L275.143 539.123L277.106 549.72L277.891 553.645H306.151L304.188 537.16L302.226 522.638V521.46Z" fill="#9A907A"/>
<path d="M250.022 223.945H259.049L262.974 225.908L264.937 227.085L264.544 228.655L262.189 231.795L260.227 231.403L257.872 229.833L256.302 229.44H252.377L250.414 231.01L250.022 231.795L249.629 247.888L248.844 249.85L246.097 251.028H242.957L242.172 249.458V229.44L245.312 225.908L247.274 224.73L250.022 223.945Z" fill="#EFEADC"/>
<path d="M104.797 29.265L105.974 30.4425L108.722 34.76L109.507 34.3675L113.039 39.47L117.357 44.5725L120.497 48.4975L125.599 55.5625L129.132 61.0575L130.702 64.9825L130.309 66.5525L131.094 69.3L130.702 75.58L129.132 82.2525L128.347 81.075L124.814 70.4775L118.927 57.525L113.432 46.9275L109.507 39.47L106.367 33.5825L104.797 30.4425V29.265Z" fill="#A5916C"/>
<path d="M226.866 224.338H235.108L238.641 225.515L239.818 226.693L240.603 228.263L240.996 230.618V251.028L238.248 251.42L235.501 251.028L234.716 248.28L233.538 232.973L232.753 230.618L231.576 229.833H226.866L224.118 231.795H222.548V231.01L220.978 230.225L220.193 228.655L222.941 226.3H223.726V225.515L226.866 224.338Z" fill="#EAE5D7"/>
<path d="M122.461 35.9375L125.601 38.2925L128.741 41.4325L131.881 44.18L132.666 44.965L133.451 47.32L133.843 51.245L135.413 57.525L136.983 62.235L138.161 64.59L138.946 63.805L139.731 65.7675L142.086 68.9075L142.478 70.4775L142.871 81.86H142.086L141.301 75.58L139.731 71.655V70.4775L138.553 70.085L139.731 75.58L140.908 78.3275V81.075L140.123 81.86L137.376 75.58L136.198 72.0475L134.236 67.73L131.096 59.88L127.956 53.6L125.208 45.75L124.031 42.2175L122.461 35.9375Z" fill="#0A0A05"/>
<path d="M123.244 52.03L125.599 52.4225V53.2075L127.169 52.815L131.879 63.02L134.234 68.515L136.197 73.6175L138.552 79.505L140.514 85.3925L140.907 88.14L135.412 95.205L134.234 96.775L132.664 91.6725L129.917 84.6075L129.132 83.0375V80.29L130.309 75.58L130.702 69.3L129.917 65.7675L130.309 64.9825L127.954 59.4875L125.207 55.5625L123.244 52.815V52.03Z" fill="#2F2A23"/>
<path d="M458.048 510.862L458.833 512.04L461.973 521.46L466.683 535.197L469.038 545.01L470.608 552.86V554.037L474.925 553.645H491.803L493.765 554.037V552.075L494.943 553.252V554.037L498.475 553.645L535.37 553.252V554.43L536.548 554.822H392.5L392.893 554.037H404.668V547.365L405.453 548.542L406.238 552.075L407.023 553.645L432.535 553.252L469.038 553.645L466.683 542.655L463.543 530.487L458.833 515.18L458.048 512.432V510.862Z" fill="#B0A289"/>
<path d="M390.931 57.525L391.716 58.31L386.613 71.655L381.118 87.355L378.763 95.5975L377.586 95.205L375.623 89.3175V82.645L379.156 72.0475L381.903 67.3375L386.221 61.45L388.183 60.665V59.4875L389.361 58.31L390.931 57.525Z" fill="#A8936E"/>
<path d="M241.387 216.88H257.872L264.152 218.45L269.254 221.59L269.647 223.553L268.469 225.515L266.507 224.73L262.974 221.983L259.442 220.805L255.124 220.413H234.714L222.154 221.983L217.837 224.338L214.304 227.085L212.342 226.693L211.164 225.515V223.945L216.659 220.805L220.977 218.843L226.864 217.665L229.612 217.273L241.387 216.88Z" fill="#B1AB9D"/>
<path d="M366.987 76.365H367.379L367.772 85.3925L368.949 92.4575V95.99L366.987 103.84L366.594 106.587L361.492 104.625L359.529 103.447L359.922 97.1675L360.314 94.42L360.707 85.3925L361.492 83.0375L365.417 77.5425L366.987 77.15V76.365Z" fill="#2F2A22"/>
<path d="M121.283 89.71L122.461 90.8875L124.816 97.56L126.778 103.447L125.993 104.232L116.181 107.765L114.611 107.372L111.863 99.915L111.471 97.1675L116.181 93.635L120.106 90.495L121.283 89.71Z" fill="#646257"/>
<path d="M406.631 15.5275L407.808 15.92L408.593 17.0975L408.201 22.5925L407.808 25.7325L409.378 25.34L408.593 31.62L406.238 36.33L402.313 43.0025L399.173 48.89L397.996 50.46L396.426 49.675L396.818 46.535L398.781 40.6475L400.351 36.7225L401.921 31.2275L404.276 23.3775L406.631 15.5275Z" fill="#A3935B"/>
<path d="M126.778 82.645L128.348 83.0375L131.488 89.3175L133.451 94.8125V96.775L129.918 100.7L127.563 103.448L126.778 102.27L123.246 92.4575L122.068 88.14L125.601 84.215L126.778 82.645Z" fill="#302B23"/>
<path d="M3.53313 433.932H3.92563L4.31813 442.96V466.117L5.88813 464.547L8.63563 460.23L9.02813 461.015L6.28063 466.117L5.88813 471.22V474.36L6.28063 475.93L4.71063 478.285V552.86L3.53313 552.467L3.14062 479.855V455.912L3.53313 433.932Z" fill="#B7AF9F"/>
<path d="M257.872 369.17H259.442L260.227 373.095V380.945L259.442 384.085L257.872 387.618L256.302 389.973L254.732 391.543L253.162 391.15L252.377 388.795V381.338L254.339 375.058L257.087 369.955L257.872 369.17Z" fill="#BAB3A6"/>
<path d="M392.499 108.943L396.424 110.12L406.237 113.653L405.844 117.578L404.667 121.11L402.704 121.503L397.209 119.148L392.107 117.185L389.752 116.793L390.537 116.4L391.322 112.868L392.499 108.943Z" fill="#656358"/>
<path d="M129.917 541.478H130.309L129.917 545.01L128.739 550.505V553.253H177.802L178.979 551.29L179.764 547.758H180.157V551.29L179.764 554.038H202.922L202.529 554.823H93.8066L94.1991 554.038H127.562L127.954 550.113L129.917 541.478Z" fill="#A69679"/>
<path d="M108.33 93.635H109.115L111.47 99.5225V100.308L108.33 101.485L101.265 106.195L98.1245 107.765L95.7695 99.915L107.545 94.0275L108.33 93.635Z" fill="#A8926D"/>
<path d="M323.812 509.292L324.597 510.47L329.7 540.692L330.877 551.29L331.27 553.645L350.502 553.252V554.037L346.97 554.43V554.822L328.522 555.215H282.207V554.822L324.597 554.43L309.682 554.037V553.645H329.307L326.56 532.842L323.812 511.647V509.292Z" fill="#B9B2A4"/>
<path d="M376.014 64.9825H377.977L375.622 72.0475H374.837L374.052 76.365L373.267 78.3275L372.482 81.86L370.127 89.71H368.949L368.164 85.3925L368.557 73.6175L368.949 71.2625L370.519 70.87L372.089 68.9075H372.874L373.659 67.3375L376.014 64.9825Z" fill="#2F2A22"/>
<path d="M131.488 59.095H133.843L135.806 62.235L137.376 62.6275L138.161 64.59L138.946 63.805L139.731 65.7675L142.086 68.9075L142.478 70.4775L142.871 81.86H142.086L141.301 75.58L139.731 71.655V70.4775L138.553 70.085L139.731 75.58L140.908 78.3275V81.075L140.123 81.86L137.376 75.58L136.198 72.0475L134.236 67.73L131.096 59.88L131.488 59.095Z" fill="#312C25"/>
<path d="M232.752 287.53V288.708L230.005 293.025L221.762 301.268L218.622 304.015L213.52 308.333L209.202 311.473L202.922 316.575L195.857 321.678L189.185 325.995L184.867 328.35L184.082 327.958L190.362 324.033L196.642 319.715L201.745 315.398L204.885 312.258L208.025 309.51L213.912 304.015L214.305 305.193L218.23 301.66L224.51 295.38L227.65 292.633L232.752 287.53Z" fill="#9A8B6F"/>
<path d="M191.148 356.218H192.326L191.541 357.788L188.793 360.928L186.438 362.89H185.653L184.868 364.46L183.298 366.423H182.513L181.728 367.993L178.196 371.133L176.233 372.31L175.448 373.488H174.663V374.273H173.878L173.093 375.843L171.523 377.02H169.561L169.953 373.488L171.131 371.918H172.308V371.133L175.056 368.778L176.626 366.815L182.121 362.89L184.476 362.105L185.261 360.535L188.008 358.18L189.186 357.003L191.148 356.218Z" fill="#BAB3A6"/>
<path d="M388.967 51.6375L390.145 52.815L388.575 55.955L383.865 61.8425L381.51 63.805L377.192 73.6175L375.23 79.8975L374.837 83.43V86.57L372.875 88.14H372.09L371.697 90.8875H370.912L370.52 92.065L370.912 87.7475L372.875 82.2525L374.837 75.1875L377.977 66.945L380.725 58.31L381.51 59.095L384.65 56.3475L388.967 51.6375Z" fill="#312C24"/>
<path d="M402.705 74.01H403.49L405.452 76.365H406.237L405.845 83.43L405.06 90.1025L404.275 90.495V93.635L403.882 97.1675L402.312 97.56L400.742 97.1675L401.135 82.645L402.312 75.1875L402.705 74.01Z" fill="#A8985F"/>
<path d="M33.3632 531.273L33.7557 532.45L30.2232 541.87L28.2607 547.758V548.543L30.2232 544.225L30.6157 545.403L27.4757 554.038H54.5582V554.823H4.3182V556H3.5332L3.9257 538.73H4.3182L4.7107 553.645L9.4207 554.038L10.2057 552.075L14.1307 544.618L17.2707 537.945L18.0557 536.375L18.4482 537.16L14.1307 546.973L10.2057 554.038H26.2982L26.6907 550.505L28.2607 544.618L31.7932 534.805L33.3632 531.273Z" fill="#8B8673"/>
<path d="M121.676 35.9375L123.246 37.5075L124.816 44.18L127.956 52.03L129.133 54.7775L131.881 61.0575L133.843 66.16L135.806 70.085L138.161 76.365L140.908 82.645L143.263 90.8875L145.226 98.345L145.618 103.055L144.441 102.663L143.263 98.345L142.086 92.85L140.516 87.355L138.553 80.6825L136.198 74.4025L134.236 70.085L132.273 64.9825L129.133 57.9175L124.423 47.7125L122.461 41.825L121.676 37.5075V35.9375Z" fill="#DCD5C6"/>
<path d="M458.048 510.862L458.833 512.04L461.973 521.46L466.683 535.197L469.038 545.01L470.216 551.29L469.823 552.86L469.431 554.037H407.023V553.645L432.536 553.252L469.038 553.645L466.683 542.655L463.543 530.487L458.833 515.18L458.048 512.432V510.862Z" fill="#BAB3A6"/>
<path d="M302.225 521.46L303.01 521.853L306.543 535.983L308.898 548.935L309.29 552.468L307.72 554.038L306.935 552.86L306.543 554.038H285.74V553.645H306.15L304.188 537.16L302.225 522.638V521.46Z" fill="#B9B2A5"/>
<path d="M354.428 53.9925L355.213 54.7775L357.175 63.805L359.923 61.8425L360.708 62.235L357.96 64.9825H357.175L359.138 73.6175L359.923 76.7575L360.708 83.0375V94.42L359.138 107.765L357.96 108.157V101.877L358.745 97.56V84.215L357.568 74.4025L356.39 68.9075L355.213 59.4875L354.428 53.9925Z" fill="#E1DCCE"/>
<path d="M406.629 15.5275L407.807 15.92L408.592 17.0975L408.199 22.5925L406.629 28.48L404.274 34.76L399.957 41.4325L399.172 41.825L399.564 39.0775L404.274 23.3775L406.629 15.5275Z" fill="#0D0D08"/>
<path d="M404.668 547.365L405.453 548.542L406.238 552.075L407.023 552.86V554.037H469.43V552.075L469.823 552.86H470.608V554.822H392.5L392.893 554.037H404.668V547.365Z" fill="#A5916D"/>
<path d="M291.627 390.758L293.197 391.15L295.159 402.14L297.122 418.625L297.907 430.793L297.122 430.4L294.374 406.065L292.804 394.29H292.019L293.982 414.7L295.159 424.12L297.122 433.148L297.514 434.718H296.337L294.374 425.69L293.197 418.625V415.878L292.412 415.485L292.019 409.205L291.627 403.71V390.758Z" fill="#BAB3A6"/>
<path d="M329.699 390.365L330.877 390.757L333.232 395.467L332.839 396.645L332.447 398.215L335.194 407.635L336.764 411.952L338.334 416.662L341.474 424.12L342.652 426.082L339.119 414.7L334.802 401.747L335.194 400.57L337.942 407.635V408.42H338.727L341.474 418.232L344.614 430.007L345.792 433.147L345.399 434.325L337.942 419.41L334.409 409.99L332.839 403.71L330.484 395.467L329.699 391.935V390.365Z" fill="#B9B2A5"/>
<path d="M89.4902 37.115L90.2752 37.9L97.7327 60.665L103.228 75.1875L106.368 83.0375L110.293 94.0275L112.255 99.915L115.003 107.372L114.218 107.765L107.545 90.1025L104.798 82.2525L104.013 81.86L100.088 82.2525L100.48 81.4675L103.62 80.6825L103.228 78.3275L99.3027 68.1225L96.1627 59.88L90.2752 41.4325L89.4902 38.685V37.115Z" fill="#F3EEE1"/>
<path d="M83.9941 64.9825L84.7791 65.7675L87.9191 76.365L91.8441 88.14L95.3766 97.9525V98.7375L102.442 95.5975L107.152 92.85H108.329V94.0275L102.442 97.1675L96.1616 99.915L98.5166 107.765L98.1241 109.335L95.7691 103.055L94.9841 100.7H93.0216L93.8066 99.5225H94.5916L89.4891 85.3925L85.9566 74.795L83.9941 67.73V64.9825Z" fill="#F4EFE2"/>
<path d="M219.015 477.107H219.408V500.657L219.015 517.142L218.623 521.067H217.445V499.087L218.23 484.172L218.623 477.892L219.015 477.107Z" fill="#B9B1A3"/>
<path d="M390.929 57.525L391.714 58.31L388.967 65.375H388.182L386.612 66.945L385.042 69.6925L383.079 71.655H382.294V72.44L380.724 73.6175L378.762 74.4025L379.154 72.0475L381.902 67.3375L386.219 61.45L388.182 60.665V59.4875L389.359 58.31L390.929 57.525Z" fill="#A7965C"/>
<path d="M258.658 291.848L260.621 293.81L264.153 298.52L269.256 304.408L278.283 313.435L284.956 318.538L288.881 320.893L293.983 323.248L295.946 324.033L294.768 324.425L288.096 321.678L281.031 317.36L276.713 313.828L272.788 310.295L263.761 301.268L260.228 296.95L259.051 295.38L259.443 294.203L258.658 291.848Z" fill="#B9B1A2"/>
<path d="M398.781 39.8625L399.173 40.6475L395.248 52.03L389.361 66.945L384.258 81.075L380.726 91.6725L379.156 97.56L376.408 105.017L375.623 105.802L376.016 103.447L377.978 97.56L380.333 88.5325L384.258 77.15L387.791 67.3375L392.108 56.3475L396.033 46.9275L398.388 40.255L398.781 39.8625Z" fill="#F4EFE2"/>
<path d="M274.357 538.338L275.142 539.123L277.105 549.72L277.89 553.645L306.542 554.038V551.29L307.327 552.86L308.112 553.645L309.29 552.468L309.682 554.038H324.99L324.597 554.823L277.497 555.215L274.75 554.823L275.142 554.038H276.32L274.357 539.908V538.338Z" fill="#A2906F"/>
<path d="M130.702 499.088L131.095 500.658L128.74 524.993L126.385 539.123L125.6 541.478H125.207L125.6 529.703L127.955 515.18L130.31 500.265L130.702 499.088Z" fill="#C2BBAD"/>
<path d="M148.758 59.88L149.543 60.2725L149.935 61.8425L150.328 73.6175L150.72 76.365L151.505 87.7475L153.075 96.3825L153.86 99.5225H152.29L150.328 92.4575L148.758 77.15V59.88Z" fill="#DFDACD"/>
<path d="M388.182 33.975L388.574 35.1525L386.612 42.61L385.434 46.535L383.864 50.46L382.687 54.385L381.117 58.31L378.369 66.945L376.014 72.8325L373.659 80.29L372.089 85.785L370.912 89.71L370.519 92.065H369.734L370.127 88.14L372.089 81.86L373.267 77.15L374.837 72.0475H375.622L376.407 68.1225L378.369 63.4125L380.332 56.3475L381.509 53.2075L383.472 47.7125L384.649 44.18L385.827 40.255L386.219 39.8625L387.004 36.33L388.182 33.975Z" fill="#DCD7CA"/>
<path d="M298.301 448.062L299.086 448.848L302.226 460.623L303.796 468.865L307.328 497.518V501.443H306.543L304.188 484.173L302.226 467.688L300.263 457.483L298.301 449.24V448.062Z" fill="#979180"/>
<path d="M155.822 67.3375H156.607L157.392 69.6925L158.177 92.065L158.962 96.3825L159.355 96.775V99.13L157.785 97.56L156.607 94.8125L155.822 87.7475V67.3375Z" fill="#D8D4C7"/>
<path d="M209.988 526.17L210.773 526.562L210.38 540.692L209.595 553.645L207.24 553.252L208.025 539.515L209.203 529.31L209.988 526.17Z" fill="#B9B2A5"/>
<path d="M350.502 514.003H350.894V519.105L350.109 527.74V536.768L351.679 552.075L352.464 552.468L352.072 529.31L352.857 528.525L353.249 530.095L353.642 540.693V554.038L353.249 553.253L350.502 552.86L349.717 546.58L349.324 541.87V525.778L350.109 515.965L350.502 514.003Z" fill="#BAB3A6"/>
<path d="M98.5176 487.312L98.9101 488.098L95.3776 500.658L93.8076 506.153L90.2751 515.965L89.0976 518.32L88.7051 516.75L91.8451 504.583L94.5926 496.34L97.7326 488.098L98.5176 487.312Z" fill="#F4EFE2"/>
<path d="M377.193 44.965V46.1425L374.838 48.89L373.661 52.03L371.306 62.6275L369.343 71.2625L368.558 75.9725L367.773 84.215H367.381V73.6175L368.951 64.1975L372.483 50.0675L376.016 46.1425L377.193 44.965Z" fill="#E6E0D3"/>
<path d="M99.3027 17.49H100.088L102.443 22.5925L105.583 28.8725L107.938 32.405L109.115 34.3675L108.723 35.1525L105.975 31.2275L105.19 29.6575L105.975 32.0125L109.9 39.47L115.788 50.8525L119.713 58.31L120.498 59.88L120.105 61.0575L115.395 51.6375L109.9 42.2175L104.798 32.7975L103.62 29.265H102.835V28.48H103.62L101.658 24.1625L99.3027 18.275V17.49Z" fill="#F3EEE1"/>
<path d="M218.23 303.23L219.015 303.622L215.482 306.762L209.202 311.472L202.922 316.575L195.857 321.677L189.185 325.995L184.867 328.35L184.082 327.957L190.362 324.032L196.642 319.715L201.745 315.397L204.885 312.257L208.025 309.51L209.595 308.332V309.117L212.735 307.155L213.52 305.977L216.267 304.8L217.445 304.407V303.622L218.23 303.23Z" fill="#B9B2A4"/>
<path d="M348.148 450.025L348.933 451.595L351.288 466.118L352.466 479.463L352.858 490.453V493.2L352.073 493.593L351.288 485.743L350.111 470.435L348.148 452.773V450.025Z" fill="#AC9A7C"/>
<path d="M329.7 550.898L330.877 551.29L331.27 553.645L350.502 553.253V554.038L346.97 554.43V554.823L328.522 555.215H282.207V554.823L324.597 554.43L324.99 554.038H329.7V550.898Z" fill="#B5AB98"/>
<path d="M481.205 501.835L481.99 503.405L484.738 513.61L487.093 525.778L489.055 535.198L490.625 540.693L492.195 550.505V552.86H491.41L485.523 523.423L481.99 507.33L481.205 503.798V501.835Z" fill="#B9B2A5"/>
<path d="M390.537 430.793L391.322 431.578L398.387 451.988L400.35 459.053L402.312 468.865L403.097 477.108L402.312 476.715L399.565 462.978L396.032 448.848L393.677 440.998L390.537 431.97V430.793Z" fill="#A39983"/>
<path d="M425.863 435.11L427.041 436.288L429.396 442.175L436.068 457.09L438.423 464.548L439.208 467.688V471.613L438.423 470.043L434.891 459.445L428.611 443.353L426.256 437.073L425.863 435.11Z" fill="#AC9C81"/>
<path d="M436.461 499.48L437.246 500.265L441.171 514.395L443.133 522.245V524.6L442.348 523.03L440.386 514.787L439.601 512.825L439.993 516.357L442.741 527.347L444.311 532.45L445.096 538.73H444.311L443.133 533.627L439.601 519.497L437.246 504.582L436.461 499.48Z" fill="#B7AE9D"/>
<path d="M391.715 116.792L395.64 117.97L403.097 121.11L405.845 120.717L406.237 122.68L415.265 127.782L418.405 129.745L422.722 132.1L427.04 135.24L430.18 137.595L435.675 141.912L436.46 141.52V143.482L433.32 141.127L426.255 136.025L417.227 130.137L407.022 124.25L400.742 121.11L392.107 117.577L391.715 116.792Z" fill="#9B8A6B"/>
<path d="M202.138 391.935H202.531V397.822L201.746 416.27L200.176 434.325L199.783 435.502H198.998L200.568 411.167L201.746 394.29L202.138 391.935Z" fill="#9F9176"/>
<path d="M374.053 440.997L374.838 442.175L378.37 453.95L380.725 464.155L383.473 481.425V483.388H382.688L381.51 477.5L378.37 459.445L376.8 453.165L374.053 442.567V440.997Z" fill="#858072"/>
<path d="M3.9257 506.153H4.3182L4.7107 532.843V552.86L3.5332 552.468V508.115L3.9257 506.153Z" fill="#BAB3A6"/>
<path d="M486.307 470.042L487.484 471.612L491.409 480.64L493.764 487.312L495.727 492.807L498.867 504.582L499.652 508.115V511.255L498.867 510.47L496.119 499.872L492.587 487.705L488.662 477.107L486.307 471.22V470.042Z" fill="#B2A58E"/>
<path d="M446.664 437.073L447.449 437.465L452.552 448.455L456.477 461.015L459.224 468.865L461.187 476.715L463.149 482.995L464.327 484.958V485.743H463.542L461.579 481.818L458.047 468.865L452.944 453.165L447.057 439.035L446.664 437.073Z" fill="#B9B1A3"/>
<path d="M18.0557 536.375L18.4482 537.16L14.1307 546.973L10.2057 554.038H26.2982V553.253H27.0832L26.2982 554.823H4.3182V556H3.5332L3.9257 538.73H4.3182L4.7107 553.645L9.4207 554.038L10.2057 552.075L14.1307 544.618L17.2707 537.945L18.0557 536.375Z" fill="#7D7B6C"/>
<path d="M309.682 430.793L310.467 431.578L314.392 442.568L318.317 453.95L317.924 455.52L316.354 451.595L320.279 463.763L321.064 467.295H320.279L315.569 453.165L313.607 444.53L311.252 436.68L309.682 432.363V430.793Z" fill="#AC9E86"/>
<path d="M163.279 430.008H163.672L163.279 433.54L160.532 445.315L156.999 464.94L154.644 480.64L154.252 481.425L153.467 481.033L155.429 466.51L158.962 448.063L162.494 432.755L163.279 430.008Z" fill="#958C77"/>
<path d="M187.223 450.025H187.616L187.223 455.52L184.476 475.145L182.121 491.63H181.336V487.313L183.691 470.828L186.438 453.95L187.223 450.025Z" fill="#928C7B"/>
<path d="M136.197 72.0475L136.982 72.8325L138.552 77.5425L140.907 82.645L143.262 90.8875L145.225 98.345L145.617 103.055L144.44 102.662L143.262 98.345L142.085 92.85L140.515 87.355L138.552 80.6825L136.197 74.4025L135.805 72.8325L136.197 72.0475Z" fill="#DCD6C8"/>
<path d="M192.325 507.33L192.718 508.9L189.97 535.983L188.4 551.683H187.615L188.4 539.515L189.97 523.815L191.933 508.115L192.325 507.33Z" fill="#8C8574"/>
<path d="M407.415 53.9925L407.807 55.5625L403.097 73.225L401.527 82.645L401.135 96.775H400.35V82.645L401.527 74.795L403.097 68.1225L407.415 53.9925Z" fill="#F4EFE2"/>
<path d="M305.758 539.122L306.543 539.907L308.113 547.757L308.505 553.645L307.72 554.037L306.935 552.86L306.543 554.037H285.74V553.645H306.15L305.365 546.58L305.758 539.122Z" fill="#BAB3A6"/>
<path d="M419.582 403.71L420.76 405.28L425.077 413.915L428.61 423.727L432.927 433.54L431.357 428.437L429.395 423.335L429.787 422.55L432.142 427.652L434.105 434.325L434.89 438.25L433.712 437.857L429.002 427.26L424.685 416.27L420.367 406.457L419.582 404.887V403.71Z" fill="#BAB3A6"/>
<path d="M407.416 499.872L408.201 501.442L410.163 511.255L411.341 523.422V527.347L410.948 530.487H410.556L409.771 518.712L408.986 515.18L408.593 510.077L408.201 509.685L407.808 506.937L407.416 509.292H407.023V501.05L407.416 499.872Z" fill="#BAB3A6"/>
<path d="M246.49 507.33H246.883L247.668 519.498L248.453 536.375V545.01H247.668L246.883 531.273L246.49 522.245V507.33Z" fill="#918976"/>
<path d="M291.627 397.43H292.412L293.589 411.56L295.159 424.12L297.122 433.147L297.514 434.717H296.337L294.374 425.69L293.197 418.625V415.877L292.412 415.485L292.019 409.205L291.627 403.71V397.43Z" fill="#BAB3A6"/>
<path d="M126.778 82.645L128.348 83.0375L129.133 85L128.348 85.3925L127.563 85L127.956 90.8875L126.386 91.6725L124.423 90.8875L123.638 89.3175V88.14H122.853V88.925H122.068L122.853 86.9625L125.601 84.215L126.778 82.645Z" fill="#625F55"/>
<path d="M104.404 35.545L105.189 36.7225L107.937 46.535L113.039 62.235L116.179 70.87L117.357 74.795L116.964 76.365L111.469 61.0575L106.759 46.535L104.797 39.0775L104.404 35.545Z" fill="#F4EFE2"/>
<path d="M385.042 399.393L386.219 399.785L383.864 400.57L368.949 403.71L352.072 406.85L342.259 408.42H340.297L341.474 407.635L363.454 403.71L377.192 400.963L385.042 399.393Z" fill="#BAB3A6"/>
<path d="M407.023 509.685H407.416L409.378 525.777L410.163 530.487L410.948 531.272V539.122H410.163L408.986 532.842L407.808 524.992L407.023 515.572V509.685Z" fill="#BAB3A6"/>
<path d="M98.9099 487.312L99.3024 488.49L96.9474 498.303L94.1999 507.723L89.8824 518.713L88.7049 521.853H87.9199L88.3124 516.75H89.4899L92.2374 509.685L94.5924 502.62L97.7324 490.845L98.9099 487.312Z" fill="#BAB3A6"/>
<path d="M123.244 52.03L125.599 52.4225V53.2075L127.169 52.815L131.879 63.02L132.664 64.9825L132.272 66.5525L130.702 64.1975L129.524 63.02L127.169 58.31L124.029 53.9925L123.244 52.03Z" fill="#29251F"/>
<path d="M390.93 404.495L392.107 405.672L394.855 413.915L396.817 423.335L398.78 429.222L397.995 425.297L397.602 424.512V422.157L398.387 422.942L399.565 427.652L399.957 430.792V434.325L399.172 433.54L395.64 422.942L392.107 409.205L390.93 404.495Z" fill="#BAB3A6"/>
<path d="M43.9602 484.958L44.3527 486.135L40.8202 495.948L36.8952 508.508L32.5777 520.675L31.0077 524.208L30.2227 523.815L33.3627 515.965L39.2502 497.518L40.0352 495.163L39.6427 494.378L42.7827 487.705L43.9602 484.958Z" fill="#B7AE9E"/>
<path d="M138.553 63.805L139.338 65.375L142.085 68.9075L142.478 70.4775L142.87 81.86H142.085L141.3 75.58L138.945 69.6925L137.768 64.59L138.553 63.805Z" fill="#2B261F"/>
<path d="M267.686 304.407L268.863 304.8V305.585L270.433 306.37L275.143 311.08L277.106 312.257L282.208 316.575L287.311 320.107L293.983 323.247L295.946 324.032L294.768 324.425L288.096 321.677L281.031 317.36L276.713 313.827L272.788 310.295L267.686 305.192V304.407Z" fill="#AE9F86"/>
<path d="M68.2948 496.34L68.6873 497.518L65.5473 510.47L61.6223 522.245L58.4823 529.703L58.0898 528.525L60.0523 523.423L62.7998 516.358L64.3698 510.078L63.5848 510.47L63.9773 508.115L67.5098 498.303L68.2948 496.34Z" fill="#BEB6A7"/>
<path d="M323.812 509.292L324.598 510.47L328.13 531.272V537.552L326.953 535.982L323.812 511.647V509.292Z" fill="#A4977E"/>
<path d="M383.08 506.153L383.865 507.33V511.648L383.08 518.713V526.563L383.865 535.983L384.65 542.655L383.865 541.478L382.295 533.628V514.003L382.687 507.33L383.08 506.153Z" fill="#BAB3A6"/>
<path d="M243.742 421.765H244.135L246.097 446.493L246.49 457.09H245.705L244.135 438.25L243.742 431.97V421.765Z" fill="#A79A80"/>
<path d="M276.32 437.858H276.713L280.245 461.408L281.03 468.865V473.968L280.245 472.79L276.32 440.605V437.858Z" fill="#AD9E85"/>
<path d="M405.452 15.92L406.629 16.3125L405.059 22.5925L403.097 28.48L401.527 33.975L399.564 40.255H398.387L399.564 35.9375L401.919 28.0875L403.097 23.3775L405.059 17.0975L405.452 15.92Z" fill="#D5D0C2"/>
<path d="M350.503 552.86L353.25 553.252V554.037H370.52L370.128 554.822H346.97L334.41 554.43V554.037H350.503V552.86Z" fill="#8E8671"/>
<path d="M416.443 84.215L416.836 85.785L414.088 95.205L409.378 109.335L405.846 120.717L405.453 119.147L407.808 110.512L412.911 95.5975L416.443 84.215Z" fill="#F4EFE2"/>
<path d="M403.098 40.255L403.491 41.04L401.528 44.5725L398.388 50.0675H396.818L396.426 49.675L396.818 46.535L397.996 43.0025L399.566 43.395L399.958 42.2175L401.921 41.4325L403.098 40.255Z" fill="#A7975D"/>
<path d="M458.047 510.862L458.832 512.04L461.972 521.46L465.112 530.487L466.289 535.982L466.682 539.515H465.897L463.149 529.31L458.047 512.432V510.862Z" fill="#AE9D80"/>
<path d="M395.641 76.365H396.033L395.641 79.505L390.931 93.635L387.791 105.41L387.006 105.017L387.791 101.092L390.931 89.3175L394.856 78.3275L395.641 76.365Z" fill="#F4EFE2"/>
<path d="M133.057 45.75L134.234 46.9275L135.804 53.6L137.767 61.0575L138.552 62.6275V64.9825L137.374 63.805L136.197 61.45L134.234 53.9925L133.449 51.245L133.057 45.75Z" fill="#DFD9CC"/>
<path d="M69.0809 522.638L69.4734 523.423L66.3334 532.45L64.7634 539.123L63.9784 546.973V552.075L64.7634 551.683L66.3334 546.973H66.7259L66.3334 550.505L65.5484 554.038L65.1559 553.253L63.1934 552.86V545.01L64.3709 535.983L66.3334 528.918L68.6884 523.03L69.0809 522.638Z" fill="#B5AA97"/>
<path d="M400.743 29.6575H401.528L399.958 35.9375L396.818 45.3575L395.64 46.535L394.855 45.75L396.033 41.825L397.995 36.7225L399.173 33.19L400.743 29.6575Z" fill="#342F25"/>
<path d="M135.412 437.858L135.805 439.428L132.272 451.988L127.955 470.435H127.17L128.74 461.408L132.665 446.885L135.02 438.643L135.412 437.858Z" fill="#8C8675"/>
<path d="M170.345 510.078H171.13L170.737 515.18L167.99 533.628L166.812 540.693H166.42L166.812 534.413L170.345 510.078Z" fill="#918977"/>
<path d="M126.384 57.525L128.347 59.4875L130.702 64.9825L130.309 67.3375L128.347 66.16L125.992 62.235L124.422 59.095L124.814 57.9175L127.169 60.665L126.384 57.525Z" fill="#A5955C"/>
<path d="M405.845 40.255L406.238 41.4325L401.92 50.8525L395.248 68.9075L394.07 70.4775L394.855 66.945L399.173 54.7775L403.49 44.965L405.845 40.255Z" fill="#F4EFE2"/>
<path d="M465.113 531.665L465.898 532.843L468.253 541.478L470.216 551.29L469.823 552.86L469.038 552.468L466.291 541.085V537.553L465.113 533.235V531.665Z" fill="#B5AA98"/>
<path d="M334.803 400.57L335.588 401.355L337.943 407.635V408.42H338.728L341.475 418.233L343.83 426.868L343.438 428.438L342.653 426.868L341.475 422.158L337.55 409.598L334.803 401.748V400.57Z" fill="#BAB3A6"/>
<path d="M477.672 433.932L478.849 435.11L484.344 445.315L488.269 452.772L492.194 461.015L491.802 462.192L483.952 446.492L480.812 440.997L477.672 434.717V433.932Z" fill="#B6AC9A"/>
<path d="M334.803 279.287H347.755L348.148 280.857H335.195L334.803 279.287Z" fill="#CDC7B9"/>
<path d="M385.436 518.32H386.221L387.398 530.488V537.16L386.613 540.693L385.828 540.3V523.423L385.436 518.32Z" fill="#BAB3A6"/>
<path d="M429.787 105.802L430.179 106.587L426.254 114.045L421.544 122.68L419.582 126.212L419.189 125.035L423.114 116.792L428.609 107.372L429.787 105.802Z" fill="#F4EFE2"/>
<path d="M219.015 477.107H219.408V494.377L219.015 494.77L218.623 499.087H218.23V484.172L218.623 477.892L219.015 477.107Z" fill="#AFA085"/>
<path d="M329.699 390.365L330.877 390.757L333.232 395.467L332.839 396.645L332.447 398.215L334.409 405.28L334.017 406.85L332.839 403.71L330.484 395.467L329.699 391.935V390.365Z" fill="#BAB3A6"/>
<path d="M481.205 501.835L481.99 503.405L484.738 513.61L486.7 523.423V525.778L485.915 525.385L482.383 508.9L481.205 503.798V501.835Z" fill="#B8B1A2"/>
<path d="M202.138 391.935H202.531V397.822L201.746 416.27H201.353L200.961 414.307H200.568L200.961 405.672L201.746 394.29L202.138 391.935Z" fill="#B3A690"/>
<path d="M406.238 76.365H406.63V83.8225L405.453 96.3825L404.668 99.13L403.883 98.7375L405.453 83.43L406.238 76.365Z" fill="#F4EFE2"/>
<path d="M98.9098 15.92L100.087 16.3125H99.3023L100.48 20.2375L102.835 26.125L102.442 27.695L96.9473 18.275V17.49L98.9098 15.92Z" fill="#201E18"/>
<path d="M183.298 473.182H183.691L184.083 477.5L182.121 491.63H181.336V487.312L183.298 473.182Z" fill="#A09580"/>
<path d="M33.362 531.273L33.7545 532.45L30.222 541.87L28.2595 547.758V548.543L30.222 544.225L30.6145 545.403L28.652 550.505L26.6895 552.075L27.082 548.935L29.0445 542.263L31.792 534.805L33.362 531.273Z" fill="#A99B82"/>
<path d="M34.1472 530.88L34.5397 531.665L30.6147 544.225L28.2597 549.328L27.8672 547.758L32.1847 535.198L34.1472 530.88Z" fill="#F4EFE2"/>
<path d="M439.992 519.497H440.777L443.132 528.525L444.31 532.45L445.095 538.73H444.31L443.132 533.627L439.992 521.46V519.497Z" fill="#AF9F85"/>
<path d="M99.3027 17.49H100.088L102.443 22.5925L105.583 28.8725L107.938 32.405L109.115 34.3675L108.723 35.1525L105.975 31.2275L104.798 29.6575L102.835 29.265V28.48H103.62L101.658 24.1625L99.3027 18.275V17.49Z" fill="#E1DBCC"/>
<path d="M374.837 72.0475L375.622 72.8325L375.229 75.1875L372.089 85.785L370.912 89.71L370.519 92.065H369.734L370.127 88.14L372.089 81.86L373.267 77.15L374.837 72.0475Z" fill="#CDC5B3"/>
<path d="M127.955 79.8975L128.74 81.075L133.45 92.4575L135.413 99.915L135.02 101.485L133.45 97.56L132.665 93.635L130.703 88.5325L127.955 82.2525V79.8975Z" fill="#EBE5D8"/>
<path d="M456.869 464.155H457.654L459.617 470.043L461.187 476.715L463.149 482.995L464.327 484.958V485.743H463.542L461.579 481.818L458.047 468.865L456.869 465.333V464.155Z" fill="#BAB3A6"/>
<path d="M224.117 218.057H225.687V218.842L221.369 220.412L218.229 221.982L212.734 224.337L211.164 223.945L216.659 220.805L220.977 218.842L224.117 218.057Z" fill="#968668"/>
<path d="M224.117 220.412L225.294 220.805H224.509V221.59L221.369 222.375L216.659 225.122L214.304 227.085L212.342 226.692L211.557 225.122H213.912L215.482 224.73L215.874 223.552L220.977 221.197L224.117 220.412Z" fill="#E9E3D4"/>
<path d="M404.274 33.5825H404.667V36.7225L402.704 40.6475L401.527 42.2175L399.957 42.61L399.564 43.395H398.779L398.387 44.18L398.779 40.6475L399.564 41.4325L403.097 35.9375L404.274 33.5825Z" fill="#9B8969"/>
<path d="M126.385 526.955L126.777 528.525V530.88L127.562 530.488L127.17 535.198L125.992 541.085L125.207 541.478L125.6 529.703L126.385 526.955Z" fill="#B9B0A1"/>
<path d="M298.301 448.062L299.086 448.848L302.226 460.623L303.011 464.155V468.08L302.226 467.688L300.263 457.483L298.301 449.24V448.062Z" fill="#8F8A7A"/>
<path d="M62.7991 552.86L65.1541 553.252V554.037H69.0791V554.822H54.5566V554.037L58.4816 553.645H62.7991V552.86Z" fill="#A99674"/>
<path d="M486.307 470.042L487.484 471.612L491.409 480.64L493.764 487.312V489.275L492.979 488.882L489.447 479.07L486.307 471.22V470.042Z" fill="#B0A187"/>
<path d="M390.537 430.793L391.322 431.578L397.995 450.81V453.558L397.21 453.165L394.462 443.353L390.537 431.97V430.793Z" fill="#858173"/>
<path d="M29.4378 453.557L29.8303 454.342L26.6903 459.052L24.7278 462.585L23.9428 464.155V465.332L21.9803 467.687H21.1953L22.3728 464.155L25.5128 458.66L29.0453 453.95L29.4378 453.557Z" fill="#BAB3A6"/>
<path d="M305.758 539.122L306.543 539.907L308.113 547.757L308.505 552.86L307.328 552.075L306.15 545.402L305.758 543.832V539.122Z" fill="#F4EFE2"/>
<path d="M258.658 291.848L260.621 293.81L262.191 295.773L263.368 298.52L265.723 301.268V302.053L264.153 301.66L259.836 296.558L259.051 294.595V293.418L258.658 291.848Z" fill="#A09375"/>
<path d="M258.658 492.023L259.443 492.808L260.228 496.733L261.013 499.48L262.191 505.76V508.115L261.406 507.723L258.658 494.77V492.023Z" fill="#BAB3A6"/>
<path d="M350.109 280.465H360.707V282.035H356.389L350.502 281.642L350.109 280.465Z" fill="#E6E0D1"/>
<path d="M309.682 430.793L310.467 431.578L314.392 442.568L315.177 444.923L315.569 448.455L314.392 447.278L312.429 440.605L309.682 432.363V430.793Z" fill="#908A7A"/>
<path d="M380.725 56.74L381.118 58.31L378.37 66.945L376.015 72.8325H375.23L376.408 68.1225L378.37 63.4125L379.94 58.31L380.725 56.74Z" fill="#EAE5D8"/>
<path d="M318.71 267.905L319.888 268.298V271.83L318.71 273.008L316.748 272.615L316.355 269.868L318.71 267.905Z" fill="#2F2C25"/>
<path d="M368.166 75.9725H368.558V85.3925L369.343 89.71H370.128L369.343 95.99H368.951L367.773 86.9625L367.381 84.215L368.166 75.9725Z" fill="#888375"/>
<path d="M96.1634 536.375H96.5559L96.1634 543.44L94.5934 552.468L93.8084 554.43L92.6309 554.038H93.4159L93.8084 550.113L96.1634 536.375Z" fill="#8F8C7E"/>
<path d="M303.01 466.51H303.402L304.972 477.893V481.425L303.795 480.64L302.617 470.435L303.01 466.51Z" fill="#9B927D"/>
<path d="M60.0527 414.307L60.4452 415.092L55.7352 422.942L52.2027 428.437L50.6327 431.577L50.2402 430.4L52.5952 425.69L57.3052 418.232L60.0527 414.307Z" fill="#BAB3A6"/>
<path d="M64.3702 509.685L64.7627 510.47L62.4077 518.712L60.4452 523.422H59.6602L60.8377 519.105L63.5852 510.47L64.3702 509.685Z" fill="#F4EFE2"/>
<path d="M424.293 116.792L424.685 117.577L425.863 117.97L426.648 119.54V121.11L425.078 121.502L423.9 121.11L423.508 122.287L421.938 121.502L424.293 116.792Z" fill="#A7965D"/>
<path d="M36.5028 524.6L36.8953 526.17L33.3628 537.553L31.4003 543.048L31.0078 541.87L34.1478 531.665V530.095L36.5028 524.6Z" fill="#B6AD9B"/>
<path d="M348.148 450.025L348.933 451.595L350.896 463.37V465.333H350.111L349.718 466.51L348.148 452.773V450.025Z" fill="#AE9E82"/>
<path d="M319.103 287.138L321.066 287.53L321.458 288.315V291.063L320.673 291.848L318.711 291.455L318.318 291.063V287.923L319.103 287.138Z" fill="#1F1E17"/>
<path d="M173.092 261.625L175.054 262.018L175.447 262.41V265.158L175.054 265.943L172.307 265.55L171.914 265.158V263.195L173.092 261.625Z" fill="#181814"/>
<path d="M330.093 260.055H330.878L331.663 261.232V263.195L330.093 264.372L328.131 263.98L327.346 263.195L327.738 261.625L330.093 260.055Z" fill="#161510"/>
<path d="M234.715 251.812H241.387L241.78 252.205V260.84L241.387 265.158H240.995V260.448L241.387 258.878L238.64 258.093L238.247 256.523L239.425 256.915L240.995 256.523L241.387 252.598L234.715 252.205V251.812Z" fill="#847D6C"/>
<path d="M241.388 216.88H257.873V217.273L244.528 217.665L240.996 218.058L229.613 217.665V217.273L241.388 216.88Z" fill="#8A7F68"/>
<path d="M434.891 457.875L435.283 459.053H436.068L437.638 463.37V464.548H438.423L439.208 467.688V471.613L438.423 470.043L434.891 459.445V457.875Z" fill="#AA9A7D"/>
<path d="M195.857 289.1H199.39L200.175 289.885L199.782 291.455L198.212 292.24H195.857L195.465 291.847L195.857 289.1Z" fill="#1B1B17"/>
<path d="M329.307 454.343L330.092 454.735L330.877 459.053L331.269 467.688H330.484L329.699 462.585L328.914 455.128L329.307 454.343Z" fill="#AE9D80"/>
<path d="M190.756 280.073L192.718 280.465L193.503 281.25V283.213L192.718 283.998H190.363L189.578 282.82L189.971 280.858L190.756 280.073Z" fill="#292822"/>
<path d="M397.21 90.495H397.602L397.21 94.42L393.677 108.55L392.5 109.727L392.892 106.587L395.64 96.775L397.21 90.495Z" fill="#F4EFE2"/>
<path d="M394.855 69.3H396.818L397.21 70.085V74.4025H396.033V76.365L394.855 76.7575L395.248 71.655V70.87L394.463 70.4775L394.855 69.3Z" fill="#A7985D"/>
<path d="M129.918 58.7025H130.703L132.273 62.235L135.413 69.6925L136.198 71.655V72.8325H135.413L133.058 66.945L129.918 59.4875V58.7025Z" fill="#E0D9C9"/>
<path d="M323.812 509.292L324.598 510.47L326.168 519.89V524.992L325.383 524.207L323.812 511.647V509.292Z" fill="#8F897A"/>
<path d="M338.336 419.018L339.121 420.588H339.906L343.438 428.045L344.616 430.008L345.793 433.148L345.401 434.325L338.336 420.195V419.018Z" fill="#AFA085"/>
<path d="M458.047 510.862L458.832 512.04L461.972 521.46L463.149 524.6V526.955L462.364 526.562L458.047 512.432V510.862Z" fill="#A29A87"/>
<path d="M176.625 273.792H178.98V276.932L177.802 278.11L176.232 277.717L175.84 277.325V274.577L176.625 273.792Z" fill="#171610"/>
<path d="M424.685 133.67L427.04 135.24L430.18 137.595L435.675 141.912L436.46 141.52V143.482L433.32 141.127L426.255 136.025L424.293 134.847L424.685 133.67Z" fill="#91866D"/>
<path d="M130.703 499.088L131.095 500.658L129.918 512.825L129.133 514.788H128.74V510.863L130.31 500.265L130.703 499.088Z" fill="#AF9F83"/>
<path d="M329.699 270.26L331.662 270.653L332.447 271.438V273.793L331.662 274.578H329.699L329.307 273.793V271.045L329.699 270.26Z" fill="#1C1B15"/>
<path d="M70.65 519.105H71.0425V525.385L69.4725 536.375L69.08 538.337H68.6875V535.59L69.865 527.347V521.46L70.65 519.105Z" fill="#BAB3A6"/>
<path d="M186.437 270.26L188.4 270.653L188.792 271.045V273.4L188.007 274.578L186.045 274.185L185.652 273.793V271.045L186.437 270.26Z" fill="#181712"/>
<path d="M425.863 435.11L427.041 436.288L429.396 442.175L431.751 447.278V449.24H430.966L428.611 443.353L426.256 437.073L425.863 435.11Z" fill="#8E8A7B"/>
<path d="M68.2942 496.34L68.6867 497.518L66.3317 507.33L65.5467 508.115L64.7617 507.33L65.1542 504.975L68.2942 496.34Z" fill="#ABA08B"/>
<path d="M274.357 538.338L275.142 539.123L277.105 549.72V551.683L275.927 552.075L274.357 539.908V538.338Z" fill="#9E947F"/>
<path d="M138.553 63.805L139.338 65.375L141.693 68.515H140.515L139.73 67.3375L140.908 72.0475L141.693 75.58L140.908 74.795L138.16 66.945L137.768 64.59L138.553 63.805Z" fill="#726C5E"/>
<path d="M129.133 58.7025H129.918L132.665 64.9825L132.273 66.5525L130.703 64.1975L129.525 63.02L128.74 61.0575V59.095L129.133 58.7025Z" fill="#171611"/>
<path d="M352.072 479.463H352.465L352.857 490.453V493.2L352.072 493.593L351.287 485.743V482.995H351.68L352.072 479.463Z" fill="#B1A38B"/>
<path d="M267.686 304.407L268.863 304.8V305.585L270.433 306.37L275.143 311.08L277.106 312.257L276.713 313.042L275.143 312.65L267.686 305.192V304.407Z" fill="#AD9E7C"/>
<path d="M264.152 221.198L264.937 221.59L266.115 222.375H267.292L268.47 222.768L269.647 222.375L269.255 224.338L268.47 225.515L266.507 224.73L263.367 221.983L264.152 221.198Z" fill="#E5DFD1"/>
<path d="M92.2374 509.685H93.0224L92.6299 512.04L88.7049 521.852H87.9199L88.3124 516.75H89.4899L92.2374 509.685Z" fill="#B3A792"/>
<path d="M230.789 290.67V291.848L227.257 295.773L221.762 301.268L220.977 300.875L224.509 297.343L228.042 293.025L230.789 290.67Z" fill="#B8B0A1"/>
<path d="M305.365 279.68H306.543V284.782H304.58L304.188 284.39V281.642L305.365 279.68Z" fill="#181712"/>
<path d="M282.992 525.385L283.777 526.563L286.132 534.805L286.917 537.16H287.702L288.487 538.73L288.095 540.3L285.74 536.375L283.385 528.918L282.992 525.385Z" fill="#BAB3A6"/>
<path d="M279.461 461.015L280.246 461.408L281.031 468.865V473.968L280.246 472.79L279.461 466.118V461.015Z" fill="#89877B"/>
<path d="M195.465 320.5H196.25L195.857 321.678L189.185 325.995L184.867 328.35L184.082 327.958L190.362 324.033L195.465 320.5Z" fill="#BAB3A6"/>
<path d="M126.385 57.525L128.347 59.4875L130.702 64.9825L130.31 66.16H129.525L126.385 58.31V57.525Z" fill="#646258"/>
<path d="M400.742 29.6575H401.527L399.957 35.9375L399.172 38.2925L397.994 37.9L398.779 33.975L400.349 30.4425L400.742 29.6575Z" fill="#3A362F"/>
<path d="M308.506 291.062H310.076V295.773H306.936L307.721 293.81L308.506 291.062Z" fill="#29271F"/>
<path d="M379.941 91.6725L380.333 93.2425L378.371 99.5225L376.016 105.802L375.623 104.625L377.978 97.56L379.156 92.85L379.941 91.6725Z" fill="#F3EEE1"/>
<path d="M105.582 35.545L106.759 35.9375L109.507 40.6475V41.4325L107.152 41.04L106.367 38.685V37.115L105.189 37.5075L105.582 35.545Z" fill="#A89964"/>
<path d="M397.602 422.158L398.387 422.943L399.564 427.653L399.957 430.793V434.325L399.172 433.54L397.994 429.615L398.779 429.223L397.994 425.298L397.602 424.513V422.158Z" fill="#B9B1A4"/>
<path d="M481.598 407.242L482.775 408.027L483.56 409.99L484.738 411.952L487.093 415.485L486.7 416.662L485.13 414.7L481.598 409.597L482.383 409.205L481.598 407.242Z" fill="#545045"/>
<path d="M113.039 43.7875L114.609 44.5725L118.534 49.2825L120.104 51.6375H118.927V50.8525H118.142L115.394 47.32L113.432 45.3575L113.039 43.7875Z" fill="#A7975B"/>
<path d="M388.183 33.975L388.575 35.1525L386.613 42.61L385.828 45.3575L384.65 44.965L385.828 40.255L386.22 39.8625L387.005 36.33L388.183 33.975Z" fill="#CCC7B9"/>
<path d="M43.9601 484.958L44.3526 486.135L40.4276 496.733L39.6426 495.163L40.4276 492.808L43.1751 486.528L43.9601 484.958Z" fill="#9E9888"/>
<path d="M200.176 424.12H200.568V430.4L199.783 435.502H198.998L199.783 424.905L200.176 424.12Z" fill="#918A78"/>
<path d="M496.904 500.658L497.297 501.835H498.082L499.652 508.115V511.255L498.867 510.47L496.904 502.62V500.658Z" fill="#B3A792"/>
<path d="M294.375 424.12H295.16L297.123 433.147L297.515 434.717H296.338L294.375 425.69V424.12Z" fill="#B9B2A5"/>
<path d="M543.221 283.997L545.968 284.39L553.426 287.137L551.856 287.53L542.436 284.782L543.221 283.997Z" fill="#191711"/>
<path d="M401.134 33.975L401.527 35.1525L401.919 36.7225L402.312 37.9L399.564 41.825L399.172 40.255L401.134 33.975Z" fill="#312D25"/>
<path d="M305.758 491.63L306.543 492.415L307.328 497.518V501.443H306.543L305.758 495.948V491.63Z" fill="#8E8B7C"/>
<path d="M315.178 445.708L315.963 446.885L318.318 453.95L317.925 455.52L316.355 451.203L315.963 450.81L315.178 451.595L314.785 448.063L315.178 447.67V445.708Z" fill="#B8B0A1"/>
<path d="M100.088 36.7225L101.658 38.685L105.975 44.5725H104.798L102.05 41.825L100.088 37.9V36.7225Z" fill="#F4EFE2"/>
<path d="M188.4 539.515H188.793L189.185 544.618L188.4 551.683H187.615L188.4 539.515Z" fill="#A49880"/>
<path d="M446.664 437.073L447.449 437.465L450.982 444.923L451.374 447.67L450.197 446.493L446.664 438.25V437.073Z" fill="#B0A086"/>
<path d="M60.8368 400.57L61.2293 401.748L58.4818 404.888L56.1268 408.42H55.3418L55.7343 406.85L59.6593 401.355L60.8368 400.57Z" fill="#333028"/>
<path d="M398.78 39.8625L399.173 40.6475L395.64 50.8525L394.463 51.245L395.64 47.7125L398.388 40.255L398.78 39.8625Z" fill="#F1ECDF"/>
<path d="M319.887 295.38L321.849 295.773L322.242 296.165V298.52L320.279 298.913L319.494 297.735L319.887 295.38Z" fill="#1C1D19"/>
<path d="M201.744 267.513L203.707 267.905L204.492 269.083V271.045H202.529L201.744 270.26V267.513Z" fill="#191712"/>
<path d="M109.508 37.9L111.078 38.685L111.863 40.6475H112.648V41.4325L113.825 41.825L113.04 42.61L111.863 41.825V42.61H111.078L109.508 39.47V37.9Z" fill="#A7965C"/>
<path d="M427.04 88.14L427.432 88.925L423.507 95.205L421.545 97.1675L422.33 94.8125L426.647 88.5325L427.04 88.14Z" fill="#F4EFE2"/>
<path d="M374.053 440.997L374.838 442.175L377.585 451.202V451.987L376.408 451.595L374.053 442.567V440.997Z" fill="#938B78"/>
<path d="M429.787 428.045H430.572L433.712 435.503L434.497 435.895L434.89 438.25L433.712 437.858L429.787 429.223V428.045Z" fill="#ADA088"/>
<path d="M405.06 120.718H405.845L406.238 122.68L410.948 125.428L410.555 126.213L404.275 122.68L403.883 121.503L405.06 120.718Z" fill="#A4967B"/>
<path d="M182.513 481.818H182.906V486.135L182.121 491.63H181.336V487.313L181.728 486.92L182.513 481.818Z" fill="#86877D"/>
<path d="M24.3353 461.408L24.7278 462.585L23.9428 464.155V465.333L21.9803 467.688H21.1953L22.3728 464.155L23.9428 461.8L24.3353 461.408Z" fill="#BBB4A7"/>
<path d="M433.713 452.773L434.89 454.343L437.638 461.8L438.03 464.548L437.245 463.37L436.068 460.23V459.053H435.283L434.498 455.913L433.713 453.95V452.773Z" fill="#BAB3A6"/>
<path d="M401.135 467.688L401.527 468.865H402.312L403.097 477.108L402.312 476.715L401.135 470.435V467.688Z" fill="#8B897C"/>
<path d="M104.012 30.835L104.797 32.0125L106.367 35.545L104.797 36.7225L104.012 36.33L103.619 33.19L104.012 32.7975L103.619 31.2275L104.012 30.835Z" fill="#B2A489"/>
<path d="M30.222 544.225L30.6145 545.403L28.652 550.505L26.6895 552.075L27.082 548.935L28.2595 548.543L30.222 544.225Z" fill="#BDB5A7"/>
<path d="M376.801 451.987L377.978 452.38L379.156 457.09V460.23L378.371 459.445L376.801 453.165V451.987Z" fill="#7F7B6E"/>
<path d="M192.717 262.41L194.287 262.803L194.679 264.765L193.894 265.55L191.932 265.158V263.195L192.717 262.41Z" fill="#1C1B15"/>
<path d="M133.057 92.4575L133.842 94.0275L135.412 99.915L135.019 101.485L133.449 97.56L132.664 93.2425L133.057 92.4575Z" fill="#E1DBCE"/>
<path d="M104.797 29.265L105.974 30.4425L107.937 33.5825L109.114 36.33L109.507 37.9H108.722L105.582 32.0125L104.797 30.4425V29.265Z" fill="#857C66"/>
<path d="M94.9859 502.62L95.3784 504.19L93.4159 509.685H92.6309L93.0234 506.937L94.5934 503.012L94.9859 502.62Z" fill="#B9B2A4"/>
<path d="M390.93 404.495L392.107 405.672L394.07 411.56V413.522H393.285L390.93 405.28V404.495Z" fill="#B2A58E"/>
<path d="M377.585 65.375H378.763L377.585 68.9075L376.015 72.8325H375.23L376.408 68.1225L377.585 65.375Z" fill="#E4DED0"/>
<path d="M405.453 15.92L406.63 16.3125L405.06 22.5925L403.883 21.8075L404.668 18.275L405.453 15.92Z" fill="#C2BEB1"/>
<path d="M374.838 545.795L375.623 546.58L376.8 550.897L376.408 552.467L375.623 554.037L374.838 548.542V545.795Z" fill="#BAB3A6"/>
<path d="M381.902 475.538L382.687 476.323L383.472 481.425V483.388H382.687L381.902 479.855V475.538Z" fill="#7E7A6D"/>
<path d="M397.994 451.987L398.779 453.165L399.564 455.912V458.267L398.779 458.66L397.602 454.735L397.994 451.987Z" fill="#A29780"/>
<path d="M368.166 97.9525H368.558V100.7L367.381 106.588H366.596V103.84L368.166 97.9525Z" fill="#D7CFBD"/>
<path d="M107.938 34.3675H109.115L110.685 36.33L111.863 37.9V38.685L110.293 38.2925L109.508 37.9L107.938 35.1525V34.3675Z" fill="#B1A688"/>
<path d="M486.307 470.042L487.484 471.612L490.232 477.892V479.855L489.054 478.285L486.307 471.22V470.042Z" fill="#A7997F"/>
<path d="M232.753 287.53V288.708L231.575 290.67L227.65 293.81H226.473L232.753 287.53Z" fill="#86806D"/>
<path d="M303.402 269.083H304.972L305.365 271.83L303.402 272.223L303.01 271.83V269.475L303.402 269.083Z" fill="#23221C"/>
<path d="M180.551 256.522L182.121 256.915L182.513 258.877L182.121 259.662H180.158V256.915L180.551 256.522Z" fill="#1C1B16"/>
<path d="M66.3334 546.973H66.7259L66.3334 550.505L65.5484 554.038L65.1559 553.253L63.1934 552.86L64.7634 551.683L66.3334 546.973Z" fill="#B9B1A3"/>
<path d="M376.016 542.263L376.801 543.44L378.763 549.72L378.371 552.075H377.978L376.016 543.833V542.263Z" fill="#BAB3A6"/>
<path d="M348.148 450.025L348.933 451.595L350.111 458.268V459.445L348.933 459.053L348.148 452.773V450.025Z" fill="#B2A58E"/>
<path d="M136.197 72.0475L136.982 72.8325L138.552 77.5425L139.337 79.505H138.16L135.805 73.6175L136.197 72.0475Z" fill="#D8D2C3"/>
<path d="M120.891 57.1325H121.676V57.9175L122.853 58.31L124.423 60.665L124.031 61.45L122.461 61.0575L122.068 59.4875H121.283L120.891 57.1325Z" fill="#A7975B"/>
<path d="M379.154 458.66H379.547L380.724 464.155V466.118L379.547 465.725L378.762 460.23L379.154 458.66Z" fill="#918977"/>
<path d="M54.1652 423.335H54.9502L54.1652 425.297L51.8102 429.222L50.6327 431.577L50.2402 430.4L52.5952 425.69L54.1652 423.335Z" fill="#B1A28A"/>
<path d="M248.06 249.85L248.845 250.242L248.452 251.42L244.92 252.205H242.957L243.35 251.027L247.275 250.242L248.06 249.85Z" fill="#3E3A31"/>
<path d="M83.6016 70.085L85.1716 70.4775L85.9566 73.225L85.5641 75.1875L84.3866 73.6175L83.6016 70.87V70.085Z" fill="#A89962"/>
<path d="M466.289 539.515H467.074L468.252 544.225V547.758H467.859L466.289 541.085V539.515Z" fill="#AF9F85"/>
<path d="M373.66 535.982H374.445L375.623 539.515L375.23 541.085H374.053L373.66 535.982Z" fill="#BAB3A6"/>
<path d="M439.992 519.497H440.777L442.347 526.562L441.17 526.17L439.992 521.46V519.497Z" fill="#B0A188"/>
<path d="M400.742 33.975L401.134 34.76L399.564 40.255H398.387L399.564 35.9375L400.742 33.975Z" fill="#DED7C7"/>
<path d="M486.307 525.778H487.092L488.269 531.665V533.628L487.484 533.235L486.307 527.348V525.778Z" fill="#BAB3A6"/>
<path d="M201.353 409.205H201.746V416.27H201.353L200.961 414.308H200.568V411.168L201.353 409.205Z" fill="#B0A288"/>
<path d="M70.6502 519.105H71.0427V525.385L70.6502 527.347H70.2577L69.8652 521.46L70.6502 519.105Z" fill="#B9B1A2"/>
<path d="M200.176 417.055H200.568L200.961 421.372V426.475L199.783 424.905L200.176 417.055Z" fill="#AF9F84"/>
<path d="M205.277 277.718H207.24L206.847 280.073L205.277 280.465L204.885 280.073V278.11L205.277 277.718Z" fill="#26241E"/>
<path d="M276.32 550.112L277.105 551.682L277.89 554.43L277.498 554.822H274.75L275.143 554.037H276.32V550.112Z" fill="#7B7566"/>
<path d="M441.562 526.17L442.74 527.347L443.525 529.702V532.45L442.74 532.057L441.562 527.74V526.17Z" fill="#A7987E"/>
<path d="M302.225 521.46L303.01 521.853L303.795 524.6V528.918L303.01 527.74L302.225 521.46Z" fill="#A79980"/>
<path d="M493.766 552.075L494.943 553.253V554.038H498.868L498.476 554.823H493.766V552.075Z" fill="#AD9C7F"/>
<path d="M396.426 447.278L397.211 448.455L397.996 450.81V453.558L397.211 453.165L396.033 448.063L396.426 447.278Z" fill="#8D8C7F"/>
<path d="M341.868 78.3275L342.653 78.72L340.691 80.6825L337.551 83.43L336.766 83.0375L339.513 80.29H340.298V79.505L341.868 78.3275Z" fill="#A8A396"/>
<path d="M133.449 66.945H134.234L135.804 70.085L136.197 72.8325H135.412L133.449 67.73V66.945Z" fill="#E4DED1"/>
<path d="M383.08 534.805L383.865 535.982L384.65 542.655L383.865 541.477L382.688 536.375L383.08 534.805Z" fill="#BAB3A6"/>
<path d="M461.188 479.463H461.973L463.543 483.388L464.328 485.743H463.543L461.58 481.818L461.188 479.463Z" fill="#B7AE9D"/>
<path d="M156.215 462.193L157 463.37L156.607 467.295L156.215 468.473H155.43L155.822 464.155L156.215 462.193Z" fill="#8B8677"/>
<path d="M342.652 428.045L344.222 428.83L345.792 433.148L345.4 434.325L342.652 428.83V428.045Z" fill="#918873"/>
<path d="M212.343 305.585L213.128 307.155L210.381 309.117H209.596L209.988 307.547L212.343 305.585Z" fill="#AA9673"/>
<path d="M404.668 547.365L405.453 548.542L406.238 552.075L407.023 553.645L405.453 552.467L404.668 552.86V547.365Z" fill="#BAB3A6"/>
<path d="M111.863 38.2925L113.433 39.8625L115.003 42.2175L112.648 41.4325V40.6475H111.863L111.078 38.685L111.863 38.2925Z" fill="#9D8C63"/>
<path d="M402.312 29.265L402.705 30.4425L401.527 33.975L400.35 34.3675L400.742 31.62L401.92 29.6575L402.312 29.265Z" fill="#C8C1B0"/>
<path d="M382.295 529.703L382.687 530.88H383.472V534.805L382.687 535.198L382.295 533.628V529.703Z" fill="#B4A995"/>
<path d="M88.3124 516.75L89.8824 517.142L89.4899 519.497L88.7049 521.852H87.9199L88.3124 516.75Z" fill="#A49984"/>
<path d="M495.727 494.77L496.512 495.948L497.689 499.873V501.835L496.512 501.05L495.727 496.34V494.77Z" fill="#BAB3A6"/>
<path d="M129.917 99.5225V100.7L127.562 103.447L126.777 102.27L127.17 100.7L129.917 99.5225Z" fill="#636259"/>
<path d="M404.275 89.3175L405.06 90.1025L404.668 95.99H403.883V90.495L404.275 89.3175Z" fill="#AC9B79"/>
<path d="M141.693 75.58L142.478 76.7575L142.871 78.72V81.86H142.086L141.693 79.505V75.58Z" fill="#48443C"/>
<path d="M400.742 29.6575H401.527L400.349 33.975L399.172 35.1525L399.564 32.405L400.742 29.6575Z" fill="#302D26"/>
<path d="M129.525 509.292H129.918V512.825L129.133 514.787H128.74V510.862L129.525 509.292Z" fill="#AC997A"/>
<path d="M314 442.568L314.785 443.745L315.57 448.455L314.392 447.278L313.607 443.353L314 442.568Z" fill="#AD9B7E"/>
<path d="M385.828 40.255H387.005L386.613 42.61L385.828 45.3575L384.65 44.965L385.828 40.255Z" fill="#AEAB9F"/>
<path d="M324.99 554.038H329.7L330.485 554.823L328.523 555.215L324.598 554.823L324.99 554.038Z" fill="#A99470"/>
<path d="M36.5016 524.6L36.8941 526.17L35.7166 530.095L34.5391 530.488L34.9316 528.525L36.5016 524.6Z" fill="#9F9681"/>
<path d="M319.103 461.015L319.888 462.193L321.066 467.295H320.281L318.711 462.978L319.103 461.015Z" fill="#B1A38A"/>
<path d="M186.438 270.26L188.4 270.653L188.793 271.045V273.4L186.83 272.223L186.438 270.26Z" fill="#35322A"/>
<path d="M419.189 48.4975H419.974L420.367 51.6375L419.582 52.815L418.404 49.675L419.189 48.4975Z" fill="#A7975E"/>
<path d="M278.676 456.698L279.461 457.09L279.853 461.015L279.461 462.978H279.068L278.676 456.698Z" fill="#A0947D"/>
<path d="M420.367 50.8525L421.152 52.4225L421.545 54.7775L419.975 54.385L419.582 52.815L420.367 50.8525Z" fill="#A9996A"/>
<path d="M463.15 525.778L463.935 526.955L464.328 530.488H463.543L462.758 526.955L463.15 525.778Z" fill="#A5987F"/>
<path d="M493.766 488.098L494.551 489.668L495.336 492.808H494.158L493.373 489.275L493.766 488.098Z" fill="#B7AE9D"/>
<path d="M302.225 462.193H302.617L303.01 464.155V468.08L302.225 467.688L301.832 464.155L302.225 462.193Z" fill="#939081"/>
<path d="M446.664 437.073L447.449 437.465L449.412 441.39V442.568H448.627L446.664 438.25V437.073Z" fill="#B0A188"/>
<path d="M282.6 317.753L284.562 318.145L288.487 320.893L287.702 321.285L282.992 318.538L282.6 317.753Z" fill="#858272"/>
<path d="M329.699 550.898L330.877 551.29L331.269 553.253L330.877 554.43H329.699V550.898Z" fill="#9A9078"/>
<path d="M304.187 474.753H304.58L304.972 477.893V481.425L303.795 480.64L304.187 474.753Z" fill="#AE9D80"/>
<path d="M481.598 407.242L482.775 408.027L483.56 409.99L484.345 411.56H483.168L481.598 409.597L482.383 409.205L481.598 407.242Z" fill="#6A6354"/>
<path d="M238.248 256.522L239.426 256.915L240.996 256.522L241.388 258.877L238.641 258.092L238.248 256.522Z" fill="#BAB3A6"/>
<path d="M400.742 39.8625L401.134 40.6475L399.564 43.395H398.779L398.387 44.18L398.779 40.6475L399.564 41.4325L400.742 39.8625Z" fill="#6C685C"/>
<path d="M403.097 25.34H403.49L403.097 28.48L401.92 29.6575L402.312 25.7325L403.097 25.34Z" fill="#DFD7C8"/>
</g>
<defs>
<clipPath id="clip0_307_1178">
<rect width="623" height="556" fill="white"/>
</clipPath>
</defs>
</svg>
