<svg width="27" height="46" viewBox="0 0 27 46" fill="none" xmlns="http://www.w3.org/2000/svg">
<path d="M10.6523 0H13.0073L16.9323 2.355L19.2873 4.3175L22.0348 8.2425L24.3898 13.345L25.9598 18.84L26.3523 21.195V25.5125L25.1748 29.4375L20.4648 38.8575H19.6798L18.8948 40.82L15.3623 44.745L13.0073 45.1375L8.68977 42.7825L5.94227 40.035L3.19477 35.7175L2.01727 32.97L0.447266 24.7275V16.485L2.01727 10.205L4.37227 5.8875L8.68977 1.1775L10.6523 0Z" fill="#070703"/>
<path d="M15.755 13.7375L17.325 14.13L18.11 16.8775V20.0175L17.325 20.8025H12.615L11.83 20.41L11.4375 17.27L12.2225 15.3075L15.755 13.7375Z" fill="#DDD8CB"/>
</svg>
