<svg width="43" height="38" viewBox="0 0 43 38" fill="none" xmlns="http://www.w3.org/2000/svg">
<g clip-path="url(#clip0_413_8381)">
<path d="M0 23.921L0.213937 23.1692L0.401132 22.6559L0.855749 22.3877L1.25688 22.1731L1.76498 21.9048L2.32657 21.6097L2.59399 21.5024L2.88815 21.3415L3.18232 21.2342L3.39626 21.1269L3.69042 20.9927L4.03807 20.8854L4.252 20.8049L4.54617 20.6976L4.78685 20.5903H4.9473V20.5367L5.18798 20.483L6.07047 20.188L6.36464 20.1343L6.60532 20.0538L7.05993 19.9197L7.30061 19.8661L7.43432 19.8124L7.72849 19.7588L7.96917 19.7051L8.20985 19.6246L8.61098 19.5441L8.85166 19.4637H9.11908V19.41L10.0551 19.2491L10.1353 19.2222L10.4294 19.1954L10.4562 19.1686L10.9108 19.1149L11.3387 19.0881H11.7398L11.7131 19.0345H10.6701L10.2957 19.0881L9.78763 19.1418L9.54696 19.1954L9.03885 19.2759L8.31682 19.41L7.675 19.5441L7.54129 19.5978L7.14016 19.6783L6.47161 19.8392L5.69608 20.0807L4.76011 20.4026L3.85087 20.7513L3.31603 20.9659L2.35331 21.3415L1.89869 21.5829L1.23014 21.9853L0.534843 22.3877H0.481359L0.508101 22.1731L0.641812 21.6902L0.74878 21.2342L0.962718 20.4294L1.23014 19.3832L1.47082 19.3027L2.32657 19.0613L2.88815 18.9272L3.26254 18.8467L3.95784 18.7394L4.27875 18.7126L4.35897 18.6857L4.65314 18.6589L5.08101 18.5784L5.66934 18.498L5.72283 18.4711L6.39138 18.3907L7.08668 18.337L8.42378 18.2565L9.43999 18.176L9.60044 18.1224L10.3492 18.0419L10.9108 17.9614L11.4189 17.881L11.4457 17.8273H10.7504L8.95863 17.9078L8.66446 17.9346H7.62152V17.9883H7.05993V18.0419L6.25767 18.1492L5.58911 18.2833L5.16124 18.3638L4.35897 18.498L3.85087 18.6053L3.20906 18.7394L2.51376 18.9003L1.89869 19.0613L1.41733 19.1686H1.31037L1.36385 18.9003L1.65801 18.0151L2.00566 16.8884L2.2196 16.1373L2.38005 15.6276L2.51376 15.1179L2.70096 14.4473L2.94164 13.6694L3.02187 13.6425L3.04861 14.0181L3.26254 14.6351L3.44974 14.957L3.47648 15.0375H3.52997L3.63694 15.1984L3.9311 15.4935L4.30549 15.7886L4.67988 16.03L5.29495 16.3519L5.56237 16.4592L5.80305 16.5397L6.04373 16.5665L6.12396 16.647L6.6588 16.7543L6.68554 16.7811L7.19364 16.8079L7.30061 16.8348H7.91568L8.50401 16.8079L8.77143 16.7543L9.09234 16.7275L9.11908 16.7006L9.41324 16.6738L9.49347 16.6202L9.92135 16.5397L10.0818 16.4592L10.5097 16.3787V16.3251L10.7504 16.2446L11.098 16.0837L11.5259 15.9227L11.927 15.7081L12.1409 15.6008L12.5688 15.3325L12.9165 15.0643L13.2374 14.7692L13.3711 14.6351L13.585 14.3668L13.7187 14.179V14.0717H13.7722L13.8257 13.9108L13.9327 13.6425H13.9862L14.0129 13.4548V13.3743L14.0931 13.2938L14.1466 12.8646L14.1734 12.8378L14.2001 12.3817L14.2536 12.2208V11.4965L14.2268 11.2819L14.2001 9.99426L14.1466 9.88695L14.0931 9.37727L13.8257 8.03599L13.799 7.98234L13.7455 7.66043L13.6653 7.39218L13.4246 6.96297L13.2106 6.61424L13.1037 6.34598V6.23868H18.9335L20.4845 6.18503L20.9391 6.1582H21.3135V6.21185L21.1798 6.2655L20.645 6.34598L20.2438 6.48011L19.816 6.66789L19.5218 6.88249L19.2811 7.12392L19.1207 7.39218L19.0404 7.60678L18.987 7.87504H18.9335V8.62615L18.88 9.08219L18.8532 10.8258L18.8265 11.2282V12.5963L18.8532 12.6232L18.9067 13.2938L18.987 13.6425L19.0939 14.0449L19.2811 14.4741V14.6082H19.3346L19.5753 14.957L19.7625 15.1716L20.1369 15.4667L20.538 15.7349L20.9124 15.9495L21.1798 16.1105L21.6344 16.3251L21.7949 16.4324L22.41 16.7275L22.6239 16.8348L23.0518 17.0225L23.4262 17.1567L23.7471 17.3176L24.2552 17.5322L24.4424 17.6127V17.6664L23.9877 17.72L23.1855 17.7737L22.9715 17.8273L23.4529 17.881L25.0574 17.9078L25.7795 18.1492L26.1806 18.3102L26.3678 18.3638L26.7689 18.5248L27.0096 18.6053L27.491 18.7394L27.7317 18.793H27.9456L28.4002 18.7126L28.4537 18.6589L28.8013 18.6053L28.9083 18.5516L29.2827 18.4443H29.3629L29.4164 18.337H29.5769L29.8175 18.2297L29.871 18.2029H30.1652L31.4221 18.3102L32.679 18.4443L32.7324 18.6053L32.8661 19.3027L32.9999 19.7856L33.0533 19.9197V20.027L32.7592 19.9734L32.3313 19.8929L32.1976 19.8392L31.5558 19.7319L31.2081 19.6515L30.914 19.5978L30.8872 19.571L30.3791 19.4905L30.2722 19.4637L29.7641 19.41L28.5874 19.2222L28.213 19.1954L28.0793 19.1686L27.0096 19.0881L26.9294 19.0613L25.726 19.0076L25.619 18.9808L22.7041 18.954L22.7843 19.1149L22.8111 19.3832L23.5064 19.4368L23.5599 19.4905L24.0412 19.5173L24.1215 19.5441L24.4958 19.571L24.6296 19.6246L25.1109 19.6783L25.619 19.7588L25.8062 19.8124L26.1271 19.8661L26.6887 19.9734L26.7957 20.027L27.384 20.1343L27.7049 20.2148L27.9723 20.2684L28.2665 20.3221L28.4537 20.4026L28.9083 20.483L30.0315 20.8586L30.1919 20.9391L30.5396 21.0464L30.914 21.2073L31.1546 21.2878L31.6895 21.5292L31.9569 21.6634L32.358 21.8243L32.6255 21.9584L32.8127 22.0389L33.3208 22.3072L33.5347 22.4145L33.5882 22.5486L33.7754 23.568L33.9358 24.5337L34.1498 25.6335V25.714L34.0161 25.6604L33.6684 25.3385L33.401 25.097L33.1871 24.9093L32.8661 24.6142L32.4918 24.3191L32.0371 23.9435L31.3953 23.4607L30.9407 23.1388L30.6465 22.951L30.5128 22.8437L30.3256 22.7364L29.8978 22.4681L29.6303 22.3072L29.3362 22.1462L29.0688 22.0121V21.9584L28.935 21.9316L28.4804 21.6634L28.0526 21.4488L27.7584 21.3146L27.2503 21.1L26.9829 20.9659L26.448 20.7781L26.1539 20.644L25.7795 20.5367L25.4586 20.4026L25.0574 20.2684L24.7098 20.1611L24.3087 20.0538L24.2819 20.027L23.7471 19.9197L23.5599 19.8661L22.8646 19.7588L22.4634 19.7051L22.3832 19.6783V19.8661L22.7576 20.0002L23.4796 20.1611L23.5064 20.188L23.854 20.2416L24.2017 20.3489L24.8168 20.5099L25.2981 20.644L25.7795 20.8049L26.1271 20.8854L26.3945 20.9927L26.8492 21.1537L27.1166 21.261L27.3305 21.3415L27.9188 21.6097L28.3735 21.8243L28.8013 22.0657L29.0688 22.1999L29.3629 22.3608L29.5769 22.495L30.1652 22.8437L30.5128 23.0851L31.0209 23.4339L31.3151 23.6753L31.4221 23.7558V23.8094L31.529 23.8362L31.636 23.9167V23.9704L31.743 23.9972L31.9569 24.185L32.0371 24.2386V24.2923L32.1441 24.3191L32.4383 24.5605V24.6142L32.572 24.6678L32.8661 24.9361L33.2138 25.2043L33.5614 25.4994L33.8556 25.7408L34.0695 25.9286L34.23 26.1164L34.3102 26.1969L34.2835 26.3847L34.3905 27.1894L34.5509 28.182L34.7114 29.2282L34.8986 30.0866L35.059 30.8645L35.2195 31.5352L35.2997 31.8839L35.4601 32.6082L35.8345 34.4591L36.2089 36.0419L36.3961 37.1149L36.4763 37.6782V37.8928L0 38.0001V23.921Z" fill="#F3EEE1"/>
<path d="M6.41896 0.578613L6.60615 0.605439L6.84683 0.766392L7.24797 1.16878V1.22243H7.06077L6.87358 1.14195L6.73987 1.11512L6.65964 1.1956H6.60615L6.84683 1.62481L6.98055 1.83941L6.90032 1.57116L6.76661 1.24925V1.1956H6.82009L6.98055 1.54433L7.19448 1.97354L7.35494 2.21497L7.40842 2.3491H7.4619L7.70258 2.69783L7.99675 3.04656L8.21069 3.31482L8.55833 3.79768L8.79901 4.17324L8.90598 4.44149L8.87924 4.54879L8.93272 4.73657L8.90598 5.16578L8.82576 5.48769V5.67547L9.09318 6.31928L9.22689 6.82896L9.20015 6.93627L9.09318 6.66801L9.03969 6.39976L8.90598 6.05102L8.71879 5.67547L8.61182 5.70229L8.42462 5.9169L8.3444 6.0242L8.42462 6.31928L8.6653 6.98992L8.63856 7.09722L8.07697 7.31182L7.51539 7.4996L6.87358 7.79468L6.15154 8.17024L5.64344 8.49215L5.32253 8.73358L4.97488 9.02866L4.7342 9.27009L4.49352 9.56517L4.17262 9.96755L3.9052 10.3968L3.79823 10.5845L3.77148 10.5309L3.93194 9.6993L4.11913 8.92136L4.33307 7.92881L4.52027 7.15087L4.76094 5.86324L4.97488 4.89753L5.18882 3.90498L5.53647 2.53688L5.64344 2.13449L5.88412 1.1956L6.07131 0.820043L6.28525 0.632264L6.41896 0.578613Z" fill="#A8936D"/>
<path d="M27.3568 0.551758L27.6242 0.578583L27.8114 0.65906L28.1056 0.873664L28.3195 1.14192L28.6137 1.75891L28.7741 2.24177L28.8811 2.67098L29.095 3.44892L29.2555 4.14638L29.4427 4.76337L29.6031 5.43401L29.7368 5.94369L29.924 6.82893L30.0845 7.49957L30.2182 7.98243L30.3786 8.70672L30.4856 9.10911L30.6193 9.61879L30.7263 10.1017L30.967 10.8528V10.9064L30.86 10.8796L30.7798 10.7991V10.7455L30.6728 10.6918L30.2182 10.2358L29.924 9.99435L29.6566 9.75292L29.309 9.48466L28.4265 8.8945L27.7312 8.49212L27.3033 8.27751L26.715 8.03608L26.6882 7.98243L26.9556 8.06291L27.4637 8.27751L27.5975 8.25069L27.7044 7.76783L27.4103 7.68735L26.8219 7.47275L26.7685 7.44592L26.7417 7.49957V7.39227L26.5813 7.33862L26.3941 7.23132L26.2604 7.09719L25.9127 6.82893L25.779 6.72163L25.7255 6.96306L25.6185 7.23132L25.5918 7.15084L25.7522 6.66798L25.9127 6.05099L26.1801 5.27305L26.4208 4.60241L26.715 3.8513L26.9824 3.20749L27.2498 2.37589L27.3835 1.91986L27.4637 1.59795L27.5975 1.16875L27.6509 1.00779L27.4103 1.06144L27.1161 1.19557H26.9556L27.0894 0.873664L27.2231 0.605409L27.3568 0.551758Z" fill="#A8936E"/>
<path d="M6.87402 1.11523L7.06055 1.19531L7.27539 1.22266L7.56934 1.54395L7.83691 1.83887L8.02344 2.05371L8.31738 2.40234L8.26465 2.42969L8.34473 2.64355L8.39844 2.91211L8.53223 3.31445L8.87988 4.06543L9.14648 4.68262L9.28027 5.03125L9.44141 5.43359L9.5752 5.83594L9.68164 6.29199L9.76172 6.5332L9.8418 6.90918L9.86914 7.0166L9.92285 7.04297L9.81543 6.50684L9.62793 5.83594L9.49414 5.46094L9.36035 5.16602L9.28027 4.92383L9.14648 4.62891L8.93262 4.09277L8.71875 3.66309L8.53223 3.12695L8.45117 2.88574L8.34473 2.45605L8.55859 2.61719L8.77246 2.83203L8.98633 3.01953L9.04004 3.07324L9.09375 3.23438L9.12012 3.50195L9.22754 3.93164L9.33398 4.25391L9.41406 4.41406L9.3877 4.2002L9.33398 4.09277L9.22754 3.66309L9.17383 3.39551V3.23438L9.3877 3.39551L9.5752 3.58301L9.78906 3.77051L10.1094 4.09277L10.1367 4.14648L10.1631 5.27246L10.2705 6.31934L10.377 6.69434V6.80176L10.457 6.77539L10.3506 6.31934L10.2969 5.99707L10.2432 5.21875V4.25391L10.457 4.41406L10.5908 4.5752L10.6182 4.65625L10.6445 5.99707L10.6982 6.48047L10.832 6.74805V6.61426L10.8047 6.58691L10.751 6.29199L10.6982 4.65625L10.8848 4.81641L11.1523 5.05859L11.4736 5.35352L11.7676 5.59473L12.0889 5.86328L12.623 6.21191L13.0781 6.23828L13.292 6.72168L13.6396 7.28516L13.7461 7.52637L13.7998 7.74121L13.8271 7.98242L13.8799 8.11621L13.9873 8.7334L14.041 8.9209L14.1475 9.56445L14.1748 9.88672L14.2275 9.99414L14.2549 11.2822L14.2812 11.4961V12.2207L14.2275 12.3818L14.2012 12.8379L14.1475 13.0254L14.1211 13.2939L14.0137 13.4277L14.041 13.5615L13.9873 13.6426H13.9336L13.9072 13.8037L13.7734 14.0713L13.7197 14.0986L13.7461 14.2061L13.5859 14.3936L13.3184 14.7422L13.0508 14.9834L12.7568 15.2256L12.2754 15.5469L12.0078 15.708L11.5537 15.9229L10.9121 16.1904L10.6982 16.2979L10.5107 16.3252V16.3789L10.0293 16.5127L9.92285 16.5664L9.49414 16.6465L9.41406 16.7002L9.12012 16.7275L9.09375 16.7539L8.77246 16.7812L8.50488 16.835L7.91699 16.8613H7.30176L7.19434 16.835L6.68652 16.8076L6.66016 16.7812L6.125 16.6738L6.04492 16.6201V16.5664H5.80371L5.34961 16.4053L4.76074 16.1104L4.38672 15.8691L4.06543 15.6279L3.71777 15.3057L3.53125 15.0908V15.0371H3.47754L3.31738 14.7959L3.15625 14.4199L3.02246 14.0176L2.99609 13.6152L3.18359 12.9717L3.37012 12.2207L3.61133 11.335L3.77148 10.665L3.90527 10.3428L4.17285 9.94043L4.52051 9.51172L4.81445 9.16211L5.08203 8.89453L5.45605 8.59961L5.9375 8.27734L6.36523 8.03613L7.08789 7.66016L7.72949 7.3916L8.31738 7.2041L8.63867 7.07031L8.6123 6.93555L8.31738 6.07715L8.37109 5.94336L8.55859 5.75586L8.63867 5.64844L8.74609 5.6748L8.95996 6.10449L9.09375 6.48047L9.14648 6.74805L9.2002 6.90918L9.14648 6.61426L9.04004 6.26562L8.85254 5.78223L8.79883 5.6748V5.4873L8.87988 5.16602L8.90625 4.73633L8.85254 4.49512L8.87988 4.44141L8.71875 4.06543L8.53223 3.79785L8.26465 3.42188L7.88965 2.96582L7.56934 2.56348L7.46191 2.40234V2.34863H7.4082L7.24805 2.10742L7.16797 1.97363L6.82031 1.27539V1.19531H6.7666L7.00781 1.78516L6.98047 1.89258L6.60645 1.24902V1.19531L6.74023 1.08789L6.87402 1.11523ZM10.1631 10.3428L9.92285 10.3965L9.41406 10.5576L8.98633 10.7725L8.6123 11.0137L8.34473 11.2822L8.10352 11.5771L8.05078 11.6846H7.99707L7.7832 12.0332L7.64941 12.3545L7.5957 12.7568V13.1592L7.62207 13.374L7.70312 13.6963L7.83691 14.0449L7.99707 14.3672L8.29102 14.7959L8.50488 15.0371L8.85254 15.3057L9.14648 15.4668L9.65527 15.6543L9.97559 15.708H10.457L10.5645 15.6807L11.1523 15.5205L11.5273 15.3594L11.7139 15.2256L12.0352 15.0107L12.2754 14.7422L12.5166 14.4199L12.6768 14.125L12.8906 13.6963L12.9707 13.4277L13.0508 13.0527V12.623L13.0244 12.5156L12.8643 11.9795L12.6504 11.5234L12.3027 11.0674L12.1152 10.9062L11.875 10.7451L11.4463 10.5303L10.9922 10.3965L10.6172 10.3428H10.1631Z" fill="#060602"/>
<path d="M27.5986 1.24902L27.4922 1.59766L27.3584 2.08105L27.0908 2.96582L26.9307 3.39551L26.583 4.25391L26.3154 4.97754L25.9678 5.9707L25.8076 6.5332L25.7002 6.93555L25.6738 7.04297L25.7803 6.72168L25.8877 6.77539L26.208 7.04297L26.3955 7.17773V7.23145L26.5293 7.28516L26.7432 7.3916L26.7695 7.44531L27.0371 7.52637L27.7061 7.76758L27.6787 8.03613L27.5986 8.27734L27.4648 8.30371L27.0908 8.14355L26.9307 8.08984L27.5459 8.35742L28.1602 8.70605L28.6416 9.00195L29.1504 9.35059L29.5508 9.64551L29.8984 9.94043L30.166 10.1816L30.3799 10.3701L30.9688 10.96L31.2363 11.8721L31.5029 12.8643L31.7441 13.6689L31.9844 14.5273L32.0645 14.957V15.4932L32.0381 15.8418L31.9844 15.9766L31.958 16.1904L31.9043 16.2441L31.7705 16.6201L31.5566 16.9424L31.2363 17.3174L30.9414 17.5859L30.4873 17.9072L30.3262 17.9609L30.3535 18.0146L31.9307 18.2031L32.9736 18.3369L34.3115 18.6055L34.9531 18.7656L35.7021 18.9805L36.6914 19.2754L37.6543 19.5977L37.707 19.6514L37.4932 19.624L36.959 19.4639L35.8359 19.1689L32.707 18.498L32.6797 18.4707L31.4229 18.3369L30.166 18.2295H29.8721L29.6846 18.3096L29.5781 18.3633H29.417L29.3643 18.4443L29.123 18.498L29.0693 18.5518L28.8291 18.6055L28.6953 18.6592L28.4551 18.6855L28.4014 18.7393L27.9463 18.8193H27.7324L27.0645 18.6592L26.9033 18.5781L26.6631 18.498L26.3418 18.3633L26.1279 18.3096L25.4062 18.042L25.2188 17.9883L25.0586 17.9346L23.4541 17.9072L22.9453 17.8545L22.9727 17.8008L23.1865 17.7471L24.2295 17.666H24.4434L24.3633 17.5859L23.9355 17.4248L23.6143 17.2637L23.3203 17.1562L22.999 17.0225L22.4912 16.8076L22.0635 16.5928L21.2607 16.1641L20.9404 16.0029L20.5928 15.7881L20.165 15.5205L19.8701 15.2783L19.5762 15.0107L19.416 14.7695L19.3359 14.6621V14.6084H19.2822L19.2021 14.3398L19.0684 14.0449L18.9346 13.5889L18.8809 13.2939L18.8271 12.623L18.8008 12.5967V11.2285L18.8271 10.8262L18.8545 9.08203L18.9072 8.62598L18.9346 7.875H18.9883L19.041 7.52637L19.2021 7.2041L19.4424 6.93555L19.6836 6.72168L20.1113 6.50684L20.5654 6.3457L21.0205 6.26562L21.8496 6.1582L21.9033 6.13086H22.0898L22.1973 6.1582H22.4648L22.7588 5.88965L22.9727 5.70215L23.2666 5.43359H23.3203V5.37988L23.5342 5.19238L23.8018 4.95117L24.0957 4.70996L24.2295 4.5752H24.2832L24.3896 5.08496L24.4697 5.75586V6.66797L24.417 6.96289L24.3896 7.3916L24.4434 7.36523L24.5508 6.45312V5.6748L24.4697 5.08496L24.3633 4.68262L24.3359 4.44141L24.6309 4.2002L24.8447 3.98535L25.0586 3.79785L25.3262 3.5293H25.3525L25.3262 3.74414L25.2188 4.14648L25.085 4.87012L25.0586 5.03125V5.51465L25.1123 5.03125L25.2451 4.36035L25.4062 3.7168L25.46 3.47559L25.5664 3.26074L26.1553 2.6709L26.2354 2.56348L26.3154 2.58984L26.2881 2.8584L26.1816 3.23438L26.0479 3.55566L25.9678 3.82422L25.7539 4.46777L25.6738 4.65625L25.5928 4.92383H25.54L25.4863 5.21875L25.4326 5.35352L25.3789 5.59473L25.2988 5.86328L25.1924 6.29199H25.2451L25.2725 5.99707L25.4062 5.62109L25.54 5.13867L25.7539 4.5752L26.0215 3.74414L26.1016 3.5293L26.1816 3.3418L26.2881 2.96582L26.3418 2.83203L26.4492 2.34863L26.3955 2.45605L26.3418 2.42969L26.5557 1.97363H26.6094L26.6631 1.8125L26.877 1.35645L26.957 1.22266L27.2246 1.11523L27.4648 1.00781H27.6523L27.5986 1.24902ZM22.0898 10.2891L21.9834 10.3164L21.5557 10.4238L21.0742 10.6377L20.7793 10.8262L20.5391 11.04L20.2979 11.3086L20.2451 11.4424H20.1914L20.1113 11.5771L19.9238 11.8721L19.8438 12.1133H19.79L19.7637 12.167L19.6562 12.4355V13.2402L19.7637 13.6689L19.9238 14.0449L20.1377 14.3936L20.3252 14.6621L20.5391 14.876L20.7793 15.0645L21.2881 15.332L21.6357 15.4395L21.7695 15.5205L22.1172 15.5742H22.5986L22.8926 15.5205L23.3467 15.3857L23.7744 15.1719L24.0156 14.9834L24.3633 14.6348L24.6309 14.2598L24.7646 13.9912L24.9785 13.2939L25.0312 12.999V12.623L24.9512 12.3818L24.7646 11.8721L24.5508 11.4961L24.2832 11.0938L23.9883 10.7988L23.7744 10.6377L23.2129 10.3701L22.9463 10.2891H22.0898Z" fill="#060602"/>
<path d="M22.7031 18.9541H25.618L25.725 18.9809L26.9284 19.0346L27.0086 19.0614L28.0783 19.1419L28.212 19.1687L28.7469 19.2224L29.9235 19.4101L30.2712 19.437L30.6723 19.5174L30.8862 19.5443L30.913 19.5711L31.5013 19.6784L31.8222 19.7589L32.3036 19.8393L32.4908 19.893L32.9721 20.0003L33.1861 20.0808L33.8279 20.2417L34.6569 20.4832L35.0848 20.6709L35.8335 21.0465L36.8497 21.583L37.4648 21.9317L37.9462 22.2L38.2938 22.4146L38.8821 22.7902L39.9786 23.5413L40.246 23.729L40.6471 24.0778L40.9145 24.3192L41.2087 24.5606L41.6098 24.9362L42.0645 25.3654L42.3051 25.6337L42.4656 25.8751L42.4388 25.9287L42.1447 25.6068L41.904 25.3386L41.5831 25.0435L41.2889 24.8021L40.968 24.507L40.2727 23.9705L39.7111 23.5413L39.203 23.1657L38.6949 22.8438L38.3206 22.6024L37.5985 22.1732L36.8765 21.7708L36.0742 21.3684L35.2719 21.0197L34.229 20.6441L33.1861 20.3222L33.1593 20.2954L32.7849 20.2149L32.2233 20.1076L32.0896 20.0539L31.9024 20.0271L31.8757 20.0003L30.8862 19.8125L30.3246 19.732L30.2444 19.7052L29.8433 19.6516L29.4956 19.6247L29.4689 19.5979L28.2922 19.437L27.3563 19.3833L24.789 19.2492L24.7088 19.2224L24.7355 19.3028L25.3773 19.4101L25.6715 19.437L25.8587 19.4906L26.1529 19.5443L26.4738 19.5979L26.7947 19.6784L27.0354 19.7052L27.1423 19.7589L27.3563 19.8125L27.5969 19.8393L28.212 20.0271L28.6666 20.1344L28.8538 20.1881L28.9608 20.2417L29.148 20.2954L29.6026 20.4563L29.7363 20.4832V20.5368L29.977 20.5636L30.2979 20.6978L30.6188 20.8051L30.8327 20.8855L31.2339 21.0465L31.528 21.1806L31.7955 21.2879L32.0361 21.3952L32.2501 21.5025L32.464 21.583L32.7047 21.6903L33.0791 21.8781L33.2663 21.9586L33.6942 22.1732L34.0685 22.3878L35.5126 23.3535L36.0207 23.729L36.3951 23.9973L36.7962 24.3192L37.1706 24.6143L37.5183 24.9094L37.8927 25.2313L38.1601 25.4727L38.374 25.6605L38.8287 26.1165L39.0426 26.3043L39.417 26.6799L39.6042 26.8945L40.0053 27.2968L40.1925 27.5114L40.5134 27.887L40.8076 28.2357L41.0215 28.504L41.0483 28.5845L40.9413 28.5308L40.5669 28.1284L40.1123 27.6724L39.9251 27.4578L39.3635 26.8945L39.1763 26.6799L38.8019 26.3043L38.588 26.1165L38.3206 25.8483L38.0264 25.6068L37.7055 25.3118L37.4113 25.0703L37.1172 24.8021L36.7428 24.507L36.4219 24.2387L36.0475 23.9705L35.5929 23.6486L35.0848 23.3267L34.229 22.817L33.6407 22.4951L33.2663 22.3073L32.7582 22.039L32.4908 21.9317L32.1699 21.7708L31.8222 21.6367L31.3943 21.4221L31.0467 21.2611L30.806 21.1806L30.4049 21.0197L30.0572 20.9124L29.8433 20.8319L29.255 20.6173L28.9608 20.5368L28.6131 20.4563L28.2922 20.3759L28.2655 20.349L27.9713 20.2954L27.6504 20.2149L26.9551 20.0808L26.7145 20.0271L26.6877 20.0003L26.1261 19.893L25.6715 19.8125L25.4308 19.7589L24.9227 19.6784L24.6286 19.6516L24.4949 19.5979L24.1205 19.5711L24.0402 19.5443L23.5589 19.5174L23.5054 19.4638L22.8101 19.4101L22.7834 19.3833L22.7299 19.0346L22.7031 18.9541Z" fill="#0D0C08"/>
<path d="M15.7521 14.6885H17.3833L17.8112 14.7421L18.0786 14.8494L18.2658 14.9299V14.9836L18.3728 15.0104L18.4263 15.0372V15.0909L18.56 15.1445L18.6402 15.2518L18.6135 15.4128L18.3728 15.7078L18.1054 16.0298L17.9182 16.2444L17.5438 16.6467L17.2764 16.915L16.9822 17.1564L16.8752 17.2101L16.5543 17.2369L16.5811 17.3442L16.6078 17.8539L16.6346 17.9075L16.6613 18.605L16.8752 18.9001L17.2229 19.3293L17.3566 19.5707L17.4368 19.6512L17.6775 20.0536L17.7042 20.1609L17.5973 20.1072L17.5171 19.9731L17.3833 19.839L17.2764 19.678L16.902 19.1952L16.8218 19.0879V19.0342H16.7683L16.6346 18.8196V18.766L16.5276 18.7391L16.5009 18.7928H16.4474L16.3939 18.9269L16.1799 19.2488L16.0997 19.3829H16.0462L15.9927 19.4902L15.8056 19.7317L15.3509 20.1877L15.137 20.3755L14.6824 20.8315L14.5487 20.8852L14.6556 20.7242L14.8428 20.5364L15.0835 20.2414L15.3509 19.9195L15.5114 19.678L15.7521 19.3561L16.0997 18.9001L16.2869 18.6318L16.3671 18.4709H16.4206V18.1221L16.4474 17.8271V17.2369L15.9393 17.2101L15.5114 16.8882L15.244 16.6467L14.9231 16.298L14.8428 16.1907V16.1371L14.7626 16.1102L14.7091 15.9761H14.6556L14.5487 15.8151L14.3615 15.5201L14.2812 15.3859L14.308 15.2786L14.5487 15.064L15.0033 14.8494L15.2707 14.769L15.6986 14.7153L15.7521 14.6885Z" fill="#0D0D08"/>
<path d="M27.4636 1.00781H27.6508L27.5973 1.24924L27.4903 1.59797L27.3566 2.08083L27.0892 2.96608L26.9287 3.39529L26.5811 4.2537L26.3137 4.97799L25.966 5.97054L25.8056 6.53387L25.6986 6.93626L25.6719 7.04356L25.7788 6.72165L25.8858 6.7753L26.2067 7.04356L26.3939 7.17769V7.23134L26.5276 7.28499L26.7415 7.39229L26.7683 7.44594L27.0357 7.52642L27.7043 7.76785L27.6775 8.0361L27.5973 8.27753L27.4636 8.30436L27.0892 8.14341L26.7415 8.00928L26.5811 7.98245L25.8056 7.66055L25.0835 7.33864L24.9766 7.28499V7.09721L25.1103 6.5607V6.31927L25.03 5.75593L25.1103 5.03164L25.244 4.36101L25.4044 3.71719L25.4579 3.47576L25.5649 3.26116L26.1532 2.671L26.2334 2.56369L26.3137 2.59052L26.2869 2.85877L26.18 3.23433L26.0462 3.55624L25.966 3.82449L25.7521 4.46831L25.6719 4.65609L25.5916 4.92434H25.5381L25.4847 5.21942L25.4312 5.35355L25.3777 5.59498L25.2975 5.86324L25.1905 6.29244H25.244L25.2707 5.99736L25.4044 5.62181L25.5381 5.13895L25.7521 4.57561L26.0195 3.74402L26.0997 3.52941L26.18 3.34163L26.2869 2.96608L26.3404 2.83195L26.4474 2.34909L26.3939 2.45639L26.3404 2.42957L26.5544 1.97353H26.6078L26.6613 1.81258L26.8753 1.35654L26.9555 1.22242L27.2229 1.11511L27.4636 1.00781Z" fill="#676459"/>
<path d="M24.709 19.2222L27.9715 19.3831L28.9342 19.4904L29.4691 19.5709L29.4958 19.5977L29.8435 19.6246L30.2446 19.6782L30.5923 19.7319L31.6085 19.9196L31.8759 19.9733L31.9026 20.0001L32.1433 20.0538L32.4642 20.1342L32.7851 20.1879L33.106 20.2684L33.1595 20.4025L33.2397 20.8585L33.4002 21.6096L33.4804 21.9047V22.0388L33.32 22.012L33.1863 21.9315L32.9188 21.8242L32.6782 21.6901L32.4642 21.6096L32.1968 21.5023L32.0096 21.395L31.662 21.2609L31.3678 21.1268L31.0736 21.0195L30.7795 20.8854L30.4318 20.778L29.897 20.5634L29.7365 20.5366V20.483L29.5226 20.4561L29.1482 20.322L28.9342 20.2415L28.6936 20.1879L28.5866 20.1342L28.1587 20.0269L27.5971 19.866L27.3565 19.8392L27.0623 19.7587L27.0356 19.7319L26.7949 19.705L26.474 19.6246L26.1531 19.5709L25.7252 19.4904L25.6717 19.4636L25.0031 19.3831L24.7357 19.3295L24.709 19.2222Z" fill="#EFEADD"/>
<path d="M27.3568 0.551758L27.6242 0.578583L27.8114 0.65906L28.1056 0.873664L28.3195 1.14192L28.6137 1.75891L28.7741 2.24177L28.8811 2.67098L29.095 3.44892L29.2555 4.14638L29.4427 4.76337L29.6031 5.43401L29.7368 5.94369L29.924 6.82893L30.0845 7.49957L30.2182 7.98243L30.3786 8.70672L30.4856 9.10911L30.6193 9.61879L30.7263 10.1017L30.967 10.8528V10.9064L30.86 10.8796L30.7798 10.7991V10.7455L30.6728 10.6918L30.2182 10.2358L29.924 9.99435L29.7368 9.8334L29.7101 9.05545L29.6299 8.22386L29.4159 7.01671L29.0683 5.24623L28.6404 3.47574L28.3462 2.34907L28.0788 1.62478L27.9184 1.30287L27.7579 1.08827L27.7044 1.06144L27.6777 1.2224L27.5707 1.59795L27.4103 2.13446L27.2231 2.75145L27.1161 3.01971L26.8487 3.77082L26.5545 4.49511L26.1801 5.54131L25.9394 6.2656L25.8325 6.66798L25.6453 7.17767L25.5918 7.23132L25.6185 7.07036L25.7522 6.66798L25.9127 6.05099L26.1801 5.27305L26.4208 4.60241L26.715 3.8513L26.9824 3.20749L27.2498 2.37589L27.3835 1.91986L27.4637 1.59795L27.5975 1.16875L27.6509 1.00779L27.4103 1.06144L27.1161 1.19557H26.9556L27.0894 0.873664L27.2231 0.605409L27.3568 0.551758Z" fill="#F3EEE1"/>
<path d="M6.41896 0.578613L6.60615 0.605439L6.84683 0.766392L7.24797 1.16878V1.22243H7.06077L6.87358 1.14195L6.73987 1.11512L6.57941 1.24925H6.52593L6.47244 1.35655L6.28525 1.65163L6.1248 2.13449L5.85737 3.34164L5.61669 4.79022L5.29579 6.45341L4.89466 8.19707L4.81443 8.73358L4.78769 9.21644L4.46678 9.592L4.11913 10.048L3.9052 10.3968L3.79823 10.5845L3.77148 10.5309L3.93194 9.6993L4.11913 8.92136L4.33307 7.92881L4.52027 7.15087L4.76094 5.86325L4.97488 4.89753L5.18882 3.90498L5.53647 2.53688L5.64344 2.13449L5.88412 1.1956L6.07131 0.820043L6.28525 0.632264L6.41896 0.578613Z" fill="#F3EEE1"/>
<path d="M5.64226 4.54834H5.72248L6.01665 5.54088L6.31081 6.37248L6.44452 6.74803V6.80169L6.3643 6.85534L6.49801 6.88216L6.6852 7.41867L6.73869 7.31137L7.03285 7.15042L7.43398 6.88216L7.59444 6.85534L7.7014 7.06994L7.78163 7.28454V7.36502L7.83512 7.39185L7.3805 7.5528L6.49801 7.98201L6.01665 8.25026L5.45506 8.62582L5.1609 8.86725L4.89348 9.10868L4.78651 9.18916L4.75977 9.10868L4.81325 8.51852L4.94696 7.84788L5.29461 6.31883L5.61552 4.65564L5.64226 4.54834Z" fill="#A8926D"/>
<path d="M22.3842 19.6782L23.0795 19.7587L23.6678 19.866L24.0957 19.9733L24.2829 20.0001L24.5235 20.0806L25.0049 20.2147L25.2991 20.322L25.7537 20.483L25.9944 20.5635L26.4222 20.7244L26.6897 20.8317L27.0373 20.9658L27.4384 21.1536L28 21.3951L28.4012 21.6097L28.7221 21.7706L28.9895 21.9316L29.0697 21.9584V22.012L29.3104 22.0925L29.5511 22.2535L29.7115 22.334L30.0324 22.5217L30.4068 22.7632L30.701 22.9509L30.9684 23.1387L31.316 23.3801L31.6904 23.6484L31.9846 23.8898L32.359 24.1849L32.7869 24.5336L33.0543 24.7751L33.2682 24.9629L33.5891 25.2579L33.8031 25.4457L34.1775 25.7676L35.8355 27.4308L36.1296 27.8064L36.3703 28.1283L36.718 28.6111L37.0389 29.0672L37.3865 29.6037L37.6807 30.0865L38.0283 30.7035L38.0551 30.8108L37.9481 30.7035L37.5737 30.167L37.2796 29.7378L36.9319 29.2549L36.6645 28.8794L36.3703 28.5038L35.889 27.9137L35.6215 27.5918L35.4343 27.3772L35.1937 27.1089L35.0065 26.8943L34.4984 26.3846L34.2844 26.1968V26.1432L34.1775 26.0895L34.0705 25.9822V25.9286L33.9635 25.8749L33.6159 25.553L33.3217 25.3116L32.9206 24.9897L32.6264 24.7483L32.4392 24.6141L32.3055 24.48L32.1183 24.319L32.0381 24.2922L31.9311 24.1849L31.7172 23.9971L31.637 23.9703V23.9167L31.423 23.8094L31.2893 23.6752L30.9149 23.3801L30.2731 22.9509L29.9789 22.7632L29.5778 22.5217L29.3639 22.3876L28.9627 22.173L28.4546 21.9047L28 21.6633L27.6791 21.5292L27.3047 21.3414L26.8768 21.2073L26.6362 21.1L26.2885 20.9658L25.7804 20.8317L25.2188 20.6439L24.684 20.5098L24.1224 20.3489L23.6945 20.2416L23.5073 20.2147L23.3201 20.1611L22.5714 19.9733L22.3574 19.866L22.3842 19.6782Z" fill="#0F0E09"/>
<path d="M6.01697 2.48291L6.12394 2.50974L6.65878 4.14609L7.03317 5.13864L7.24711 5.67515L7.51453 6.42626L7.64824 6.82865L7.83544 7.33833L7.78195 7.36516L7.59476 6.8823L7.4343 6.90912L6.89946 7.25786L6.73901 7.33833L6.71227 7.47246L6.63204 7.36516L6.47159 6.8823H6.33787L6.39136 6.80182H6.44484L6.0972 5.8361L5.85652 5.11181L5.7228 4.62895V4.54848H5.64258L5.74955 3.79736L5.88326 3.0999L6.01697 2.48291Z" fill="#A8936E"/>
<path d="M11.607 19.2222H12.2488L12.2221 19.3295L11.6872 19.4368L11.2059 19.5172L10.8047 19.6514L10.671 19.705L10.4304 19.7587L10.1629 19.866L9.92225 19.9465L9.57461 20.0806L9.33393 20.1879L8.90605 20.3488L8.69211 20.4561L8.50492 20.5366L8.21075 20.6707L8.02356 20.7512L7.75614 20.8854L7.40849 21.0195L7.16781 21.1536L6.98061 21.2609L6.71319 21.3682L6.28532 21.5828L6.12486 21.6365V21.6901L5.93767 21.7706L5.3226 22.0925L4.94821 22.3071L4.54708 22.5217L4.3064 22.6558L4.06572 22.8168L3.82504 22.9509L3.69133 23.0314H3.63784V23.085L3.37042 23.2192L3.103 23.3801L2.64838 23.6752H2.5949V23.7289L2.35422 23.863L2.00657 24.1312L1.71241 24.3458L1.36476 24.6141L0.990367 24.9092L0.642719 25.2043L0.402039 25.392L0.268328 25.5262H0.214844V25.2579L0.53575 24.9897L0.883398 24.7214L1.25779 24.4263L1.60544 24.1581L2.11354 23.7825L2.5949 23.4338L2.96929 23.1655L3.6111 22.7363L4.3064 22.3071L4.8145 22.012L5.18889 21.8242L5.61676 21.5828L6.07138 21.3414L6.68645 21.0463L6.98061 20.9122L7.5422 20.6439L8.02356 20.4025L8.29098 20.2952L8.53166 20.1879H8.63863V20.1342L9.03976 19.9733L9.36067 19.8392L10.2966 19.5172L10.6443 19.4099L11.1791 19.3026L11.5 19.249L11.607 19.2222Z" fill="#0F0F0A"/>
<path d="M6.76562 1.19531H6.81911L6.97956 1.54404L7.1935 1.97325L7.35395 2.21468L7.40744 2.34881H7.46092L7.7016 2.69754L7.99576 3.04627L8.2097 3.31453L8.55735 3.79739L8.79803 4.17295L8.905 4.4412L8.87826 4.5485L8.93174 4.73628L8.905 5.16549L8.82477 5.4874V5.67518L9.09219 6.31899L9.2259 6.82868L9.19916 6.93598L9.09219 6.66772L9.03871 6.39947L8.905 6.05074L8.7178 5.67518L8.61083 5.702L8.42364 5.91661L8.34341 6.02391L8.42364 6.31899L8.66432 6.98963V7.07011H8.61083L8.37016 6.34582L8.26319 6.07756L8.12948 5.72883L7.83531 4.84359L7.56789 4.09247L7.27373 3.1804L7.14002 2.67072L7.11327 2.42929L7.1935 2.53659H7.24698L7.30047 2.77802L7.46092 2.83167L7.14002 2.24151L7.05979 2.00008H7.0063V1.94643H7.05979L6.92608 1.65135L6.76562 1.24896V1.19531Z" fill="#AC9874"/>
<path d="M22.3021 20.188H22.4626L22.4893 20.2148L23.0242 20.3221L23.5055 20.5099L23.8799 20.644L24.2276 20.805L24.5752 20.9391L24.9763 21.1537L25.3775 21.3415L25.6984 21.5293L25.9123 21.6097L26.2065 21.7707L26.4204 21.9048L27.3297 22.3609V22.4145L27.4634 22.4413L27.6506 22.5486L27.918 22.7096L27.9982 22.7364V22.7901L28.1854 22.8437V22.8974H28.2656V22.951L28.3726 22.9778L28.6668 23.1656L28.8807 23.2729L28.9609 23.3266V23.3802L29.0946 23.4339L29.2818 23.5948L29.3888 23.7558L29.6027 23.9704L29.7899 24.185L30.1911 24.5874L30.3248 24.6947L30.512 24.9093L30.6457 25.0434L30.8864 25.3385L31.0201 25.4458V25.4994H31.0736L31.234 25.714L31.2875 25.8214H31.341L31.4212 25.9555L31.5282 26.0628L31.6619 26.2237L31.7421 26.3579L31.8491 26.4652L31.9828 26.6261L32.0898 26.8139L32.2502 27.0017L32.4107 27.2163L32.5979 27.5114L32.7316 27.6455L32.8385 27.8333L32.892 27.8869L32.9455 28.021L33.0257 28.1552L33.1862 28.3966L33.1595 28.4771L33.0525 28.343L32.8118 27.9942V27.9406H32.7583L32.7048 27.7796L32.6246 27.7528L32.5176 27.5918V27.5382H32.4642L32.3839 27.4041V27.3504H32.3304L32.1165 27.0553L31.9026 26.7871L31.8758 26.7066H31.8223L31.7689 26.5725H31.7154L31.6886 26.4652H31.6351L31.5817 26.331L31.5014 26.3042L31.448 26.1701H31.3945L31.2073 25.9287L31.1538 25.8214H31.1003L30.9933 25.6604L30.6457 25.3117V25.258L30.5387 25.2044L30.298 24.9361L30.0306 24.6679L29.8969 24.5606L29.576 24.2386L29.2284 23.9704L28.854 23.7021L28.5598 23.4875L28.1052 23.1656L27.918 23.0583L27.6773 22.8974L26.7948 22.4145L26.3669 22.1731L25.8588 21.9048L25.2973 21.6366L24.8426 21.3951L24.2811 21.1537L22.6765 20.4831L22.3289 20.3489L22.2754 20.2953L22.3021 20.188Z" fill="#10100B"/>
<path d="M12.4628 19.4902L12.65 19.5171L12.6767 19.5975L12.4895 19.7048L12.2756 19.7853L12.1419 19.8121H12.0884V19.8658L11.4466 20.1072L11.3128 20.1877L10.9652 20.3218L10.5908 20.5096L10.2432 20.6437L9.97574 20.8047L9.78854 20.8852L9.28044 21.1266L8.82582 21.368L8.37121 21.5826L8.2375 21.6631H8.18401V21.7168L7.97007 21.8241L7.78288 21.9582L7.5422 22.0923L6.95387 22.4679L6.79342 22.5752H6.73993V22.6288H6.65971V22.6825L6.526 22.763L5.99115 23.1385L5.34934 23.6214L4.84124 23.9969L4.41336 24.3188L3.95875 24.6676L3.63784 24.9626L3.4239 25.1504L3.07626 25.4455L1.92634 26.599L1.68566 26.8941L1.41824 27.1892L1.12408 27.5647L0.803172 27.9671L0.268328 28.6646H0.214844V28.5036L0.589234 28.0208L0.803172 27.7525L1.09734 27.3769L1.3915 27.0282L1.57869 26.7868L1.87286 26.4649L2.06005 26.2503L2.35422 25.9284L2.70187 25.526L2.99603 25.1772L3.34368 24.8285L3.82504 24.4798L4.68079 23.836L4.97495 23.6214L5.48305 23.2458L5.93767 22.9239L6.82016 22.3337L7.27478 22.0387L7.78288 21.7168L8.42469 21.3412L8.58514 21.2339L8.95953 21.0461L9.17347 20.912L10.5641 20.2145L11.2326 19.9194L12.2488 19.5439L12.4628 19.4902Z" fill="#11110D"/>
<path d="M27.7053 1.06104L27.7856 1.08786L27.839 1.16834L27.8123 1.54389L27.7856 1.7585L27.8925 1.73167L27.839 2.16088L27.7856 2.42914L27.7588 2.64374L27.7053 2.75104H27.6519L27.5984 2.912L27.3577 3.42168L27.0903 4.11915L26.8496 4.81661L26.9566 4.84344V5.05804L26.9031 5.24582H26.9566L26.8763 5.51407L26.6624 6.10424L26.395 7.09678L26.3415 7.15043L26.0473 6.93583L25.8066 6.72122L25.9136 6.26519L26.2345 5.29947L26.5822 4.36058L26.9031 3.55581L27.1705 2.77787L27.2775 2.50961L27.3844 2.13406L27.5449 1.59755L27.7053 1.06104Z" fill="#A8936F"/>
<path d="M32.0912 15.0371L32.1446 15.0908L32.3318 16.0833L32.5993 17.9074L32.6527 18.283L31.9307 18.2293L31.2889 18.1489L30.3529 18.0416L30.3262 17.9611L30.6203 17.8001L30.9947 17.5051L31.3156 17.21L31.6098 16.8344L31.7435 16.6198L31.8772 16.2443L31.9307 16.1906L31.9842 15.8955L32.0109 15.8419L32.0644 15.1176L32.0912 15.0371Z" fill="#F2EDDF"/>
<path d="M10.7513 17.8003H11.0722L11.4466 17.8271L11.4198 17.9076L10.6978 18.0149L9.86877 18.1222L9.60135 18.149L9.44089 18.2027L8.10379 18.31L6.71319 18.3905L6.12486 18.4441L5.72373 18.4978L5.50979 18.5514L4.73427 18.6587L4.65405 18.6855L4.35988 18.7124L4.27965 18.7392L3.55762 18.8197L3.12974 18.9001L2.78209 18.9806L2.11354 19.1416L1.76589 19.2489L1.25779 19.383L1.01711 19.4635L0.375297 19.6513L0.214844 19.6781V19.544L0.402039 19.4635L1.36476 19.1684L1.49847 19.1147L2.22051 18.9538L3.04951 18.7392L3.77155 18.6051L3.93201 18.5514L5.3226 18.31L5.67025 18.2295L6.25858 18.1222L6.79342 18.0417H7.06084V17.9881H7.62243V17.9344L8.66537 17.9076L8.95954 17.8808L10.7513 17.8003Z" fill="#0D0C08"/>
<path d="M6.73918 1.08789L6.87289 1.11472L7.06009 1.19519L7.27402 1.22202L7.56819 1.54392L7.83561 1.83901L8.0228 2.05361L8.31697 2.40234L8.26348 2.42917L8.34371 2.64377L8.39719 2.91203L8.53091 3.31441L8.87855 4.06553L9.14598 4.68251L9.27969 5.03124L9.44014 5.43363L9.57385 5.83601L9.60059 6.02379L9.2262 6.50665L9.14598 6.61395L9.03901 6.26522L8.85181 5.78236L8.79833 5.67506V5.48728L8.87855 5.16537L8.9053 4.73616L8.85181 4.49473L8.87855 4.44108L8.7181 4.06553L8.53091 3.79727L8.26348 3.42171L7.88909 2.96568L7.56819 2.5633L7.46122 2.40234V2.34869H7.40773L7.24728 2.10726L7.16705 1.97313L6.81941 1.27567V1.19519H6.76592L7.0066 1.78535L6.97986 1.89266L6.60547 1.24884V1.19519L6.73918 1.08789Z" fill="#080804"/>
<path d="M27.4637 1.00781H27.6509L27.5975 1.24924L27.4905 1.59797L27.3568 2.08083L27.0894 2.96608L26.9824 3.18068L26.9022 3.12703L26.9824 2.85877L27.0626 2.61734L26.8754 3.04655L26.6347 3.42211L26.5545 3.55624L26.5812 3.60989L26.4743 3.82449L26.1534 4.22688L25.9929 4.361L25.6988 5.03164L25.565 5.46085L25.5383 5.70228V5.91689L25.4046 6.02419H25.3511L25.3244 6.21197H25.2709L25.2441 6.29244L25.2709 5.99736L25.4046 5.62181L25.5383 5.13895L25.7522 4.57561L26.0197 3.74402L26.0999 3.52941L26.1801 3.34163L26.2871 2.96608L26.3406 2.83195L26.4475 2.34909L26.3941 2.45639L26.3406 2.42957L26.5545 1.97353H26.608L26.6615 1.81258L26.8754 1.35654L26.9556 1.22242L27.2231 1.11511L27.4637 1.00781Z" fill="#090804"/>
<path d="M13.0243 19.8926L13.1045 19.9194L13.0778 20.0267L12.6766 20.2681L12.4359 20.4023L12.2755 20.5096L11.9813 20.6705L11.6872 20.8583L11.5 20.9656L11.1523 21.207L10.9116 21.3412L10.7779 21.4485L10.6442 21.5289L10.3501 21.7167L10.0559 21.9313L9.92218 22.0118L9.81521 22.0386V22.0923L9.54779 22.2801L9.3606 22.3874L8.95947 22.6824L8.82575 22.7629H8.77227V22.8166L8.45136 23.058H8.37114L8.3444 23.1385L8.18394 23.2458L8.02349 23.3799L7.88978 23.4336V23.4872L7.67584 23.6482L7.30145 23.9701L6.98054 24.2651L6.6329 24.587L6.4457 24.7748L6.25851 24.9894L5.85737 25.3918L5.69692 25.5796L5.64344 25.6601H5.58995L5.53647 25.7674L5.4295 25.9015H5.37601L5.34927 26.0088H5.29579L5.2423 26.1161L4.97488 26.438L4.7342 26.7331L4.4133 27.1086L4.14587 27.4842L3.98542 27.672L3.82497 27.9134H3.77148L3.79823 27.8061L4.06565 27.4306L4.27959 27.1086L4.54701 26.7599L4.84117 26.3844L5.08185 26.0893L5.34927 25.7674L5.58995 25.4723L5.85737 25.1772L6.04457 24.9626L6.39222 24.6139L6.57941 24.3993L7.40842 23.5677L7.59561 23.3531L7.88978 23.058L8.18394 22.8702L8.45136 22.6824L9.20014 22.2264L10.0024 21.6899L10.5105 21.368L11.0454 21.0193L11.6069 20.6705L12.0081 20.4291L12.4627 20.1608L13.0243 19.8926Z" fill="#11110D"/>
<path d="M7.48747 6.85547L7.62118 6.88229L7.78163 7.28468V7.36515L7.83512 7.39198L7.3805 7.55293L6.49801 7.98214L6.01665 8.2504L5.45506 8.62595L5.1609 8.86738L4.89348 9.10881L4.78651 9.18929L4.75977 9.10881L4.81325 8.51865L4.94696 7.84801L5.02719 7.76754L5.45506 7.66024L6.3643 7.44563L6.65846 7.39198L6.6852 7.41881L6.73869 7.3115L7.03285 7.15055L7.43398 6.88229L7.48747 6.85547Z" fill="#67655A"/>
<path d="M25.3254 3.5293H25.3521L25.3254 3.7439L25.2184 4.14628L25.0847 4.87057L25.058 5.03153V5.83629L25.1382 6.31915V6.56058L25.0045 7.09709L24.9777 7.28487L24.6301 7.15074L24.4964 7.07027L24.5231 6.64106L24.5499 6.45328V5.67534L24.4696 5.08518L24.3627 4.6828L24.3359 4.44137L24.6301 4.19994L24.844 3.98533L25.058 3.79755L25.3254 3.5293Z" fill="#080804"/>
<path d="M27.7861 7.82129L28.2674 8.03589L28.6953 8.2505L28.6151 8.49193V8.51875L28.722 8.33097L28.9627 8.38463L29.658 8.5724L29.7115 8.67971L29.7382 9.05526V9.67225L29.6847 9.7259L29.2569 9.37717L28.8023 9.05526L28.5081 8.89431L28.107 8.65288L27.6523 8.38463V8.17002L27.7326 7.87494L27.7861 7.82129Z" fill="#656359"/>
<path d="M26.2339 2.56348L26.3141 2.5903L26.2874 2.85856L26.1804 3.23412L26.0467 3.55602L25.9665 3.82428L25.7525 4.46809L25.6723 4.65587L25.5921 4.92412H25.5386L25.4851 5.21921L25.4316 5.35333L25.3781 5.59476L25.2177 6.13127H25.1375L25.084 5.83619L25.1107 5.03143L25.2444 4.36079L25.4049 3.71697L25.4584 3.47555L25.5653 3.26094L26.1537 2.67078L26.2339 2.56348Z" fill="#0A0A06"/>
<path d="M20.5916 35.6392L20.6451 35.666L20.8858 36.6317L21.0462 37.5169L21.0997 37.8657H22.1426L22.1159 37.9193L18.9068 37.9462H14.0398L13.7991 37.9193V37.8925L12.248 37.8657V37.8389H14.12L14.1735 36.8731L14.2537 36.1757L14.3072 35.9611L14.3607 35.9879L14.3339 36.9536L14.2805 37.8389H18.8266L18.7464 37.2755L18.6929 36.7927L18.7464 36.8463L18.8801 37.5706L18.9336 37.8389H20.859L20.7253 36.7122L20.5916 35.7196V35.6392Z" fill="#9A907A"/>
<path d="M17.0348 15.3057H17.6499L17.9173 15.4398L18.051 15.5203L18.0243 15.6276L17.8638 15.8422L17.7301 15.8153L17.5697 15.708L17.4627 15.6812H17.1953L17.0616 15.7885L17.0348 15.8422L17.0081 16.942L16.9546 17.0761L16.7674 17.1566H16.5535L16.5 17.0493V15.6812L16.7139 15.4398L16.8476 15.3593L17.0348 15.3057Z" fill="#EFEADC"/>
<path d="M7.14062 2L7.22085 2.08048L7.40805 2.37556L7.46153 2.34873L7.70221 2.69746L7.99637 3.0462L8.21031 3.31445L8.55796 3.79731L8.79864 4.17287L8.90561 4.44112L8.87887 4.54843L8.93235 4.73621L8.90561 5.16541L8.79864 5.62145L8.74516 5.54097L8.50448 4.81668L8.10334 3.93144L7.72895 3.20715L7.46153 2.69746L7.24759 2.29508L7.14062 2.08048V2Z" fill="#A5916C"/>
<path d="M15.4566 15.3325H16.0182L16.2588 15.413L16.3391 15.4935L16.3925 15.6008L16.4193 15.7617V17.1567L16.2321 17.1835L16.0449 17.1567L15.9914 16.9689L15.9112 15.9227L15.8577 15.7617L15.7775 15.7081H15.4566L15.2694 15.8422H15.1624V15.7886L15.0554 15.7349L15.002 15.6276L15.1891 15.4666H15.2426V15.413L15.4566 15.3325Z" fill="#EAE5D7"/>
<path d="M8.34375 2.45605L8.55769 2.61701L8.77162 2.83161L8.98556 3.01939L9.03905 3.07304L9.09253 3.234L9.11927 3.50225L9.22624 3.93146L9.33321 4.25337L9.41344 4.41432L9.46692 4.36067L9.52041 4.4948L9.68086 4.7094L9.7076 4.8167L9.73434 5.59464H9.68086L9.62737 5.16543L9.52041 4.89718V4.8167L9.44018 4.78988L9.52041 5.16543L9.60063 5.35321V5.54099L9.54715 5.59464L9.35995 5.16543L9.27973 4.924L9.14601 4.62892L8.93208 4.09241L8.71814 3.6632L8.53095 3.12669L8.45072 2.88526L8.34375 2.45605Z" fill="#0A0A05"/>
<path d="M8.39648 3.55615L8.55694 3.58298V3.63663L8.66391 3.6098L8.98481 4.30727L9.14527 4.68283L9.27898 5.03156L9.43943 5.43394L9.57314 5.83632L9.59988 6.0241L9.22549 6.50696L9.14527 6.61426L9.0383 6.26553L8.8511 5.78267L8.79762 5.67537V5.48759L8.87784 5.16568L8.90459 4.73648L8.8511 4.49505L8.87784 4.4414L8.71739 4.06584L8.5302 3.79758L8.39648 3.6098V3.55615Z" fill="#2F2A23"/>
<path d="M31.2081 34.915L31.2616 34.9955L31.4756 35.6393L31.7965 36.5782L31.9569 37.2489L32.0639 37.7854V37.8658L32.358 37.839H33.508L33.6417 37.8658V37.7317L33.7219 37.8122V37.8658L33.9626 37.839L36.4763 37.8122V37.8927L36.5566 37.9195H26.7422L26.7689 37.8658H27.5712V37.4098L27.6247 37.4903L27.6782 37.7317L27.7316 37.839L29.4699 37.8122L31.9569 37.839L31.7965 37.0879L31.5825 36.2563L31.2616 35.2101L31.2081 35.0223V34.915Z" fill="#B0A289"/>
<path d="M26.6347 3.93164L26.6882 3.98529L26.3406 4.89736L25.9662 5.97038L25.8057 6.53372L25.7255 6.50689L25.5918 6.10451V5.64848L25.8325 4.92419L26.0197 4.60228L26.3138 4.1999L26.4475 4.14624V4.06577L26.5278 3.98529L26.6347 3.93164Z" fill="#A8936E"/>
<path d="M16.4459 14.8228H17.569L17.9969 14.9301L18.3446 15.1447L18.3713 15.2788L18.2911 15.4129L18.1574 15.3593L17.9167 15.1715L17.676 15.091L17.3818 15.0642H15.9912L15.1355 15.1715L14.8413 15.3324L14.6007 15.5202L14.4669 15.4934L14.3867 15.4129V15.3056L14.7611 15.091L15.0553 14.9569L15.4564 14.8764L15.6436 14.8496L16.4459 14.8228Z" fill="#B1AB9D"/>
<path d="M25.0042 5.21924H25.0309L25.0577 5.83623L25.1379 6.31909V6.56052L25.0042 7.09703L24.9775 7.2848L24.6298 7.15068L24.4961 7.0702L24.5228 6.64099L24.5496 6.45321L24.5763 5.83623L24.6298 5.67527L24.8972 5.29971L25.0042 5.27289V5.21924Z" fill="#2F2A22"/>
<path d="M8.26426 6.13135L8.34448 6.21182L8.50494 6.66786L8.63865 7.07024L8.58516 7.12389L7.91661 7.36532L7.80964 7.3385L7.62245 6.82881L7.5957 6.64103L7.91661 6.3996L8.18403 6.185L8.26426 6.13135Z" fill="#646257"/>
<path d="M27.7051 1.06104L27.7853 1.08786L27.8388 1.16834L27.812 1.54389L27.7853 1.7585L27.8923 1.73167L27.8388 2.16088L27.6783 2.48279L27.4109 2.93882L27.197 3.34121L27.1167 3.44851L27.0098 3.39486L27.0365 3.18025L27.1702 2.77787L27.2772 2.50961L27.3842 2.13406L27.5446 1.59755L27.7051 1.06104Z" fill="#A3935B"/>
<path d="M8.63731 5.64844L8.74428 5.67526L8.95822 6.10447L9.09193 6.48003V6.61416L8.85125 6.88241L8.6908 7.07019L8.63731 6.98971L8.39663 6.31908L8.31641 6.024L8.55709 5.75574L8.63731 5.64844Z" fill="#302B23"/>
<path d="M0.241586 29.6572H0.268328L0.29507 30.2742V31.8569L0.402039 31.7496L0.589234 31.4545L0.615976 31.5082L0.428781 31.8569L0.402039 32.2057V32.4203L0.428781 32.5276L0.321812 32.6885V37.7854L0.241586 37.7585L0.214844 32.7958V31.1595L0.241586 29.6572Z" fill="#B7AF9F"/>
<path d="M17.5697 25.231H17.6767L17.7302 25.4992V26.0357L17.6767 26.2503L17.5697 26.4918L17.4627 26.6527L17.3558 26.76L17.2488 26.7332L17.1953 26.5722V26.0625L17.329 25.6333L17.5162 25.2846L17.5697 25.231Z" fill="#BAB3A6"/>
<path d="M26.7419 7.4458L27.0093 7.52628L27.6779 7.76771L27.6511 8.03596L27.5709 8.27739L27.4372 8.30422L27.0628 8.14326L26.7151 8.00914L26.5547 7.98231L26.6082 7.95549L26.6617 7.71406L26.7419 7.4458Z" fill="#656358"/>
<path d="M8.85091 37.0073H8.87765L8.85091 37.2488L8.77068 37.6243V37.8121H12.1135L12.1937 37.678L12.2472 37.4365H12.2739V37.678L12.2472 37.8657H13.8249L13.7982 37.9194H6.39062L6.41737 37.8657H8.69045L8.71719 37.5975L8.85091 37.0073Z" fill="#A69679"/>
<path d="M7.38114 6.39941H7.43462L7.59508 6.8018V6.85545L7.38114 6.93592L6.89978 7.25783L6.68584 7.36513L6.52539 6.82862L7.32766 6.42624L7.38114 6.39941Z" fill="#A8926D"/>
<path d="M22.0632 34.8076L22.1167 34.8881L22.4643 36.9537L22.5445 37.6779L22.5713 37.8389L23.8817 37.8121V37.8657L23.641 37.8926V37.9194L22.3841 37.9462H19.2285V37.9194L22.1167 37.8926L21.1005 37.8657V37.8389H22.4376L22.2504 36.4171L22.0632 34.9686V34.8076Z" fill="#B9B2A4"/>
<path d="M25.6188 4.44141H25.7525L25.5921 4.92427H25.5386L25.4851 5.21935L25.4316 5.35347L25.3781 5.5949L25.2177 6.13142H25.1375L25.084 5.83633L25.1107 5.03157L25.1375 4.87061L25.2444 4.84379L25.3514 4.70966H25.4049L25.4584 4.60236L25.6188 4.44141Z" fill="#2F2A22"/>
<path d="M8.95838 4.03906H9.11884L9.25255 4.25367L9.35952 4.28049L9.413 4.41462L9.46648 4.36097L9.51997 4.4951L9.68042 4.7097L9.70716 4.817L9.73391 5.59494H9.68042L9.62694 5.16574L9.51997 4.89748V4.817L9.43974 4.79018L9.51997 5.16574L9.60019 5.35351V5.54129L9.54671 5.59494L9.35952 5.16574L9.27929 4.92431L9.14558 4.62922L8.93164 4.09271L8.95838 4.03906Z" fill="#312C25"/>
<path d="M15.859 19.6514V19.7318L15.6718 20.0269L15.1102 20.5903L14.8963 20.778L14.5486 21.0731L14.2545 21.2877L13.8266 21.6365L13.3452 21.9852L12.8906 22.2803L12.5965 22.4412L12.543 22.4144L12.9708 22.1461L13.3987 21.8511L13.7464 21.556L13.9603 21.3414L14.1742 21.1536L14.5754 20.778L14.6021 20.8585L14.8695 20.6171L15.2974 20.1879L15.5113 20.0001L15.859 19.6514Z" fill="#9A8B6F"/>
<path d="M13.0236 24.3457H13.1038L13.0503 24.453L12.8631 24.6676L12.7026 24.8017H12.6492L12.5957 24.909L12.4887 25.0432H12.4352L12.3817 25.1505L12.1411 25.3651L12.0074 25.4455L11.9539 25.526H11.9004V25.5797H11.8469L11.7934 25.687L11.6864 25.7675H11.5527L11.5795 25.526L11.6597 25.4187H11.7399V25.3651L11.9271 25.2041L12.0341 25.07L12.4085 24.8017L12.5689 24.7481L12.6224 24.6408L12.8096 24.4798L12.8898 24.3994L13.0236 24.3457Z" fill="#BAB3A6"/>
<path d="M26.501 3.5293L26.5812 3.60977L26.4743 3.82438L26.1534 4.22676L25.9929 4.36089L25.6988 5.03153L25.565 5.46074L25.5383 5.70217V5.91677L25.4046 6.02407H25.3511L25.3244 6.21185H25.2709L25.2441 6.29233L25.2709 5.99725L25.4046 5.62169L25.5383 5.13883L25.7522 4.57549L25.9394 3.98533L25.9929 4.03898L26.2069 3.8512L26.501 3.5293Z" fill="#312C24"/>
<path d="M27.4384 5.05811H27.4919L27.6256 5.21906H27.6791L27.6523 5.70192L27.5989 6.15795L27.5454 6.18478V6.39938L27.5186 6.64081L27.4117 6.66764L27.3047 6.64081L27.3314 5.64827L27.4117 5.13858L27.4384 5.05811Z" fill="#A8985F"/>
<path d="M2.27264 36.3101L2.29938 36.3905L2.0587 37.0343L1.92499 37.4367V37.4904L2.0587 37.1953L2.08544 37.2758L1.87151 37.8659H3.71672V37.9196H0.293719V38.0001H0.240234L0.266977 36.8197H0.293719L0.320461 37.8391L0.641367 37.8659L0.694851 37.7318L0.962273 37.2221L1.17621 36.7661L1.22969 36.6588L1.25644 36.7124L0.962273 37.3831L0.694851 37.8659H1.79128L1.81802 37.6245L1.92499 37.2221L2.16567 36.5515L2.27264 36.3101Z" fill="#8B8673"/>
<path d="M8.29102 2.45605L8.39798 2.56336L8.50495 3.01939L8.71889 3.5559L8.79912 3.74368L8.98631 4.17289L9.12002 4.52162L9.25373 4.78988L9.41419 5.21909L9.60138 5.64829L9.76183 6.21163L9.89555 6.72132L9.92229 7.04322L9.84206 7.0164L9.76183 6.72132L9.68161 6.34576L9.57464 5.9702L9.44093 5.51417L9.28048 5.08496L9.14677 4.78988L9.01305 4.44114L8.79912 3.95829L8.47821 3.26082L8.3445 2.85844L8.29102 2.56336V2.45605Z" fill="#DCD5C6"/>
<path d="M31.2089 34.915L31.2624 34.9955L31.4763 35.6393L31.7972 36.5782L31.9577 37.2489L32.0379 37.6781L32.0112 37.7854L31.9844 37.8658H27.7324V37.839L29.4707 37.8122L31.9577 37.839L31.7972 37.0879L31.5833 36.2563L31.2624 35.2101L31.2089 35.0223V34.915Z" fill="#BAB3A6"/>
<path d="M20.5919 35.6392L20.6454 35.666L20.8861 36.6317L21.0465 37.5169L21.0733 37.7584L20.9663 37.8657L20.9128 37.7852L20.8861 37.8657H19.4688V37.8389H20.8593L20.7256 36.7122L20.5919 35.7196V35.6392Z" fill="#B9B2A5"/>
<path d="M24.1484 3.68994L24.2019 3.74359L24.3356 4.36058L24.5228 4.22645L24.5763 4.25328L24.3891 4.44106H24.3356L24.4693 5.03122L24.5228 5.24582L24.5763 5.67503V6.45297L24.4693 7.36504L24.3891 7.39187V6.96266L24.4426 6.66758V5.75551L24.3624 5.08487L24.2821 4.70931L24.2019 4.0655L24.1484 3.68994Z" fill="#E1DCCE"/>
<path d="M27.7054 1.06104L27.7856 1.08786L27.8391 1.16834L27.8123 1.54389L27.7054 1.94628L27.5449 2.37549L27.2507 2.83152L27.1973 2.85835L27.224 2.67057L27.5449 1.59755L27.7054 1.06104Z" fill="#0D0D08"/>
<path d="M27.5712 37.4097L27.6247 37.4901L27.6782 37.7316L27.7316 37.7852V37.8657H31.9837V37.7316L32.0104 37.7852H32.0639V37.9194H26.7422L26.7689 37.8657H27.5712V37.4097Z" fill="#A5916D"/>
<path d="M19.8691 26.7065L19.9761 26.7334L20.1098 27.4845L20.2435 28.6112L20.297 29.4427L20.2435 29.4159L20.0563 27.7527L19.9494 26.948H19.8959L20.0296 28.3429L20.1098 28.9867L20.2435 29.6037L20.2703 29.711H20.19L20.0563 29.094L19.9761 28.6112V28.4234L19.9226 28.3966L19.8959 27.9673L19.8691 27.5918V26.7065Z" fill="#BAB3A6"/>
<path d="M22.4629 26.6797L22.5431 26.7065L22.7036 27.0284L22.6768 27.1089L22.6501 27.2162L22.8373 27.86L22.9443 28.1551L23.0512 28.477L23.2652 28.9867L23.3454 29.1208L23.1047 28.3429L22.8105 27.4576L22.8373 27.3772L23.0245 27.86V27.9137H23.078L23.2652 28.5843L23.4791 29.3891L23.5593 29.6037L23.5326 29.6841L23.0245 28.6648L22.7838 28.021L22.6768 27.5918L22.5164 27.0284L22.4629 26.787V26.6797Z" fill="#B9B2A5"/>
<path d="M6.09766 2.53662L6.15114 2.59027L6.65924 4.14615L7.03363 5.1387L7.24757 5.67521L7.51499 6.42632L7.6487 6.82871L7.8359 7.33839L7.78241 7.36522L7.3278 6.15807L7.1406 5.62156L7.08712 5.59473L6.81969 5.62156L6.84644 5.56791L7.06037 5.51426L7.03363 5.3533L6.76621 4.65584L6.55227 4.0925L6.15114 2.8317L6.09766 2.64392V2.53662Z" fill="#F3EEE1"/>
<path d="M5.72266 4.44141L5.77614 4.49506L5.99008 5.21935L6.2575 6.02411L6.49818 6.69475V6.7484L6.97954 6.5338L7.30044 6.34602H7.38067V6.4265L6.97954 6.6411L6.55166 6.82888L6.71212 7.36539L6.68537 7.47269L6.52492 7.04348L6.47144 6.88253H6.33773L6.39121 6.80205H6.44469L6.09705 5.83633L5.85637 5.11204L5.72266 4.62919V4.44141Z" fill="#F4EFE2"/>
<path d="M14.9214 32.6079H14.9482V34.2174L14.9214 35.3441L14.8947 35.6124H14.8145V34.1101L14.8679 33.0908L14.8947 32.6616L14.9214 32.6079Z" fill="#B9B1A3"/>
<path d="M26.6356 3.93164L26.6891 3.98529L26.5019 4.46815H26.4485L26.3415 4.57545L26.2345 4.76323L26.1008 4.89736H26.0473V4.95101L25.9404 5.03149L25.8066 5.08514L25.8334 4.92419L26.0206 4.60228L26.3147 4.1999L26.4485 4.14624V4.06577L26.5287 3.98529L26.6356 3.93164Z" fill="#A7965C"/>
<path d="M17.623 19.9463L17.7568 20.0804L17.9974 20.4023L18.3451 20.8047L18.9602 21.4217L19.4148 21.7704L19.6822 21.9314L20.0298 22.0923L20.1636 22.146L20.0833 22.1728L19.6287 21.985L19.1474 21.6899L18.8532 21.4485L18.5858 21.2071L17.9707 20.5901L17.73 20.295L17.6498 20.1877L17.6765 20.1072L17.623 19.9463Z" fill="#B9B1A2"/>
<path d="M27.1696 2.72461L27.1963 2.77826L26.9289 3.5562L26.5278 4.57557L26.1801 5.54129L25.9394 6.26558L25.8325 6.66796L25.6453 7.17765L25.5918 7.2313L25.6185 7.07035L25.7522 6.66796L25.9127 6.05098L26.1801 5.27304L26.4208 4.6024L26.715 3.85128L26.9824 3.20747L27.1428 2.75143L27.1696 2.72461Z" fill="#F4EFE2"/>
<path d="M18.6934 36.793L18.7468 36.8466L18.8806 37.5709L18.934 37.8392L20.8862 37.866V37.6782L20.9397 37.7855L20.9932 37.8392L21.0734 37.7587L21.1002 37.866H22.1431L22.1164 37.9196L18.9073 37.9465L18.7201 37.9196L18.7468 37.866H18.8271L18.6934 36.9003V36.793Z" fill="#A2906F"/>
<path d="M8.90564 34.1104L8.93238 34.2177L8.77193 35.8808L8.61148 36.8466L8.55799 37.0075H8.53125L8.55799 36.2027L8.71845 35.2102L8.8789 34.1908L8.90564 34.1104Z" fill="#C2BBAD"/>
<path d="M10.1348 4.09229L10.1882 4.11911L10.215 4.22641L10.2417 5.03118L10.2685 5.21896L10.322 5.9969L10.4289 6.58706L10.4824 6.80166H10.3754L10.2417 6.31881L10.1348 5.27261V4.09229Z" fill="#DFDACD"/>
<path d="M26.4483 2.32227L26.475 2.40274L26.3413 2.91243L26.2611 3.18068L26.1541 3.44894L26.0739 3.71719L25.9669 3.98545L25.7797 4.57561L25.6193 4.97799L25.4588 5.48768L25.3519 5.86324L25.2716 6.13149L25.2449 6.29245H25.1914L25.2181 6.02419L25.3519 5.59498L25.4321 5.27308L25.5391 4.92434H25.5925L25.646 4.65609L25.7797 4.33418L25.9134 3.85132L25.9937 3.63672L26.1274 3.26116L26.2076 3.01973L26.2878 2.75147L26.3146 2.72465L26.3681 2.48322L26.4483 2.32227Z" fill="#DCD7CA"/>
<path d="M20.3242 30.623L20.3777 30.6767L20.5916 31.4815L20.6986 32.0448L20.9393 34.0031V34.2713H20.8858L20.7254 33.091L20.5916 31.9643L20.4579 31.2669L20.3242 30.7035V30.623Z" fill="#979180"/>
<path d="M10.6172 4.60205H10.6707L10.7242 4.763L10.7776 6.29206L10.8311 6.58714L10.8579 6.61397V6.77492L10.7509 6.66762L10.6707 6.47984L10.6172 5.99698V4.60205Z" fill="#D8D4C7"/>
<path d="M14.3063 35.9614L14.3598 35.9883L14.3331 36.954L14.2796 37.8392L14.1191 37.8124L14.1726 36.8735L14.2529 36.176L14.3063 35.9614Z" fill="#B9B2A5"/>
<path d="M23.881 35.1299H23.9077V35.4786L23.8543 36.0688V36.6858L23.9612 37.732L24.0147 37.7588L23.988 36.1761L24.0415 36.1224L24.0682 36.2297L24.0949 36.954V37.8661L24.0682 37.8124L23.881 37.7856L23.8275 37.3564L23.8008 37.0345V35.9346L23.8543 35.264L23.881 35.1299Z" fill="#BAB3A6"/>
<path d="M6.71152 33.3057L6.73827 33.3593L6.49759 34.2177L6.39062 34.5933L6.14994 35.2639L6.06971 35.4249L6.04297 35.3176L6.25691 34.486L6.4441 33.9227L6.65804 33.3593L6.71152 33.3057Z" fill="#F4EFE2"/>
<path d="M25.6998 3.07324V3.15372L25.5394 3.3415L25.4591 3.5561L25.2987 4.28039L25.165 4.87055L25.1115 5.19246L25.058 5.7558H25.0312V5.03151L25.1382 4.38769L25.3789 3.42197L25.6196 3.15372L25.6998 3.07324Z" fill="#E6E0D3"/>
<path d="M6.76562 1.19531H6.81911L6.97956 1.54404L7.1935 1.97325L7.35395 2.21468L7.43418 2.34881L7.40744 2.40246L7.22024 2.13421L7.16676 2.0269L7.22024 2.18786L7.48766 2.69754L7.8888 3.47548L8.15622 3.98517L8.2097 4.09247L8.18296 4.17295L7.86205 3.52913L7.48766 2.88532L7.14002 2.24151L7.05979 2.00008H7.0063V1.94643H7.05979L6.92608 1.65135L6.76562 1.24896V1.19531Z" fill="#F3EEE1"/>
<path d="M14.8695 20.7241L14.923 20.7509L14.6823 20.9656L14.2545 21.2875L13.8266 21.6362L13.3452 21.9849L12.8906 22.28L12.5965 22.441L12.543 22.4141L12.9708 22.1459L13.3987 21.8508L13.7464 21.5557L13.9603 21.3411L14.1742 21.1533L14.2812 21.0729V21.1265L14.4951 20.9924L14.5486 20.9119L14.7358 20.8314L14.8161 20.8046V20.7509L14.8695 20.7241Z" fill="#B9B2A4"/>
<path d="M23.7207 30.7573L23.7742 30.8646L23.9346 31.8572L24.0149 32.7692L24.0416 33.5204V33.7081L23.9881 33.735L23.9346 33.1984L23.8544 32.1523L23.7207 30.9451V30.7573Z" fill="#AC9A7C"/>
<path d="M22.4643 37.6514L22.5445 37.6782L22.5713 37.8391L23.8817 37.8123V37.866L23.641 37.8928V37.9196L22.3841 37.9464H19.2285V37.9196L22.1167 37.8928L22.1434 37.866H22.4643V37.6514Z" fill="#B5AB98"/>
<path d="M32.7852 34.2979L32.8386 34.4052L33.0258 35.1026L33.1863 35.9342L33.32 36.578L33.427 36.9536L33.5339 37.6242V37.7852H33.4805L33.0793 35.7733L32.8386 34.6734L32.7852 34.432V34.2979Z" fill="#B9B2A5"/>
<path d="M26.6094 29.4429L26.6629 29.4965L27.1442 30.8914L27.2779 31.3743L27.4116 32.0449L27.4651 32.6083L27.4116 32.5815L27.2244 31.6426L26.9838 30.6768L26.8233 30.1403L26.6094 29.5233V29.4429Z" fill="#A39983"/>
<path d="M29.0156 29.7378L29.0959 29.8183L29.2563 30.2207L29.7109 31.24L29.8714 31.7497L29.9249 31.9643V32.2326L29.8714 32.1253L29.6307 31.401L29.2028 30.3011L29.0424 29.8719L29.0156 29.7378Z" fill="#AC9C81"/>
<path d="M29.7383 34.1372L29.7918 34.1909L30.0592 35.1566L30.1929 35.6931V35.854L30.1394 35.7467L30.0057 35.1834L29.9522 35.0493L29.979 35.2907L30.1662 36.0418L30.2731 36.3906L30.3266 36.8198H30.2731L30.1929 36.471L29.9522 35.5053L29.7918 34.4859L29.7383 34.1372Z" fill="#B7AE9D"/>
<path d="M26.6895 7.98242L26.9569 8.0629L27.465 8.2775L27.6522 8.25068L27.6789 8.3848L28.294 8.73354L28.5079 8.86766L28.8021 9.02862L29.0962 9.24322L29.3102 9.40418L29.6846 9.69926L29.7381 9.67243V9.80656L29.5241 9.64561L29.0428 9.29687L28.4277 8.89449L27.7324 8.49211L27.3045 8.2775L26.7162 8.03607L26.6895 7.98242Z" fill="#9B8A6B"/>
<path d="M13.7725 26.7871H13.7993V27.1895L13.7458 28.4503L13.6388 29.6843L13.6121 29.7647H13.5586L13.6656 28.1016L13.7458 26.9481L13.7725 26.7871Z" fill="#9F9176"/>
<path d="M25.4844 30.1401L25.5379 30.2206L25.7785 31.0254L25.939 31.7228L26.1262 32.9032V33.0373H26.0727L25.9925 32.6349L25.7785 31.4009L25.6716 30.9717L25.4844 30.2474V30.1401Z" fill="#858072"/>
<path d="M0.266977 34.5933H0.293719L0.320461 36.4174V37.7855L0.240234 37.7587V34.7274L0.266977 34.5933Z" fill="#BAB3A6"/>
<path d="M33.1328 32.125L33.213 32.2323L33.4805 32.8493L33.6409 33.3053L33.7746 33.6809L33.9886 34.4856L34.042 34.7271V34.9417L33.9886 34.888L33.8014 34.1637L33.5607 33.3321L33.2933 32.6079L33.1328 32.2055V32.125Z" fill="#B2A58E"/>
<path d="M30.4316 29.8721L30.4851 29.8989L30.8328 30.65L31.1002 31.5084L31.2874 32.0449L31.4211 32.5815L31.5548 33.0107L31.635 33.1448V33.1984H31.5816L31.4478 32.9302L31.2072 32.0449L30.8595 30.9719L30.4584 30.0062L30.4316 29.8721Z" fill="#B9B1A3"/>
<path d="M1.22969 36.6587L1.25644 36.7123L0.962273 37.383L0.694851 37.8658H1.79128V37.8122H1.84476L1.79128 37.9195H0.293719V38H0.240234L0.266977 36.8196H0.293719L0.320461 37.839L0.641367 37.8658L0.694851 37.7317L0.962273 37.222L1.17621 36.766L1.22969 36.6587Z" fill="#7D7B6C"/>
<path d="M21.0996 29.4429L21.1531 29.4965L21.4205 30.2476L21.6879 31.0256L21.6612 31.1329L21.5542 30.8646L21.8216 31.6962L21.8751 31.9376H21.8216L21.5007 30.9719L21.367 30.3818L21.2066 29.8453L21.0996 29.5502V29.4429Z" fill="#AC9E86"/>
<path d="M11.1256 29.3892H11.1523L11.1256 29.6306L10.9384 30.4354L10.6977 31.7766L10.5373 32.8497L10.5105 32.9033L10.457 32.8765L10.5907 31.8839L10.8314 30.6231L11.0721 29.5769L11.1256 29.3892Z" fill="#958C77"/>
<path d="M12.7566 30.7573H12.7833L12.7566 31.1329L12.5694 32.4742L12.409 33.6008H12.3555V33.3058L12.5159 32.1791L12.7031 31.0256L12.7566 30.7573Z" fill="#928C7B"/>
<path d="M9.2787 4.92432L9.33218 4.97797L9.43915 5.29987L9.5996 5.64861L9.76005 6.21194L9.89377 6.72163L9.92051 7.04353L9.84028 7.01671L9.76005 6.72163L9.67983 6.34607L9.57286 5.97051L9.43915 5.51448L9.2787 5.08527L9.25195 4.97797L9.2787 4.92432Z" fill="#DCD6C8"/>
<path d="M13.1041 34.6738L13.1309 34.7811L12.9437 36.6321L12.8367 37.7051H12.7832L12.8367 36.8735L12.9437 35.8005L13.0774 34.7275L13.1041 34.6738Z" fill="#8C8574"/>
<path d="M27.7587 3.68994L27.7854 3.79724L27.4645 5.00439L27.3576 5.64821L27.3308 6.61393H27.2773V5.64821L27.3576 5.1117L27.4645 4.65566L27.7587 3.68994Z" fill="#F4EFE2"/>
<path d="M20.8326 36.8467L20.8861 36.9003L20.9931 37.4368L21.0198 37.8392L20.9663 37.8661L20.9128 37.7856L20.8861 37.8661H19.4688V37.8392H20.8593L20.8059 37.3564L20.8326 36.8467Z" fill="#BAB3A6"/>
<path d="M28.5879 27.5918L28.6681 27.6991L28.9623 28.2893L29.203 28.9599L29.4971 29.6305L29.3902 29.2818L29.2564 28.9331L29.2832 28.8794L29.4436 29.2282L29.5774 29.6842L29.6308 29.9524L29.5506 29.9256L29.2297 29.2013L28.9355 28.4502L28.6414 27.7796L28.5879 27.6723V27.5918Z" fill="#BAB3A6"/>
<path d="M27.7592 34.1641L27.8126 34.2714L27.9464 34.942L28.0266 35.7736V36.0419L27.9998 36.2565H27.9731L27.9196 35.4517L27.8661 35.2103L27.8394 34.8615L27.8126 34.8347L27.7859 34.6469L27.7592 34.8079H27.7324V34.2445L27.7592 34.1641Z" fill="#BAB3A6"/>
<path d="M16.7949 34.6738H16.8217L16.8751 35.5054L16.9286 36.6589V37.2491H16.8751L16.8217 36.3102L16.7949 35.6932V34.6738Z" fill="#918976"/>
<path d="M19.8691 27.1626H19.9226L20.0029 28.1283L20.1098 28.9867L20.2435 29.6037L20.2703 29.711H20.19L20.0563 29.094L19.9761 28.6112V28.4234L19.9226 28.3966L19.8959 27.9674L19.8691 27.5918V27.1626Z" fill="#BAB3A6"/>
<path d="M8.63731 5.64844L8.74428 5.67526L8.79777 5.80939L8.74428 5.83622L8.6908 5.80939L8.71754 6.21177L8.61057 6.26542L8.47686 6.21177L8.42338 6.10447V6.02399H8.36989V6.07765H8.31641L8.36989 5.94352L8.55709 5.75574L8.63731 5.64844Z" fill="#625F55"/>
<path d="M7.11328 2.4292L7.16677 2.50968L7.35396 3.18031L7.70161 4.25334L7.91555 4.8435L7.99577 5.11175L7.96903 5.21906L7.59464 4.17286L7.27373 3.18031L7.14002 2.67063L7.11328 2.4292Z" fill="#F4EFE2"/>
<path d="M26.2342 27.2964L26.3144 27.3232L26.1539 27.3769L25.1377 27.5915L23.9878 27.8061L23.3193 27.9134H23.1855L23.2658 27.8597L24.7633 27.5915L25.6993 27.4037L26.2342 27.2964Z" fill="#BAB3A6"/>
<path d="M27.7324 34.8345H27.7592L27.8929 35.9343L27.9464 36.2562L27.9998 36.3099V36.8464H27.9464L27.8661 36.4172L27.7859 35.8807L27.7324 35.2369V34.8345Z" fill="#BAB3A6"/>
<path d="M6.73902 33.3057L6.76576 33.3861L6.6053 34.0568L6.41811 34.7006L6.12395 35.4517L6.04372 35.6663H5.99023L6.01698 35.3176H6.0972L6.2844 34.8347L6.44485 34.3519L6.65879 33.5471L6.73902 33.3057Z" fill="#BAB3A6"/>
<path d="M8.39648 3.55615L8.55694 3.58298V3.63663L8.66391 3.6098L8.98481 4.30727L9.0383 4.4414L9.01155 4.5487L8.90459 4.38774L8.82436 4.30727L8.66391 3.98536L8.44997 3.69028L8.39648 3.55615Z" fill="#29251F"/>
<path d="M26.6348 27.6455L26.715 27.726L26.9022 28.2893L27.0359 28.9331L27.1696 29.3355L27.1161 29.0673L27.0894 29.0136V28.8527L27.1429 28.9063L27.2231 29.2282L27.2498 29.4428V29.6842L27.1964 29.6306L26.9557 28.9063L26.715 27.9674L26.6348 27.6455Z" fill="#BAB3A6"/>
<path d="M2.99457 33.1445L3.02131 33.225L2.78063 33.8956L2.51321 34.7541L2.21905 35.5857L2.11208 35.8271L2.05859 35.8003L2.27253 35.2637L2.67366 34.0029L2.72715 33.842L2.70041 33.7883L2.91434 33.3323L2.99457 33.1445Z" fill="#B7AE9E"/>
<path d="M9.4402 4.36084L9.49369 4.46814L9.68088 4.70957L9.70762 4.81687L9.73437 5.59481H9.68088L9.6274 5.16561L9.46695 4.76322L9.38672 4.41449L9.4402 4.36084Z" fill="#2B261F"/>
<path d="M18.2383 20.8047L18.3185 20.8315V20.8852L18.4255 20.9388L18.7464 21.2607L18.8801 21.3412L19.2277 21.6363L19.5754 21.8777L20.03 22.0923L20.1637 22.146L20.0835 22.1728L19.6289 21.985L19.1475 21.6899L18.8534 21.4485L18.5859 21.2071L18.2383 20.8583V20.8047Z" fill="#AE9F86"/>
<path d="M4.65233 33.9224L4.67907 34.0028L4.46513 34.8881L4.19771 35.6928L3.98377 36.2025L3.95703 36.1221L4.09074 35.7733L4.27794 35.2905L4.38491 34.8613L4.33142 34.8881L4.35816 34.7271L4.59884 34.0565L4.65233 33.9224Z" fill="#BEB6A7"/>
<path d="M22.0625 34.8076L22.116 34.8881L22.3567 36.3098V36.7391L22.2764 36.6318L22.0625 34.9686V34.8076Z" fill="#A4977E"/>
<path d="M26.1004 34.5933L26.1538 34.6737V34.9688L26.1004 35.4517V35.9882L26.1538 36.632L26.2073 37.088L26.1538 37.0076L26.0469 36.471V35.1298L26.0736 34.6737L26.1004 34.5933Z" fill="#BAB3A6"/>
<path d="M16.6074 28.8257H16.6342L16.7679 30.5157L16.7946 31.24H16.7411L16.6342 29.9524L16.6074 29.5231V28.8257Z" fill="#A79A80"/>
<path d="M18.8262 29.9253H18.8529L19.0936 31.5348L19.1471 32.0445V32.3932L19.0936 32.3128L18.8262 30.1131V29.9253Z" fill="#AD9E85"/>
<path d="M27.6239 1.08789L27.7042 1.11472L27.5972 1.54392L27.4635 1.94631L27.3565 2.32187L27.2228 2.75107H27.1426L27.2228 2.45599L27.3833 1.91948L27.4635 1.59758L27.5972 1.16837L27.6239 1.08789Z" fill="#D5D0C2"/>
<path d="M23.8816 37.7852L24.0688 37.812V37.8656H25.2454L25.2187 37.9193H23.6409L22.7852 37.8925V37.8656H23.8816V37.7852Z" fill="#8E8671"/>
<path d="M28.3738 5.75586L28.4005 5.86316L28.2133 6.50697L27.8924 7.47269L27.6517 8.25064L27.625 8.14333L27.7855 7.55317L28.1331 6.5338L28.3738 5.75586Z" fill="#F4EFE2"/>
<path d="M27.4644 2.75146L27.4911 2.80512L27.3574 3.04655L27.1435 3.4221H27.0365L27.0098 3.39528L27.0365 3.18067L27.1167 2.93924L27.2237 2.96607L27.2504 2.88559L27.3842 2.83194L27.4644 2.75146Z" fill="#A7975D"/>
<path d="M31.209 34.915L31.2625 34.9955L31.4764 35.6393L31.6903 36.2563L31.7706 36.6319L31.7973 36.8733H31.7438L31.5566 36.1758L31.209 35.0223V34.915Z" fill="#AE9D80"/>
<path d="M26.9555 5.21924H26.9823L26.9555 5.43384L26.6346 6.39956L26.4207 7.20433L26.3672 7.1775L26.4207 6.90925L26.6346 6.10448L26.902 5.35337L26.9555 5.21924Z" fill="#F4EFE2"/>
<path d="M9.06641 3.12695L9.14663 3.20743L9.2536 3.66346L9.38731 4.17315L9.4408 4.28045V4.4414L9.36057 4.36093L9.28034 4.19997L9.14663 3.69029L9.09315 3.50251L9.06641 3.12695Z" fill="#DFD9CC"/>
<path d="M4.70582 35.7197L4.73256 35.7734L4.51862 36.3904L4.41166 36.8464L4.35817 37.3829V37.7316L4.41166 37.7048L4.51862 37.3829H4.54537L4.51862 37.6243L4.46514 37.8658L4.4384 37.8121L4.30469 37.7853V37.2488L4.38491 36.6318L4.51862 36.1489L4.67908 35.7466L4.70582 35.7197Z" fill="#B5AA97"/>
<path d="M27.3035 2.02686H27.357L27.25 2.45606L27.0361 3.09988L26.9558 3.18035L26.9023 3.1267L26.9826 2.85845L27.1163 2.50972L27.1965 2.26829L27.3035 2.02686Z" fill="#342F25"/>
<path d="M9.22565 29.9253L9.25239 30.0326L9.01171 30.891L8.71755 32.1518H8.66406L8.77103 31.5348L9.03845 30.5423L9.19891 29.9789L9.22565 29.9253Z" fill="#8C8675"/>
<path d="M11.6053 34.8613H11.6588L11.6321 35.2101L11.4449 36.4709L11.3646 36.9537H11.3379L11.3646 36.5245L11.6053 34.8613Z" fill="#918977"/>
<path d="M8.61027 3.93164L8.74398 4.06577L8.90444 4.44133L8.87769 4.60228L8.74398 4.5218L8.58353 4.25355L8.47656 4.03894L8.5033 3.95847L8.66376 4.14624L8.61027 3.93164Z" fill="#A5955C"/>
<path d="M27.6519 2.75146L27.6786 2.83194L27.3845 3.47575L26.9298 4.70973L26.8496 4.81703L26.9031 4.5756L27.1973 3.74401L27.4914 3.07337L27.6519 2.75146Z" fill="#F4EFE2"/>
<path d="M31.6895 36.3369L31.7429 36.4174L31.9034 37.0076L32.0371 37.6782L32.0104 37.7855L31.9569 37.7587L31.7697 36.9807V36.7393L31.6895 36.4442V36.3369Z" fill="#B5AA98"/>
<path d="M22.8105 27.377L22.864 27.4306L23.0245 27.8598V27.9135H23.078L23.2652 28.5841L23.4256 29.1743L23.3989 29.2816L23.3454 29.1743L23.2652 28.8524L22.9977 27.9939L22.8105 27.4574V27.377Z" fill="#BAB3A6"/>
<path d="M32.5449 29.6572L32.6251 29.7377L32.9995 30.4352L33.267 30.9449L33.5344 31.5082L33.5076 31.5887L32.9728 30.5156L32.7589 30.1401L32.5449 29.7109V29.6572Z" fill="#B6AC9A"/>
<path d="M22.8105 19.0879H23.693L23.7198 19.1952H22.8373L22.8105 19.0879Z" fill="#CDC7B9"/>
<path d="M26.2617 35.4248H26.3152L26.3954 36.2564V36.7124L26.3419 36.9539L26.2885 36.927V35.7735L26.2617 35.4248Z" fill="#BAB3A6"/>
<path d="M29.2826 7.23096L29.3093 7.28461L29.0419 7.79429L28.721 8.38446L28.5873 8.62589L28.5605 8.54541L28.828 7.98207L29.2024 7.33826L29.2826 7.23096Z" fill="#F4EFE2"/>
<path d="M14.9226 32.6079H14.9494V33.7882L14.9226 33.8151L14.8959 34.1101H14.8691V33.0908L14.8959 32.6616L14.9226 32.6079Z" fill="#AFA085"/>
<path d="M22.4629 26.6797L22.5431 26.7065L22.7036 27.0284L22.6768 27.1089L22.6501 27.2162L22.7838 27.6991L22.7571 27.8064L22.6768 27.5918L22.5164 27.0284L22.4629 26.787V26.6797Z" fill="#BAB3A6"/>
<path d="M32.7852 34.2979L32.8386 34.4052L33.0258 35.1026L33.1595 35.7733V35.9342L33.1061 35.9074L32.8654 34.7807L32.7852 34.432V34.2979Z" fill="#B8B1A2"/>
<path d="M13.773 26.7871H13.7997V27.1895L13.7462 28.4503H13.7195L13.6928 28.3162H13.666L13.6928 27.726L13.7462 26.9481L13.773 26.7871Z" fill="#B3A690"/>
<path d="M27.678 5.21924H27.7048V5.72892L27.6245 6.58734L27.5711 6.77512L27.5176 6.74829L27.6245 5.7021L27.678 5.21924Z" fill="#F4EFE2"/>
<path d="M6.73918 1.08789L6.81941 1.11472H6.76592L6.84615 1.38297L7.0066 1.78535L6.97986 1.89266L6.60547 1.24884V1.19519L6.73918 1.08789Z" fill="#201E18"/>
<path d="M12.4892 32.3398H12.5159L12.5427 32.6349L12.409 33.6006H12.3555V33.3056L12.4892 32.3398Z" fill="#A09580"/>
<path d="M2.27298 36.3101L2.29972 36.3905L2.05904 37.0343L1.92533 37.4367V37.4904L2.05904 37.1953L2.08578 37.2758L1.95207 37.6245L1.81836 37.7318L1.8451 37.5172L1.97881 37.0612L2.16601 36.5515L2.27298 36.3101Z" fill="#A99B82"/>
<path d="M2.32631 36.2832L2.35305 36.3369L2.08563 37.1953L1.92518 37.544L1.89844 37.4367L2.1926 36.5783L2.32631 36.2832Z" fill="#F4EFE2"/>
<path d="M29.9785 35.5054H30.032L30.1925 36.1224L30.2727 36.3906L30.3262 36.8198H30.2727L30.1925 36.4711L29.9785 35.6395V35.5054Z" fill="#AF9F85"/>
<path d="M6.76562 1.19531H6.81911L6.97956 1.54404L7.1935 1.97325L7.35395 2.21468L7.43418 2.34881L7.40744 2.40246L7.22024 2.13421L7.14002 2.0269L7.0063 2.00008V1.94643H7.05979L6.92608 1.65135L6.76562 1.24896V1.19531Z" fill="#E1DBCC"/>
<path d="M25.5391 4.92432L25.5925 4.97797L25.5658 5.13892L25.3519 5.86321L25.2716 6.13147L25.2449 6.29242H25.1914L25.2181 6.02416L25.3519 5.59495L25.4321 5.27305L25.5391 4.92432Z" fill="#CDC5B3"/>
<path d="M8.71875 5.46045L8.77223 5.54093L9.09314 6.31887L9.22685 6.82855L9.20011 6.93585L9.09314 6.6676L9.03966 6.39934L8.90595 6.05061L8.71875 5.6214V5.46045Z" fill="#EBE5D8"/>
<path d="M31.127 31.7227H31.1804L31.3141 32.125L31.4211 32.5811L31.5548 33.0103L31.6351 33.1444V33.1981H31.5816L31.4479 32.9298L31.2072 32.0446L31.127 31.8031V31.7227Z" fill="#BAB3A6"/>
<path d="M15.2692 14.9033H15.3762V14.957L15.082 15.0643L14.8681 15.1716L14.4937 15.3325L14.3867 15.3057L14.7611 15.0911L15.0553 14.957L15.2692 14.9033Z" fill="#968668"/>
<path d="M15.2698 15.064L15.35 15.0908H15.2966V15.1444L15.0826 15.1981L14.7617 15.3859L14.6013 15.52L14.4675 15.4932L14.4141 15.3859H14.5745L14.6815 15.359L14.7082 15.2786L15.0559 15.1176L15.2698 15.064Z" fill="#E9E3D4"/>
<path d="M27.5437 2.29541H27.5705V2.51001L27.4367 2.77827L27.3565 2.88557L27.2495 2.9124L27.2228 2.96605H27.1693L27.1426 3.0197L27.1693 2.77827L27.2228 2.83192L27.4635 2.45636L27.5437 2.29541Z" fill="#9B8969"/>
<path d="M8.61148 36.0151L8.63822 36.1224V36.2834L8.6917 36.2566L8.66496 36.5785L8.58473 36.9809L8.53125 37.0077L8.55799 36.2029L8.61148 36.0151Z" fill="#B9B0A1"/>
<path d="M20.3242 30.623L20.3777 30.6767L20.5916 31.4815L20.6451 31.7229V31.9911L20.5916 31.9643L20.4579 31.2669L20.3242 30.7035V30.623Z" fill="#8F8A7A"/>
<path d="M4.27838 37.7852L4.43884 37.812V37.8656H4.70626V37.9193H3.7168V37.8656L3.98422 37.8388H4.27838V37.7852Z" fill="#A99674"/>
<path d="M33.1328 32.125L33.213 32.2323L33.4805 32.8493L33.6409 33.3053V33.4395L33.5874 33.4126L33.3467 32.742L33.1328 32.2055V32.125Z" fill="#B0A187"/>
<path d="M26.6094 29.4429L26.6629 29.4965L27.1175 30.811V30.9988L27.064 30.9719L26.8768 30.3013L26.6094 29.5233V29.4429Z" fill="#858173"/>
<path d="M2.00494 30.9985L2.03169 31.0522L1.81775 31.3741L1.68404 31.6155L1.63055 31.7228V31.8033L1.49684 31.9643H1.44336L1.52359 31.7228L1.73752 31.3473L1.9782 31.0254L2.00494 30.9985Z" fill="#BAB3A6"/>
<path d="M20.832 36.8467L20.8855 36.9003L20.9925 37.4368L21.0192 37.7856L20.939 37.7319L20.8588 37.2759L20.832 37.1686V36.8467Z" fill="#F4EFE2"/>
<path d="M17.623 19.9463L17.7568 20.0804L17.8637 20.2145L17.944 20.4023L18.1044 20.5901V20.6438L17.9974 20.6169L17.7033 20.2682L17.6498 20.1341V20.0536L17.623 19.9463Z" fill="#A09375"/>
<path d="M17.623 33.6274L17.6765 33.6811L17.73 33.9493L17.7835 34.1371L17.8637 34.5663V34.7273L17.8102 34.7005L17.623 33.8152V33.6274Z" fill="#BAB3A6"/>
<path d="M23.8535 19.1685H24.5756V19.2758H24.2814L23.8803 19.2489L23.8535 19.1685Z" fill="#E6E0D1"/>
<path d="M21.0996 29.4429L21.1531 29.4965L21.4205 30.2476L21.474 30.4086L21.5007 30.65L21.4205 30.5695L21.2868 30.1135L21.0996 29.5502V29.4429Z" fill="#908A7A"/>
<path d="M25.9408 3.87793L25.9675 3.98523L25.7803 4.57539L25.6199 4.97778H25.5664L25.6466 4.65587L25.7803 4.33396L25.8873 3.98523L25.9408 3.87793Z" fill="#EAE5D8"/>
<path d="M21.7151 18.3101L21.7954 18.3369V18.5783L21.7151 18.6588L21.5814 18.632L21.5547 18.4442L21.7151 18.3101Z" fill="#2F2C25"/>
<path d="M25.0847 5.19238H25.1115V5.8362L25.165 6.13128H25.2184L25.165 6.56049H25.1382L25.058 5.9435L25.0312 5.75572L25.0847 5.19238Z" fill="#888375"/>
<path d="M6.55123 36.6587H6.57797L6.55123 37.1416L6.44426 37.7585L6.39077 37.8927L6.31055 37.8658H6.36403L6.39077 37.5976L6.55123 36.6587Z" fill="#8F8C7E"/>
<path d="M20.6459 31.8838H20.6726L20.7796 32.6617V32.9032L20.6994 32.8495L20.6191 32.152L20.6459 31.8838Z" fill="#9B927D"/>
<path d="M4.09238 28.3159L4.11912 28.3696L3.79822 28.9061L3.55754 29.2816L3.45057 29.4962L3.42383 29.4158L3.58428 29.0939L3.90519 28.5842L4.09238 28.3159Z" fill="#BAB3A6"/>
<path d="M4.38536 34.8345L4.4121 34.8881L4.25165 35.4515L4.11794 35.7734H4.06445L4.14468 35.4783L4.33187 34.8881L4.38536 34.8345Z" fill="#F4EFE2"/>
<path d="M28.9085 7.98242L28.9352 8.03607L29.0155 8.0629L29.069 8.1702V8.2775L28.962 8.30433L28.8818 8.2775L28.855 8.35798L28.748 8.30433L28.9085 7.98242Z" fill="#A7965D"/>
<path d="M2.48767 35.854L2.51441 35.9613L2.27373 36.7392L2.14002 37.1148L2.11328 37.0343L2.32722 36.3369V36.2296L2.48767 35.854Z" fill="#B6AD9B"/>
<path d="M23.7207 30.7573L23.7742 30.8646L23.9079 31.6694V31.8035H23.8544L23.8277 31.884L23.7207 30.9451V30.7573Z" fill="#AE9E82"/>
<path d="M21.741 19.6245L21.8747 19.6513L21.9014 19.705V19.8928L21.848 19.9464L21.7142 19.9196L21.6875 19.8928V19.6782L21.741 19.6245Z" fill="#1F1E17"/>
<path d="M11.7931 17.8809L11.9268 17.9077L11.9536 17.9345V18.1223L11.9268 18.1759L11.7396 18.1491L11.7129 18.1223V17.9882L11.7931 17.8809Z" fill="#181814"/>
<path d="M22.4899 17.7734H22.5434L22.5969 17.8539V17.988L22.4899 18.0685L22.3562 18.0417L22.3027 17.988L22.3295 17.8807L22.4899 17.7734Z" fill="#161510"/>
<path d="M15.9922 17.2104H16.4468L16.4735 17.2373V17.8274L16.4468 18.1225H16.4201V17.8006L16.4468 17.6933L16.2596 17.6397L16.2329 17.5324L16.3131 17.5592L16.4201 17.5324L16.4468 17.2641L15.9922 17.2373V17.2104Z" fill="#847D6C"/>
<path d="M16.4468 14.8228H17.57V14.8496L16.6607 14.8764L16.4201 14.9032L15.6445 14.8764V14.8496L16.4468 14.8228Z" fill="#8A7F68"/>
<path d="M29.6309 31.2935L29.6576 31.3739H29.7111L29.8181 31.669V31.7495H29.8715L29.925 31.9641V32.2324L29.8715 32.125L29.6309 31.4008V31.2935Z" fill="#AA9A7D"/>
<path d="M13.3451 19.7588H13.5858L13.6393 19.8124L13.6125 19.9197L13.5056 19.9734H13.3451L13.3184 19.9466L13.3451 19.7588Z" fill="#1B1B17"/>
<path d="M22.4369 31.0522L22.4904 31.0791L22.5439 31.3742L22.5706 31.9643H22.5171L22.4636 31.6156L22.4102 31.1059L22.4369 31.0522Z" fill="#AE9D80"/>
<path d="M12.9962 19.1416L13.13 19.1684L13.1834 19.2221V19.3562L13.13 19.4099H12.9695L12.916 19.3294L12.9428 19.1953L12.9962 19.1416Z" fill="#292822"/>
<path d="M27.0631 6.18506H27.0898L27.0631 6.45331L26.8224 7.41903L26.7422 7.49951L26.7689 7.28491L26.9561 6.61427L27.0631 6.18506Z" fill="#F4EFE2"/>
<path d="M26.9017 4.73633H27.0355L27.0622 4.78998V5.08506H26.982V5.21919L26.9017 5.24601L26.9285 4.89728V4.84363L26.875 4.8168L26.9017 4.73633Z" fill="#A7985D"/>
<path d="M8.85156 4.01221H8.90505L9.01202 4.25364L9.22595 4.76332L9.27944 4.89745V4.97793H9.22595L9.0655 4.57554L8.85156 4.06586V4.01221Z" fill="#E0D9C9"/>
<path d="M22.0625 34.8076L22.116 34.8881L22.223 35.5319V35.8806L22.1695 35.827L22.0625 34.9686V34.8076Z" fill="#8F897A"/>
<path d="M23.0527 28.6377L23.1062 28.745H23.1597L23.4004 29.2547L23.4806 29.3888L23.5608 29.6034L23.5341 29.6839L23.0527 28.7182V28.6377Z" fill="#AFA085"/>
<path d="M31.209 34.915L31.2625 34.9955L31.4764 35.6393L31.5566 35.8539V36.0149L31.5031 35.9881L31.209 35.0223V34.915Z" fill="#A29A87"/>
<path d="M12.034 18.7124H12.1944V18.927L12.1142 19.0075L12.0072 18.9807L11.9805 18.9538V18.7661L12.034 18.7124Z" fill="#171610"/>
<path d="M28.9349 9.13574L29.0954 9.24304L29.3093 9.404L29.6837 9.69908L29.7372 9.67225V9.80638L29.5233 9.64543L29.0419 9.2967L28.9082 9.21622L28.9349 9.13574Z" fill="#91866D"/>
<path d="M8.9052 34.1104L8.93194 34.2177L8.85171 35.0492L8.79823 35.1834H8.77148V34.9151L8.87845 34.1908L8.9052 34.1104Z" fill="#AF9F83"/>
<path d="M22.4642 18.4712L22.598 18.498L22.6514 18.5517V18.7126L22.598 18.7663H22.4642L22.4375 18.7126V18.5248L22.4642 18.4712Z" fill="#1C1B15"/>
<path d="M4.8134 35.4785H4.84014V35.9077L4.73317 36.6588L4.70643 36.793H4.67969V36.6052L4.75991 36.0419V35.6395L4.8134 35.4785Z" fill="#BAB3A6"/>
<path d="M12.7019 18.4712L12.8356 18.498L12.8624 18.5248V18.6858L12.8089 18.7663L12.6752 18.7394L12.6484 18.7126V18.5248L12.7019 18.4712Z" fill="#181712"/>
<path d="M29.0156 29.7378L29.0959 29.8183L29.2563 30.2207L29.4168 30.5694V30.7035H29.3633L29.2028 30.3011L29.0424 29.8719L29.0156 29.7378Z" fill="#8E8A7B"/>
<path d="M4.65279 33.9224L4.67953 34.0028L4.51908 34.6735L4.46559 34.7271L4.41211 34.6735L4.43885 34.5125L4.65279 33.9224Z" fill="#ABA08B"/>
<path d="M18.6934 36.793L18.7468 36.8466L18.8806 37.5709V37.705L18.8003 37.7319L18.6934 36.9003V36.793Z" fill="#9E947F"/>
<path d="M9.4402 4.36084L9.49369 4.46814L9.65414 4.68275H9.57391L9.52043 4.60227L9.60066 4.92418L9.65414 5.16561L9.60066 5.11195L9.41346 4.57544L9.38672 4.41449L9.4402 4.36084Z" fill="#726C5E"/>
<path d="M8.79823 4.01221H8.85171L9.03891 4.44142L9.01216 4.54872L8.9052 4.38776L8.82497 4.30729L8.77148 4.17316V4.03903L8.79823 4.01221Z" fill="#171611"/>
<path d="M23.9871 32.769H24.0138L24.0406 33.5202V33.7079L23.9871 33.7348L23.9336 33.1983V33.0105H23.9603L23.9871 32.769Z" fill="#B1A38B"/>
<path d="M18.2383 20.8047L18.3185 20.8315V20.8852L18.4255 20.9388L18.7464 21.2607L18.8801 21.3412L18.8534 21.3948L18.7464 21.368L18.2383 20.8583V20.8047Z" fill="#AD9E7C"/>
<path d="M17.9968 15.1177L18.0503 15.1445L18.1306 15.1982H18.2108L18.291 15.225L18.3712 15.1982L18.3445 15.3323L18.291 15.4128L18.1573 15.3591L17.9434 15.1713L17.9968 15.1177Z" fill="#E5DFD1"/>
<path d="M6.2844 34.8345H6.33788L6.31114 34.9954L6.04372 35.6661H5.99023L6.01698 35.3173H6.0972L6.2844 34.8345Z" fill="#B3A792"/>
<path d="M15.7252 19.8657V19.9462L15.4845 20.2145L15.1101 20.59L15.0566 20.5632L15.2973 20.3218L15.538 20.0267L15.7252 19.8657Z" fill="#B8B0A1"/>
<path d="M20.8048 19.1147H20.8851V19.4635H20.7514L20.7246 19.4367V19.2489L20.8048 19.1147Z" fill="#181712"/>
<path d="M19.2812 35.9077L19.3347 35.9882L19.4952 36.5515L19.5487 36.7125H19.6022L19.6556 36.8198L19.6289 36.9271L19.4684 36.6588L19.308 36.1491L19.2812 35.9077Z" fill="#BAB3A6"/>
<path d="M19.041 31.5083L19.0945 31.5351L19.148 32.0448V32.3935L19.0945 32.3131L19.041 31.857V31.5083Z" fill="#89877B"/>
<path d="M13.3185 21.9048H13.372L13.3452 21.9853L12.8906 22.2803L12.5965 22.4413L12.543 22.4145L12.9708 22.1462L13.3185 21.9048Z" fill="#BAB3A6"/>
<path d="M8.61133 3.93164L8.74504 4.06577L8.90549 4.44133L8.87875 4.5218H8.82527L8.61133 3.98529V3.93164Z" fill="#646258"/>
<path d="M27.3044 2.02686H27.3579L27.2509 2.45606L27.1974 2.61702L27.1172 2.59019L27.1707 2.32194L27.2776 2.08051L27.3044 2.02686Z" fill="#3A362F"/>
<path d="M21.0191 19.8926H21.126V20.2145H20.9121L20.9656 20.0804L21.0191 19.8926Z" fill="#29271F"/>
<path d="M25.886 6.26562L25.9127 6.37293L25.779 6.80214L25.6185 7.23134L25.5918 7.15087L25.7523 6.66801L25.8325 6.3461L25.886 6.26562Z" fill="#F3EEE1"/>
<path d="M7.19276 2.4292L7.27298 2.45602L7.46018 2.77793V2.83158L7.29973 2.80476L7.24624 2.6438V2.5365L7.16602 2.56333L7.19276 2.4292Z" fill="#A89964"/>
<path d="M27.0898 28.8525L27.1433 28.9062L27.2236 29.2281L27.2503 29.4427V29.6841L27.1968 29.6305L27.1166 29.3622L27.1701 29.3354L27.1166 29.0671L27.0898 29.0135V28.8525Z" fill="#B9B1A4"/>
<path d="M32.8125 27.833L32.8927 27.8867L32.9462 28.0208L33.0264 28.1549L33.1869 28.3963L33.1601 28.4768L33.0532 28.3427L32.8125 27.994L32.866 27.9671L32.8125 27.833Z" fill="#545045"/>
<path d="M7.70117 2.99268L7.80814 3.04633L8.07556 3.36823L8.18253 3.52919H8.1023V3.47554H8.04882L7.86162 3.23411L7.72791 3.09998L7.70117 2.99268Z" fill="#A7975B"/>
<path d="M26.4477 2.32227L26.4745 2.40274L26.3407 2.91243L26.2873 3.10021L26.207 3.07338L26.2873 2.75147L26.314 2.72465L26.3675 2.48322L26.4477 2.32227Z" fill="#CCC7B9"/>
<path d="M2.99534 33.1445L3.02208 33.225L2.75466 33.9493L2.70117 33.842L2.75466 33.681L2.94185 33.2518L2.99534 33.1445Z" fill="#9E9888"/>
<path d="M13.6388 28.9868H13.6656V29.416L13.6121 29.7648H13.5586L13.6121 29.0405L13.6388 28.9868Z" fill="#918A78"/>
<path d="M33.8555 34.2178L33.8822 34.2982H33.9357L34.0427 34.7275V34.9421L33.9892 34.8884L33.8555 34.3519V34.2178Z" fill="#B3A792"/>
<path d="M20.0566 28.9868H20.1101L20.2438 29.6038L20.2706 29.7111H20.1904L20.0566 29.0941V28.9868Z" fill="#B9B2A5"/>
<path d="M37.0105 19.4097L37.1977 19.4365L37.7058 19.6243L37.5988 19.6511L36.957 19.4633L37.0105 19.4097Z" fill="#191711"/>
<path d="M27.331 2.32227L27.3577 2.40274L27.3845 2.51004L27.4112 2.59052L27.224 2.85878L27.1973 2.75147L27.331 2.32227Z" fill="#312D25"/>
<path d="M20.832 33.6006L20.8855 33.6542L20.939 34.003V34.2712H20.8855L20.832 33.8957V33.6006Z" fill="#8E8B7C"/>
<path d="M21.474 30.4619L21.5275 30.5424L21.6879 31.0253L21.6612 31.1326L21.5542 30.8375L21.5275 30.8106L21.474 30.8643L21.4473 30.6229L21.474 30.596V30.4619Z" fill="#B8B0A1"/>
<path d="M6.81836 2.50977L6.92533 2.64389L7.21949 3.04628H7.13927L6.95207 2.8585L6.81836 2.59024V2.50977Z" fill="#F4EFE2"/>
<path d="M12.8367 36.8735H12.8634L12.8902 37.2223L12.8367 37.7051H12.7832L12.8367 36.8735Z" fill="#A49880"/>
<path d="M30.4316 29.8721L30.4851 29.8989L30.7258 30.4086L30.7525 30.5964L30.6723 30.5159L30.4316 29.9525V29.8721Z" fill="#B0A086"/>
<path d="M4.14588 27.377L4.17262 27.4574L3.98542 27.672L3.82497 27.9135H3.77148L3.79823 27.8062L4.06565 27.4306L4.14588 27.377Z" fill="#333028"/>
<path d="M27.1692 2.72461L27.1959 2.77826L26.9552 3.47572L26.875 3.50255L26.9552 3.26112L27.1424 2.75143L27.1692 2.72461Z" fill="#F1ECDF"/>
<path d="M21.7943 20.188L21.928 20.2148L21.9548 20.2416V20.4026L21.8211 20.4294L21.7676 20.3489L21.7943 20.188Z" fill="#1C1D19"/>
<path d="M13.7461 18.2832L13.8798 18.31L13.9333 18.3905V18.5246H13.7996L13.7461 18.471V18.2832Z" fill="#191712"/>
<path d="M7.46094 2.59033L7.56791 2.64398L7.62139 2.77811H7.67487V2.83176L7.7551 2.85859L7.70162 2.91224L7.62139 2.85859V2.91224H7.56791L7.46094 2.69763V2.59033Z" fill="#A7965C"/>
<path d="M29.0951 6.02393L29.1218 6.07758L28.8544 6.50679L28.7207 6.64091L28.7742 6.47996L29.0684 6.05075L29.0951 6.02393Z" fill="#F4EFE2"/>
<path d="M25.4844 30.1401L25.5379 30.2206L25.7251 30.8376V30.8913L25.6448 30.8644L25.4844 30.2474V30.1401Z" fill="#938B78"/>
<path d="M29.2832 29.2549H29.3367L29.5506 29.7646L29.6041 29.7914L29.6309 29.9523L29.5506 29.9255L29.2832 29.3354V29.2549Z" fill="#ADA088"/>
<path d="M27.5978 8.25049H27.6513L27.678 8.38462L27.9989 8.5724L27.9722 8.62605L27.5443 8.38462L27.5176 8.30414L27.5978 8.25049Z" fill="#A4967B"/>
<path d="M12.4357 32.9302H12.4624V33.2253L12.409 33.6008H12.3555V33.3057L12.3822 33.2789L12.4357 32.9302Z" fill="#86877D"/>
<path d="M1.6573 31.5352L1.68404 31.6156L1.63055 31.7229V31.8034L1.49684 31.9644H1.44336L1.52359 31.7229L1.63055 31.562L1.6573 31.5352Z" fill="#BBB4A7"/>
<path d="M29.5508 30.9448L29.631 31.0521L29.8182 31.5618L29.8449 31.7496L29.7915 31.6691L29.7112 31.4545V31.374H29.6578L29.6043 31.1594L29.5508 31.0253V30.9448Z" fill="#BAB3A6"/>
<path d="M27.3301 31.9644L27.3568 32.0448H27.4103L27.4638 32.6082L27.4103 32.5813L27.3301 32.1521V31.9644Z" fill="#8B897C"/>
<path d="M7.08729 2.10742L7.14077 2.1879L7.24774 2.42933L7.14077 2.5098L7.08729 2.48298L7.06055 2.26838L7.08729 2.24155L7.06055 2.13425L7.08729 2.10742Z" fill="#B2A489"/>
<path d="M2.05904 37.1953L2.08578 37.2758L1.95207 37.6245L1.81836 37.7318L1.8451 37.5172L1.92533 37.4904L2.05904 37.1953Z" fill="#BDB5A7"/>
<path d="M25.6719 30.8911L25.7521 30.9179L25.8323 31.2398V31.4544L25.7788 31.4008L25.6719 30.9716V30.8911Z" fill="#7F7B6E"/>
<path d="M13.1297 17.9346L13.2366 17.9614L13.2634 18.0955L13.2099 18.1492L13.0762 18.1223V17.9882L13.1297 17.9346Z" fill="#1C1B15"/>
<path d="M9.0658 6.31885L9.11929 6.42615L9.22626 6.82853L9.19952 6.93583L9.09255 6.66758L9.03906 6.3725L9.0658 6.31885Z" fill="#E1DBCE"/>
<path d="M7.14062 2L7.22085 2.08048L7.35456 2.29508L7.43479 2.48286L7.46153 2.59016H7.40805L7.19411 2.18778L7.14062 2.08048V2Z" fill="#857C66"/>
<path d="M6.471 34.3516L6.49774 34.4589L6.36403 34.8344H6.31055L6.33729 34.6466L6.44426 34.3784L6.471 34.3516Z" fill="#B9B2A4"/>
<path d="M26.6348 27.6455L26.715 27.726L26.8487 28.1284V28.2625H26.7952L26.6348 27.6992V27.6455Z" fill="#B2A58E"/>
<path d="M25.7269 4.46826H25.8071L25.7269 4.70969L25.6199 4.97795H25.5664L25.6466 4.65604L25.7269 4.46826Z" fill="#E4DED0"/>
<path d="M27.6245 1.08789L27.7048 1.11472L27.5978 1.54392L27.5176 1.49027L27.5711 1.24884L27.6245 1.08789Z" fill="#C2BEB1"/>
<path d="M25.5391 37.3027L25.5925 37.3564L25.6728 37.6515L25.646 37.7588L25.5925 37.8661L25.5391 37.4905V37.3027Z" fill="#BAB3A6"/>
<path d="M26.0195 32.501L26.073 32.5546L26.1265 32.9034V33.0375H26.073L26.0195 32.7961V32.501Z" fill="#7E7A6D"/>
<path d="M27.1166 30.8911L27.1701 30.9716L27.2236 31.1594V31.3203L27.1701 31.3471L27.0898 31.0789L27.1166 30.8911Z" fill="#A29780"/>
<path d="M25.0835 6.69482H25.1103V6.8826L25.03 7.28499H24.9766V7.09721L25.0835 6.69482Z" fill="#D7CFBD"/>
<path d="M7.35352 2.34863H7.43374L7.54071 2.48276L7.62094 2.59006V2.64371L7.51397 2.61689L7.46048 2.59006L7.35352 2.40228V2.34863Z" fill="#B1A688"/>
<path d="M33.1328 32.125L33.213 32.2323L33.4002 32.6615V32.7956L33.32 32.6883L33.1328 32.2055V32.125Z" fill="#A7997F"/>
<path d="M15.8576 19.6514V19.7318L15.7773 19.866L15.5099 20.0806H15.4297L15.8576 19.6514Z" fill="#86806D"/>
<path d="M20.6713 18.3906H20.7782L20.805 18.5784L20.6713 18.6052L20.6445 18.5784V18.4175L20.6713 18.3906Z" fill="#23221C"/>
<path d="M12.3021 17.5322L12.4091 17.5591L12.4358 17.6932L12.4091 17.7468H12.2754V17.5591L12.3021 17.5322Z" fill="#1C1B16"/>
<path d="M4.51862 37.3828H4.54537L4.51862 37.6242L4.46514 37.8657L4.4384 37.812L4.30469 37.7852L4.41166 37.7047L4.51862 37.3828Z" fill="#B9B1A3"/>
<path d="M25.6191 37.061L25.6726 37.1415L25.8063 37.5707L25.7796 37.7317H25.7529L25.6191 37.1683V37.061Z" fill="#BAB3A6"/>
<path d="M23.7207 30.7573L23.7742 30.8646L23.8544 31.3207V31.4011L23.7742 31.3743L23.7207 30.9451V30.7573Z" fill="#B2A58E"/>
<path d="M9.2787 4.92432L9.33218 4.97797L9.43915 5.29987L9.49263 5.434H9.41241L9.25195 5.03162L9.2787 4.92432Z" fill="#D8D2C3"/>
<path d="M8.23633 3.90479H8.28981V3.95844L8.37004 3.98526L8.47701 4.14621L8.45026 4.19987L8.3433 4.17304L8.31655 4.06574H8.26307L8.23633 3.90479Z" fill="#A7975B"/>
<path d="M25.8334 31.3472H25.8601L25.9404 31.7227V31.8569L25.8601 31.83L25.8066 31.4545L25.8334 31.3472Z" fill="#918977"/>
<path d="M3.69125 28.9331H3.74473L3.69125 29.0672L3.5308 29.3355L3.45057 29.4964L3.42383 29.416L3.58428 29.0941L3.69125 28.9331Z" fill="#B1A28A"/>
<path d="M16.9004 17.0762L16.9539 17.103L16.9271 17.1835L16.6864 17.2371H16.5527L16.5795 17.1566L16.8469 17.103L16.9004 17.0762Z" fill="#3E3A31"/>
<path d="M5.69531 4.79004L5.80228 4.81686L5.85577 5.00464L5.82902 5.13877L5.7488 5.03147L5.69531 4.84369V4.79004Z" fill="#A89962"/>
<path d="M31.7695 36.8735H31.823L31.9032 37.1954V37.4369H31.8765L31.7695 36.9808V36.8735Z" fill="#AF9F85"/>
<path d="M25.459 36.6318H25.5125L25.5927 36.8733L25.566 36.9806H25.4857L25.459 36.6318Z" fill="#BAB3A6"/>
<path d="M29.9785 35.5054H30.032L30.139 35.9882L30.0587 35.9614L29.9785 35.6395V35.5054Z" fill="#B0A188"/>
<path d="M27.303 2.32227L27.3298 2.37592L27.2228 2.75147H27.1426L27.2228 2.45639L27.303 2.32227Z" fill="#DED7C7"/>
<path d="M33.1328 35.9346H33.1863L33.2665 36.337V36.4711L33.213 36.4443L33.1328 36.0419V35.9346Z" fill="#BAB3A6"/>
<path d="M13.7195 27.9673H13.7462V28.4501H13.7195L13.6928 28.316H13.666V28.1014L13.7195 27.9673Z" fill="#B0A288"/>
<path d="M4.81325 35.4785H4.83999V35.9077L4.81325 36.0419H4.78651L4.75977 35.6395L4.81325 35.4785Z" fill="#B9B1A2"/>
<path d="M13.6381 28.5039H13.6648L13.6916 28.799V29.1477L13.6113 29.0404L13.6381 28.5039Z" fill="#AF9F84"/>
<path d="M13.9857 18.9805H14.1194L14.0927 19.1414L13.9857 19.1682L13.959 19.1414V19.0073L13.9857 18.9805Z" fill="#26241E"/>
<path d="M18.8257 37.5977L18.8792 37.705L18.9327 37.8927L18.9059 37.9196H18.7188L18.7455 37.8659H18.8257V37.5977Z" fill="#7B7566"/>
<path d="M30.084 35.9614L30.1642 36.0419L30.2177 36.2029V36.3906L30.1642 36.3638L30.084 36.0687V35.9614Z" fill="#A7987E"/>
<path d="M20.5918 35.6392L20.6453 35.666L20.6988 35.8538V36.1488L20.6453 36.0684L20.5918 35.6392Z" fill="#A79980"/>
<path d="M33.6426 37.7319L33.7228 37.8124V37.8661H33.9902L33.9635 37.9197H33.6426V37.7319Z" fill="#AD9C7F"/>
<path d="M27.0092 30.5693L27.0626 30.6498L27.1161 30.8108V30.9985L27.0626 30.9717L26.9824 30.623L27.0092 30.5693Z" fill="#8D8C7F"/>
<path d="M23.293 5.35352L23.3464 5.38034L23.2127 5.51447L22.9988 5.70225L22.9453 5.67542L23.1325 5.48764H23.186V5.43399L23.293 5.35352Z" fill="#A8A396"/>
<path d="M9.0918 4.5752H9.14528L9.25225 4.7898L9.27899 4.97758H9.22551L9.0918 4.62885V4.5752Z" fill="#E4DED1"/>
<path d="M26.101 36.5513L26.1544 36.6317L26.2079 37.0878L26.1544 37.0073L26.0742 36.6586L26.101 36.5513Z" fill="#BAB3A6"/>
<path d="M31.4219 32.769H31.4754L31.5823 33.0373L31.6358 33.1982H31.5823L31.4486 32.93L31.4219 32.769Z" fill="#B7AE9D"/>
<path d="M10.6433 31.5889L10.6968 31.6693L10.6701 31.9376L10.6433 32.0181H10.5898L10.6166 31.723L10.6433 31.5889Z" fill="#8B8677"/>
<path d="M23.3457 29.2549L23.4527 29.3085L23.5596 29.6036L23.5329 29.6841L23.3457 29.3085V29.2549Z" fill="#918873"/>
<path d="M14.4684 20.8853L14.5219 20.9926L14.3347 21.1267H14.2812L14.308 21.0194L14.4684 20.8853Z" fill="#AA9673"/>
<path d="M27.5703 37.4097L27.6238 37.4901L27.6773 37.7316L27.7308 37.8389L27.6238 37.7584L27.5703 37.7852V37.4097Z" fill="#BAB3A6"/>
<path d="M7.62184 2.61719L7.72881 2.72449L7.83578 2.88544L7.67533 2.83179V2.77814H7.62184L7.56836 2.64401L7.62184 2.61719Z" fill="#9D8C63"/>
<path d="M27.4111 2L27.4378 2.08048L27.3576 2.32191L27.2773 2.34873L27.3041 2.16095L27.3843 2.02683L27.4111 2Z" fill="#C8C1B0"/>
<path d="M26.0469 36.2026L26.0736 36.2831H26.1271V36.5514L26.0736 36.5782L26.0469 36.4709V36.2026Z" fill="#B4A995"/>
<path d="M6.01698 35.3174L6.12395 35.3442L6.0972 35.5052L6.04372 35.6661H5.99023L6.01698 35.3174Z" fill="#A49984"/>
<path d="M33.7754 33.8154L33.8289 33.8959L33.9091 34.1642V34.2983L33.8289 34.2446L33.7754 33.9227V33.8154Z" fill="#BAB3A6"/>
<path d="M8.85261 6.80176V6.88223L8.69216 7.07001L8.63867 6.98954L8.66541 6.88223L8.85261 6.80176Z" fill="#636259"/>
<path d="M27.5443 6.10449L27.5978 6.15814L27.5711 6.56053H27.5176V6.18497L27.5443 6.10449Z" fill="#AC9B79"/>
<path d="M9.6543 5.16553L9.70778 5.246L9.73452 5.38013V5.59474H9.68104L9.6543 5.43378V5.16553Z" fill="#48443C"/>
<path d="M27.3042 2.02686H27.3577L27.2775 2.32194L27.1973 2.40241L27.224 2.21463L27.3042 2.02686Z" fill="#302D26"/>
<path d="M8.82497 34.8076H8.85171V35.049L8.79823 35.1832H8.77148V34.9149L8.82497 34.8076Z" fill="#AC997A"/>
<path d="M21.3939 30.2476L21.4474 30.328L21.5009 30.6499L21.4207 30.5695L21.3672 30.3012L21.3939 30.2476Z" fill="#AD9B7E"/>
<path d="M26.2873 2.75146H26.3675L26.3407 2.91242L26.2873 3.1002L26.207 3.07337L26.2873 2.75146Z" fill="#AEAB9F"/>
<path d="M22.142 37.8657H22.4629L22.5164 37.9194L22.3827 37.9462L22.1152 37.9194L22.142 37.8657Z" fill="#A99470"/>
<path d="M2.48723 35.854L2.51397 35.9613L2.43374 36.2296L2.35352 36.2564L2.38026 36.1223L2.48723 35.854Z" fill="#9F9681"/>
<path d="M21.7416 31.5083L21.7951 31.5888L21.8753 31.9375H21.8218L21.7148 31.6424L21.7416 31.5083Z" fill="#B1A38A"/>
<path d="M12.7031 18.4712L12.8368 18.498L12.8636 18.5248V18.6858L12.7299 18.6053L12.7031 18.4712Z" fill="#35322A"/>
<path d="M28.5613 3.31445H28.6148L28.6415 3.52906L28.588 3.60953L28.5078 3.39493L28.5613 3.31445Z" fill="#A7975E"/>
<path d="M18.9863 31.2134L19.0398 31.2402L19.0666 31.5085L19.0398 31.6426H19.0131L18.9863 31.2134Z" fill="#A0947D"/>
<path d="M28.6414 3.47559L28.6949 3.58289L28.7216 3.74384L28.6146 3.71702L28.5879 3.60971L28.6414 3.47559Z" fill="#A9996A"/>
<path d="M31.556 35.9346L31.6095 36.015L31.6363 36.2565H31.5828L31.5293 36.015L31.556 35.9346Z" fill="#A5987F"/>
<path d="M33.642 33.3594L33.6955 33.4667L33.7489 33.6813H33.6687L33.6152 33.4399L33.642 33.3594Z" fill="#B7AE9D"/>
<path d="M20.5912 31.5889H20.6179L20.6447 31.723V31.9913L20.5912 31.9644L20.5645 31.723L20.5912 31.5889Z" fill="#939081"/>
<path d="M30.4316 29.8721L30.4851 29.8989L30.6188 30.1672V30.2476H30.5654L30.4316 29.9525V29.8721Z" fill="#B0A188"/>
<path d="M19.2539 21.7168L19.3876 21.7436L19.655 21.9314L19.6016 21.9582L19.2806 21.7704L19.2539 21.7168Z" fill="#858272"/>
<path d="M22.4629 37.6514L22.5431 37.6782L22.5699 37.8123L22.5431 37.8928H22.4629V37.6514Z" fill="#9A9078"/>
<path d="M20.726 32.4473H20.7527L20.7794 32.6619V32.9033L20.6992 32.8496L20.726 32.4473Z" fill="#AE9D80"/>
<path d="M32.8125 27.833L32.8927 27.8867L32.9462 28.0208L32.9997 28.1281H32.9195L32.8125 27.994L32.866 27.9671L32.8125 27.833Z" fill="#6A6354"/>
<path d="M16.2324 17.5322L16.3126 17.5591L16.4196 17.5322L16.4464 17.6932L16.2592 17.6395L16.2324 17.5322Z" fill="#BAB3A6"/>
<path d="M27.303 2.72461L27.3298 2.77826L27.2228 2.96604H27.1693L27.1426 3.01969L27.1693 2.77826L27.2228 2.83191L27.303 2.72461Z" fill="#6C685C"/>
<path d="M27.465 1.73193H27.4917L27.465 1.94654L27.3848 2.02701L27.4115 1.75876L27.465 1.73193Z" fill="#DFD7C8"/>
</g>
<defs>
<clipPath id="clip0_413_8381">
<rect width="42.4468" height="38" fill="white"/>
</clipPath>
</defs>
</svg>
