<svg width="42" height="41" viewBox="0 0 42 41" fill="none" xmlns="http://www.w3.org/2000/svg">
<path d="M19.68 0H23.165L26.035 0.41L29.52 1.435L32.8 3.075L34.645 4.305L36.08 5.535L38.745 9.02L40.385 12.505L41.615 16.605L41.82 17.425V20.705L41.205 23.575L40.59 25.625L38.95 28.905L37.72 31.16L35.875 33.62L34.03 35.67L31.57 37.31L30.135 38.335L27.265 39.565L22.755 40.795L21.935 41H18.245L15.785 40.59L11.89 39.155L9.635 37.925L6.97 35.875L5.33 34.03L3.075 30.75L1.845 28.29L0.82 25.625L0.205 23.165L0 21.525V18.45L0.41 15.375L1.435 12.915L3.075 10.25H3.485L3.895 9.43L5.74 7.175L7.79 5.125L10.66 3.28L13.94 1.64L17.835 0.41L19.68 0Z" fill="#A6965C"/>
<path d="M19.4316 8.87891H20.6616L22.7116 10.1089L23.9416 11.1339L25.3766 13.1839L26.6066 15.8489L27.4266 18.7189L27.6316 19.9489V22.2039L27.0166 24.2539L24.5566 29.1739H24.1466L23.7366 30.1989L21.8916 32.2489L20.6616 32.4539L18.4066 31.2239L16.9716 29.7889L15.5366 27.5339L14.9216 26.0989L14.1016 21.7939V17.4889L14.9216 14.2089L16.1516 11.9539L18.4066 9.49391L19.4316 8.87891Z" fill="#070703"/>
<path d="M22.0967 16.0539L22.9167 16.2589L23.3267 17.6939V19.3339L22.9167 19.7439H20.4567L20.0467 19.5389L19.8417 17.8989L20.2517 16.8739L22.0967 16.0539Z" fill="#DDD8CB"/>
</svg>
